<svg xmlns="http://www.w3.org/2000/svg" xmlns:xlink="http://www.w3.org/1999/xlink" width="500" zoomAndPan="magnify" viewBox="0 0 375 374.999991" height="500" preserveAspectRatio="xMidYMid meet" version="1.0"><defs><clipPath id="096d44b1f7"><path d="M 16.238281 101 L 104 101 L 104 223 L 16.238281 223 Z M 16.238281 101 " clip-rule="nonzero"/></clipPath><clipPath id="2cee14ae1b"><path d="M 271 101 L 358.988281 101 L 358.988281 223 L 271 223 Z M 271 101 " clip-rule="nonzero"/></clipPath><clipPath id="1b01c28360"><path d="M 181 326 L 195 326 L 195 344.941406 L 181 344.941406 Z M 181 326 " clip-rule="nonzero"/></clipPath></defs><path fill="#66acc5" d="M 173.054688 139.164062 C 173.054688 139.164062 212.308594 118.796875 219.019531 120.316406 C 244.667969 126.128906 314.792969 148.957031 314.792969 148.957031 C 316.46875 149.058594 314.308594 169.402344 314.792969 169.523438 L 320.855469 196.871094 C 320.855469 196.871094 272.339844 231.113281 272.035156 231.128906 C 266.03125 237.042969 258.417969 241.480469 249.640625 243.652344 L 201.578125 255.558594 C 175.53125 262.007812 149.179688 246.144531 142.722656 220.125 C 136.261719 194.109375 148.84375 156.796875 173.054688 139.164062 Z M 173.054688 139.164062 " fill-opacity="1" fill-rule="nonzero"/><path fill="#ffffff" d="M 189.847656 263.472656 C 164.503906 263.472656 142.535156 246.289062 136.429688 221.683594 C 129.027344 191.863281 143.746094 152.5 169.238281 133.933594 C 169.5 133.742188 169.777344 133.566406 170.070312 133.417969 C 178.953125 128.804688 208.6875 113.757812 218.171875 113.757812 C 218.992188 113.757812 219.734375 113.839844 220.453125 114 C 245.207031 119.609375 309.265625 140.355469 316.269531 142.628906 C 322.066406 143.746094 321.964844 150.714844 321.914062 154.164062 C 321.871094 157.230469 321.636719 161.023438 321.449219 164.070312 C 321.351562 165.660156 321.234375 167.582031 321.207031 168.507812 L 327.1875 195.46875 C 327.75 198.015625 326.730469 200.652344 324.597656 202.160156 C 324.597656 202.160156 312.464844 210.722656 300.292969 219.285156 C 294.207031 223.570312 288.105469 227.859375 283.511719 231.074219 C 279.863281 233.628906 277.667969 235.164062 276.226562 236.09375 C 269.269531 242.820312 260.625 247.605469 251.199219 249.9375 L 203.136719 261.84375 C 198.773438 262.921875 194.304688 263.472656 189.847656 263.472656 Z M 176.488281 144.679688 C 155.476562 160.277344 142.910156 193.984375 149.011719 218.570312 C 153.683594 237.382812 170.472656 250.523438 189.847656 250.523438 C 193.253906 250.523438 196.675781 250.101562 200.015625 249.273438 L 248.082031 237.371094 C 255.414062 235.554688 262.121094 231.804688 267.480469 226.523438 C 267.867188 226.140625 268.296875 225.8125 268.757812 225.542969 C 271.210938 223.929688 295.597656 206.765625 313.59375 194.070312 L 308.464844 170.921875 L 308.539062 170.90625 C 308.164062 168.875 308.320312 166.304688 308.511719 163.277344 C 308.65625 160.910156 308.910156 156.773438 308.957031 153.878906 C 294.082031 149.078125 239.886719 131.742188 217.972656 126.71875 C 213.238281 127.058594 192.980469 136.148438 176.488281 144.679688 Z M 271.5 224.679688 C 270.328125 224.773438 269.433594 225.167969 268.9375 225.441406 C 269.726562 225.015625 270.597656 224.753906 271.5 224.679688 Z M 316.335938 163.234375 C 317.886719 163.613281 319.210938 164.539062 320.097656 165.800781 C 319.320312 164.679688 318.101562 163.664062 316.335938 163.234375 Z M 313.421875 155.285156 C 313.726562 155.351562 314.046875 155.398438 314.382812 155.421875 C 314.058594 155.398438 313.738281 155.355469 313.421875 155.285156 Z M 313.421875 155.285156 " fill-opacity="1" fill-rule="nonzero"/><path fill="#66acc5" d="M 219.371094 175.394531 L 161.90625 149.632812 C 160.609375 149.042969 175.972656 137.929688 174.652344 137.464844 C 178.289062 117.285156 132.578125 145.59375 126.667969 143.199219 L 79.632812 126.125 C 77.964844 125.921875 76.769531 125.8125 76.269531 125.839844 L 60.4375 211.46875 C 60.4375 211.46875 92.253906 212.734375 100.359375 218.835938 C 101.019531 219.328125 101.734375 221.589844 102.035156 221.667969 C 106.863281 228.570312 113.542969 234.316406 121.777344 238.042969 L 151.6875 254.738281 C 176.128906 265.808594 220.113281 258.722656 231.191406 234.308594 C 242.277344 209.894531 243.808594 186.460938 219.371094 175.394531 Z M 219.371094 175.394531 " fill-opacity="1" fill-rule="nonzero"/><path fill="#ffffff" d="M 178.214844 266.300781 C 178.210938 266.300781 178.210938 266.300781 178.210938 266.300781 C 167.289062 266.300781 157.191406 264.339844 149.011719 260.636719 C 148.847656 260.558594 148.683594 260.480469 148.527344 260.390625 L 118.847656 243.828125 C 110.089844 239.808594 102.535156 233.558594 96.96875 225.726562 C 96.304688 224.921875 95.894531 224.078125 95.617188 223.488281 C 90.355469 220.714844 73.667969 218.480469 60.179688 217.941406 C 58.300781 217.867188 56.546875 216.980469 55.375 215.511719 C 54.199219 214.046875 53.722656 212.144531 54.0625 210.296875 L 69.898438 124.664062 C 70.4375 121.730469 72.921875 119.546875 75.902344 119.378906 C 76.71875 119.332031 78.015625 119.40625 80.421875 119.699219 C 80.90625 119.761719 81.386719 119.875 81.847656 120.042969 L 128.03125 136.804688 C 130.210938 136.367188 136.007812 133.980469 140.320312 132.207031 C 150.019531 128.214844 161.011719 123.691406 168.769531 123.691406 C 174.214844 123.691406 177.21875 125.910156 178.777344 127.773438 C 180.84375 130.242188 181.664062 133.441406 181.230469 137.292969 C 181.503906 140.808594 179.246094 142.835938 173.394531 147.6875 L 222.027344 169.488281 C 235.429688 175.558594 243.378906 185.777344 245.035156 199.046875 C 246.367188 209.6875 243.695312 222.453125 237.097656 236.984375 C 227.90625 257.234375 200.902344 266.300781 178.214844 266.300781 Z M 154.601562 248.945312 C 160.992188 251.785156 169.363281 253.347656 178.210938 253.347656 C 196.140625 253.347656 218.519531 246.554688 225.289062 231.636719 C 230.886719 219.308594 233.199219 208.886719 232.171875 200.648438 C 231.070312 191.839844 226.007812 185.507812 216.695312 181.289062 L 159.253906 155.539062 C 157.207031 154.621094 155.707031 152.613281 155.40625 150.394531 C 154.847656 146.222656 157.234375 144.246094 164.324219 138.375 C 164.855469 137.9375 165.464844 137.429688 166.078125 136.917969 C 160.449219 137.925781 151.824219 141.476562 145.257812 144.175781 C 133.824219 148.878906 128.550781 150.84375 124.386719 149.257812 L 81.417969 133.660156 L 68.148438 205.425781 C 79.371094 206.242188 97.199219 208.351562 104.261719 213.664062 C 105.921875 214.910156 106.726562 216.640625 107.3125 217.902344 C 107.316406 217.910156 107.320312 217.917969 107.324219 217.925781 C 107.332031 217.9375 107.339844 217.949219 107.347656 217.960938 C 111.660156 224.125 117.574219 229.03125 124.453125 232.148438 C 124.617188 232.222656 124.78125 232.304688 124.9375 232.390625 Z M 154.601562 248.945312 " fill-opacity="1" fill-rule="nonzero"/><path fill="#66acc5" d="M 200.800781 166.910156 L 250.808594 180.597656 C 257.714844 182.488281 261.78125 189.613281 259.886719 196.511719 C 257.996094 203.410156 250.863281 207.464844 243.957031 205.578125 L 193.949219 191.886719 " fill-opacity="1" fill-rule="nonzero"/><path fill="#ffffff" d="M 247.378906 212.515625 C 245.683594 212.515625 243.960938 212.292969 242.246094 211.820312 L 192.238281 198.132812 C 188.785156 197.1875 186.753906 193.625 187.699219 190.175781 C 188.644531 186.726562 192.210938 184.695312 195.664062 185.644531 L 245.671875 199.332031 C 249.117188 200.277344 252.695312 198.242188 253.636719 194.800781 C 254.09375 193.132812 253.875 191.386719 253.019531 189.882812 C 252.160156 188.382812 250.769531 187.300781 249.097656 186.84375 L 199.089844 173.152344 C 195.636719 172.207031 193.605469 168.648438 194.550781 165.199219 C 195.5 161.75 199.0625 159.722656 202.515625 160.664062 L 252.527344 174.355469 C 257.535156 175.726562 261.710938 178.964844 264.28125 183.472656 C 266.851562 187.980469 267.511719 193.21875 266.140625 198.222656 C 263.773438 206.839844 255.921875 212.511719 247.378906 212.515625 Z M 247.378906 212.515625 " fill-opacity="1" fill-rule="nonzero"/><path fill="#66acc5" d="M 200.15625 161.714844 L 158.453125 175.179688 C 152.027344 178.335938 144.257812 175.683594 141.101562 169.265625 C 137.945312 162.84375 140.597656 155.085938 147.023438 151.933594 L 193.566406 129.101562 " fill-opacity="1" fill-rule="nonzero"/><path fill="#ffffff" d="M 152.757812 182.992188 C 150.640625 182.992188 148.519531 182.644531 146.457031 181.941406 C 141.542969 180.265625 137.574219 176.777344 135.285156 172.121094 C 130.558594 162.507812 134.546875 150.84375 144.167969 146.121094 L 190.710938 123.289062 C 193.925781 121.714844 197.808594 123.039062 199.386719 126.246094 C 200.964844 129.457031 199.636719 133.335938 196.425781 134.914062 L 149.882812 157.746094 C 146.675781 159.320312 145.347656 163.207031 146.921875 166.414062 C 147.683594 167.964844 149.007812 169.125 150.648438 169.683594 C 152.285156 170.246094 154.042969 170.132812 155.597656 169.367188 C 155.875 169.230469 156.164062 169.113281 156.460938 169.019531 L 198.164062 155.554688 C 201.570312 154.457031 205.226562 156.320312 206.324219 159.722656 C 207.425781 163.125 205.558594 166.777344 202.152344 167.875 L 160.847656 181.210938 C 158.273438 182.394531 155.519531 182.992188 152.757812 182.992188 Z M 152.757812 182.992188 " fill-opacity="1" fill-rule="nonzero"/><path fill="#66acc5" d="M 185.140625 189.539062 L 235.148438 203.230469 C 242.054688 205.121094 246.117188 212.246094 244.226562 219.140625 C 242.332031 226.039062 235.203125 230.097656 228.296875 228.210938 L 178.289062 214.519531 " fill-opacity="1" fill-rule="nonzero"/><path fill="#ffffff" d="M 231.714844 235.148438 C 230.019531 235.148438 228.296875 234.921875 226.585938 234.453125 L 176.574219 220.761719 C 173.121094 219.816406 171.089844 216.257812 172.039062 212.808594 C 172.984375 209.359375 176.550781 207.328125 180.003906 208.273438 L 230.011719 221.964844 C 233.457031 222.90625 237.03125 220.875 237.976562 217.429688 C 238.433594 215.761719 238.214844 214.019531 237.355469 212.515625 C 236.496094 211.011719 235.105469 209.933594 233.4375 209.476562 L 183.425781 195.785156 C 179.976562 194.839844 177.945312 191.28125 178.890625 187.828125 C 179.835938 184.382812 183.402344 182.351562 186.855469 183.296875 L 236.863281 196.988281 C 241.871094 198.359375 246.046875 201.597656 248.617188 206.105469 C 251.191406 210.613281 251.851562 215.851562 250.476562 220.855469 C 248.113281 229.472656 240.257812 235.148438 231.714844 235.148438 Z M 231.714844 235.148438 " fill-opacity="1" fill-rule="nonzero"/><path fill="#66acc5" d="M 171.617188 212.765625 L 219.554688 225.886719 C 226.171875 227.699219 230.066406 234.527344 228.253906 241.136719 C 226.4375 247.75 219.605469 251.640625 212.984375 249.828125 L 182.183594 241.394531 " fill-opacity="1" fill-rule="nonzero"/><path fill="#ffffff" d="M 216.261719 256.746094 C 214.613281 256.746094 212.9375 256.53125 211.273438 256.074219 L 180.46875 247.640625 C 177.019531 246.695312 174.988281 243.136719 175.933594 239.683594 C 176.878906 236.238281 180.441406 234.210938 183.898438 235.152344 L 214.699219 243.585938 C 217.859375 244.453125 221.132812 242.585938 222.003906 239.425781 C 222.867188 236.269531 221 233 217.839844 232.132812 L 169.90625 219.011719 C 166.453125 218.066406 164.421875 214.503906 165.367188 211.054688 C 166.3125 207.605469 169.882812 205.574219 173.332031 206.519531 L 221.265625 219.644531 C 231.320312 222.394531 237.261719 232.804688 234.507812 242.847656 C 232.203125 251.230469 224.566406 256.746094 216.261719 256.746094 Z M 216.261719 256.746094 " fill-opacity="1" fill-rule="nonzero"/><path fill="#66acc5" d="M 176.816406 239.464844 L 198.589844 245.425781 C 204.285156 246.988281 207.636719 252.863281 206.078125 258.550781 C 204.515625 264.242188 198.632812 267.589844 192.9375 266.03125 L 151.6875 254.738281 " fill-opacity="1" fill-rule="nonzero"/><path fill="#ffffff" d="M 195.757812 272.886719 C 194.257812 272.886719 192.738281 272.6875 191.222656 272.273438 L 149.976562 260.980469 C 146.523438 260.035156 144.492188 256.476562 145.4375 253.027344 C 146.382812 249.578125 149.949219 247.550781 153.402344 248.492188 L 194.652344 259.785156 C 196.886719 260.398438 199.210938 259.078125 199.824219 256.835938 C 200.4375 254.601562 199.117188 252.28125 196.875 251.671875 L 175.101562 245.710938 C 171.648438 244.765625 169.617188 241.203125 170.566406 237.753906 C 171.511719 234.304688 175.078125 232.277344 178.53125 233.21875 L 200.304688 239.179688 C 209.433594 241.679688 214.832031 251.136719 212.328125 260.261719 C 210.238281 267.875 203.300781 272.886719 195.757812 272.886719 Z M 195.757812 272.886719 " fill-opacity="1" fill-rule="nonzero"/><path fill="#66acc5" d="M 47.8125 108.472656 L 96.859375 121.40625 L 71.953125 215.644531 L 22.902344 202.710938 Z M 47.8125 108.472656 " fill-opacity="1" fill-rule="nonzero"/><g clip-path="url(#096d44b1f7)"><path fill="#ffffff" d="M 71.964844 222.117188 C 71.414062 222.117188 70.855469 222.046875 70.3125 221.902344 L 21.265625 208.964844 C 19.601562 208.527344 18.183594 207.449219 17.316406 205.964844 C 16.453125 204.480469 16.214844 202.714844 16.652344 201.054688 L 41.554688 106.8125 C 41.996094 105.152344 43.074219 103.734375 44.5625 102.871094 C 46.046875 102.007812 47.8125 101.769531 49.476562 102.207031 L 98.523438 115.140625 C 101.988281 116.054688 104.050781 119.597656 103.136719 123.054688 L 78.230469 217.296875 C 77.792969 218.957031 76.714844 220.375 75.226562 221.238281 C 74.230469 221.820312 73.101562 222.117188 71.964844 222.117188 Z M 30.839844 198.101562 L 67.355469 207.730469 L 88.949219 126.011719 L 52.433594 116.382812 Z M 30.839844 198.101562 " fill-opacity="1" fill-rule="nonzero"/></g><path fill="#66acc5" d="M 352.285156 202.714844 L 303.238281 215.652344 L 278.328125 121.414062 L 327.378906 108.476562 Z M 352.285156 202.714844 " fill-opacity="1" fill-rule="nonzero"/><g clip-path="url(#2cee14ae1b)"><path fill="#ffffff" d="M 303.261719 222.117188 C 302.128906 222.117188 301 221.820312 300 221.238281 C 298.515625 220.375 297.433594 218.957031 296.996094 217.296875 L 272.089844 123.054688 C 271.175781 119.597656 273.242188 116.054688 276.703125 115.140625 L 325.75 102.207031 C 327.414062 101.769531 329.179688 102.007812 330.667969 102.871094 C 332.152344 103.734375 333.234375 105.152344 333.671875 106.8125 L 358.578125 201.054688 C 359.015625 202.714844 358.777344 204.480469 357.910156 205.964844 C 357.046875 207.449219 355.625 208.527344 353.964844 208.964844 L 304.917969 221.902344 C 304.371094 222.046875 303.816406 222.117188 303.261719 222.117188 Z M 286.28125 126.011719 L 307.875 207.730469 L 344.386719 198.101562 L 322.792969 116.382812 Z M 286.28125 126.011719 " fill-opacity="1" fill-rule="nonzero"/></g><path fill="#66acc5" d="M 100.28125 64.328125 L 123.113281 91.800781 " fill-opacity="1" fill-rule="nonzero"/><path fill="#ffffff" d="M 123.117188 98.277344 C 121.253906 98.277344 119.40625 97.480469 118.125 95.9375 L 95.296875 68.464844 C 93.007812 65.714844 93.390625 61.632812 96.140625 59.347656 C 98.898438 57.0625 102.984375 57.441406 105.269531 60.191406 L 128.101562 87.664062 C 130.386719 90.417969 130.007812 94.496094 127.253906 96.78125 C 126.042969 97.785156 124.574219 98.277344 123.117188 98.277344 Z M 123.117188 98.277344 " fill-opacity="1" fill-rule="nonzero"/><path fill="#66acc5" d="M 86.351562 47.566406 L 90.476562 52.53125 " fill-opacity="1" fill-rule="nonzero"/><path fill="#ffffff" d="M 90.480469 59.003906 C 88.617188 59.003906 86.769531 58.207031 85.488281 56.664062 L 81.363281 51.699219 C 79.078125 48.949219 79.457031 44.867188 82.210938 42.582031 C 84.964844 40.296875 89.050781 40.679688 91.339844 43.429688 L 95.464844 48.394531 C 97.75 51.144531 97.371094 55.226562 94.617188 57.511719 C 93.40625 58.515625 91.9375 59.003906 90.480469 59.003906 Z M 90.480469 59.003906 " fill-opacity="1" fill-rule="nonzero"/><path fill="#66acc5" d="M 274.945312 64.328125 L 252.117188 91.800781 " fill-opacity="1" fill-rule="nonzero"/><path fill="#ffffff" d="M 252.113281 98.277344 C 250.652344 98.277344 249.1875 97.785156 247.976562 96.78125 C 245.21875 94.496094 244.84375 90.417969 247.128906 87.664062 L 269.957031 60.191406 C 272.242188 57.441406 276.328125 57.0625 279.085938 59.347656 C 281.839844 61.632812 282.21875 65.714844 279.933594 68.464844 L 257.101562 95.9375 C 255.820312 97.480469 253.972656 98.277344 252.113281 98.277344 Z M 252.113281 98.277344 " fill-opacity="1" fill-rule="nonzero"/><path fill="#66acc5" d="M 288.878906 47.566406 L 284.753906 52.53125 " fill-opacity="1" fill-rule="nonzero"/><path fill="#ffffff" d="M 284.75 59.003906 C 283.292969 59.003906 281.824219 58.515625 280.613281 57.511719 C 277.859375 55.226562 277.480469 51.144531 279.765625 48.394531 L 283.890625 43.429688 C 286.179688 40.679688 290.265625 40.296875 293.019531 42.582031 C 295.773438 44.867188 296.152344 48.949219 293.867188 51.699219 L 289.742188 56.664062 C 288.460938 58.207031 286.609375 59.003906 284.75 59.003906 Z M 284.75 59.003906 " fill-opacity="1" fill-rule="nonzero"/><path fill="#ffffff" d="M 187.617188 94.230469 C 184.035156 94.230469 181.132812 91.332031 181.132812 87.753906 L 181.132812 57.871094 C 181.132812 54.296875 184.035156 51.394531 187.617188 51.394531 C 191.195312 51.394531 194.097656 54.296875 194.097656 57.871094 L 194.097656 87.753906 C 194.097656 91.332031 191.195312 94.230469 187.617188 94.230469 Z M 187.617188 94.230469 " fill-opacity="1" fill-rule="nonzero"/><path fill="#66acc5" d="M 187.617188 36.824219 L 187.613281 42.226562 " fill-opacity="1" fill-rule="nonzero"/><path fill="#ffffff" d="M 187.613281 48.699219 C 184.03125 48.699219 181.132812 45.800781 181.132812 42.222656 L 181.132812 36.824219 C 181.132812 33.25 184.035156 30.351562 187.617188 30.351562 C 191.199219 30.351562 194.097656 33.25 194.097656 36.828125 L 194.097656 42.226562 C 194.09375 45.800781 191.191406 48.699219 187.613281 48.699219 Z M 187.613281 48.699219 " fill-opacity="1" fill-rule="nonzero"/><path fill="#66acc5" d="M 100.28125 310.550781 L 123.113281 283.078125 " fill-opacity="1" fill-rule="nonzero"/><path fill="#ffffff" d="M 100.277344 317.027344 C 98.820312 317.027344 97.351562 316.535156 96.140625 315.53125 C 93.386719 313.25 93.007812 309.167969 95.296875 306.414062 L 118.125 278.945312 C 120.410156 276.191406 124.5 275.8125 127.253906 278.097656 C 130.007812 280.382812 130.386719 284.464844 128.101562 287.214844 L 105.269531 314.6875 C 103.988281 316.230469 102.140625 317.027344 100.277344 317.027344 Z M 100.277344 317.027344 " fill-opacity="1" fill-rule="nonzero"/><path fill="#66acc5" d="M 86.351562 327.3125 L 90.476562 322.351562 " fill-opacity="1" fill-rule="nonzero"/><path fill="#ffffff" d="M 86.347656 333.789062 C 84.886719 333.789062 83.421875 333.300781 82.210938 332.296875 C 79.457031 330.011719 79.078125 325.929688 81.363281 323.179688 L 85.488281 318.214844 C 87.773438 315.460938 91.859375 315.082031 94.617188 317.367188 C 97.371094 319.652344 97.75 323.734375 95.464844 326.484375 L 91.339844 331.449219 C 90.054688 332.992188 88.207031 333.789062 86.347656 333.789062 Z M 86.347656 333.789062 " fill-opacity="1" fill-rule="nonzero"/><path fill="#66acc5" d="M 274.945312 310.550781 L 252.117188 283.078125 " fill-opacity="1" fill-rule="nonzero"/><path fill="#ffffff" d="M 274.949219 317.027344 C 273.085938 317.027344 271.242188 316.230469 269.957031 314.6875 L 247.128906 287.214844 C 244.84375 284.464844 245.222656 280.382812 247.976562 278.097656 C 250.730469 275.8125 254.816406 276.191406 257.101562 278.945312 L 279.933594 306.414062 C 282.21875 309.167969 281.839844 313.25 279.085938 315.53125 C 277.875 316.535156 276.40625 317.027344 274.949219 317.027344 Z M 274.949219 317.027344 " fill-opacity="1" fill-rule="nonzero"/><path fill="#66acc5" d="M 288.878906 327.3125 L 284.753906 322.351562 " fill-opacity="1" fill-rule="nonzero"/><path fill="#ffffff" d="M 288.882812 333.789062 C 287.019531 333.789062 285.171875 332.992188 283.890625 331.449219 L 279.765625 326.484375 C 277.480469 323.734375 277.859375 319.652344 280.613281 317.367188 C 283.367188 315.082031 287.457031 315.460938 289.742188 318.214844 L 293.867188 323.179688 C 296.152344 325.929688 295.773438 330.011719 293.019531 332.296875 C 291.808594 333.300781 290.339844 333.789062 288.882812 333.789062 Z M 288.882812 333.789062 " fill-opacity="1" fill-rule="nonzero"/><path fill="#ffffff" d="M 187.617188 323.484375 C 184.035156 323.484375 181.132812 320.585938 181.132812 317.007812 L 181.132812 287.125 C 181.132812 283.550781 184.035156 280.648438 187.617188 280.648438 C 191.195312 280.648438 194.097656 283.550781 194.097656 287.125 L 194.097656 317.007812 C 194.097656 320.585938 191.195312 323.484375 187.617188 323.484375 Z M 187.617188 323.484375 " fill-opacity="1" fill-rule="nonzero"/><path fill="#66acc5" d="M 187.617188 338.054688 L 187.613281 332.65625 " fill-opacity="1" fill-rule="nonzero"/><g clip-path="url(#1b01c28360)"><path fill="#ffffff" d="M 187.617188 344.53125 C 184.035156 344.53125 181.132812 341.632812 181.132812 338.054688 L 181.132812 332.65625 C 181.132812 329.082031 184.03125 326.179688 187.613281 326.179688 C 191.195312 326.179688 194.097656 329.078125 194.097656 332.652344 L 194.097656 338.054688 C 194.097656 341.628906 191.195312 344.53125 187.617188 344.53125 Z M 187.617188 344.53125 " fill-opacity="1" fill-rule="nonzero"/></g></svg>