<svg xmlns="http://www.w3.org/2000/svg" xmlns:xlink="http://www.w3.org/1999/xlink" width="500" zoomAndPan="magnify" viewBox="0 0 375 374.999991" height="500" preserveAspectRatio="xMidYMid meet" version="1.0"><defs><clipPath id="f283a17f8f"><path d="M 38.289062 113 L 115 113 L 115 218 L 38.289062 218 Z M 38.289062 113 " clip-rule="nonzero"/></clipPath><clipPath id="25f79637a5"><path d="M 260 113 L 336.789062 113 L 336.789062 218 L 260 218 Z M 260 113 " clip-rule="nonzero"/></clipPath><clipPath id="7a9d2e4f0f"><path d="M 181 50.226562 L 194 50.226562 L 194 67 L 181 67 Z M 181 50.226562 " clip-rule="nonzero"/></clipPath><clipPath id="f5a9a66908"><path d="M 181 308 L 194 308 L 194 324.726562 L 181 324.726562 Z M 181 308 " clip-rule="nonzero"/></clipPath></defs><path fill="#ffffff" d="M 174.859375 145.40625 C 174.859375 145.40625 209.046875 127.65625 214.890625 128.980469 C 237.230469 134.046875 298.300781 153.941406 298.300781 153.941406 C 299.757812 154.03125 297.878906 171.757812 298.300781 171.863281 L 303.582031 195.695312 C 303.582031 195.695312 261.328125 225.535156 261.0625 225.550781 C 255.835938 230.703125 249.203125 234.570312 241.558594 236.464844 L 199.703125 246.839844 C 177.015625 252.460938 154.070312 238.636719 148.445312 215.960938 C 142.820312 193.289062 153.773438 160.773438 174.859375 145.40625 Z M 174.859375 145.40625 " fill-opacity="1" fill-rule="nonzero"/><path fill="#282120" d="M 189.484375 253.734375 C 167.410156 253.734375 148.28125 238.761719 142.964844 217.320312 C 136.519531 191.332031 149.335938 157.027344 171.535156 140.847656 C 171.765625 140.679688 172.007812 140.53125 172.261719 140.398438 C 180 136.378906 205.894531 123.265625 214.152344 123.265625 C 214.867188 123.265625 215.515625 123.335938 216.140625 123.476562 C 237.699219 128.367188 293.488281 146.441406 299.585938 148.425781 C 304.636719 149.398438 304.546875 155.472656 304.503906 158.476562 C 304.464844 161.148438 304.261719 164.453125 304.097656 167.109375 C 304.011719 168.496094 303.910156 170.171875 303.886719 170.976562 L 309.09375 194.476562 C 309.585938 196.695312 308.695312 198.992188 306.839844 200.304688 C 306.839844 200.304688 296.273438 207.765625 285.671875 215.230469 C 280.371094 218.964844 275.058594 222.699219 271.058594 225.503906 C 267.878906 227.726562 265.96875 229.066406 264.710938 229.875 C 258.652344 235.738281 251.125 239.90625 242.917969 241.941406 L 201.058594 252.316406 C 197.261719 253.257812 193.367188 253.734375 189.484375 253.734375 Z M 177.851562 150.210938 C 159.554688 163.804688 148.609375 193.179688 153.921875 214.605469 C 157.988281 231 172.613281 242.449219 189.484375 242.449219 C 192.453125 242.449219 195.433594 242.085938 198.34375 241.363281 L 240.199219 230.988281 C 246.585938 229.40625 252.429688 226.136719 257.097656 221.535156 C 257.433594 221.203125 257.808594 220.917969 258.210938 220.683594 C 260.34375 219.277344 281.582031 204.320312 297.257812 193.253906 L 292.789062 173.082031 L 292.851562 173.066406 C 292.527344 171.296875 292.664062 169.058594 292.828125 166.417969 C 292.953125 164.355469 293.175781 160.753906 293.21875 158.226562 C 280.261719 154.046875 233.0625 138.941406 213.980469 134.5625 C 209.859375 134.855469 192.214844 142.777344 177.851562 150.210938 Z M 260.597656 219.929688 C 259.574219 220.011719 258.796875 220.355469 258.367188 220.59375 C 259.050781 220.222656 259.808594 219.996094 260.597656 219.929688 Z M 299.644531 166.382812 C 300.996094 166.710938 302.148438 167.519531 302.917969 168.617188 C 302.242188 167.640625 301.179688 166.757812 299.644531 166.382812 Z M 297.105469 159.457031 C 297.371094 159.515625 297.648438 159.554688 297.941406 159.574219 C 297.660156 159.554688 297.378906 159.515625 297.105469 159.457031 Z M 297.105469 159.457031 " fill-opacity="1" fill-rule="nonzero"/><path fill="#ffffff" d="M 215.195312 176.980469 L 165.152344 154.527344 C 164.023438 154.015625 177.402344 144.332031 176.253906 143.925781 C 179.417969 126.339844 139.609375 151.007812 134.460938 148.921875 L 93.5 134.042969 C 92.046875 133.867188 91.003906 133.769531 90.570312 133.792969 L 76.78125 208.417969 C 76.78125 208.417969 104.492188 209.523438 111.550781 214.839844 C 112.125 215.269531 112.75 217.238281 113.007812 217.304688 C 117.214844 223.324219 123.03125 228.328125 130.203125 231.578125 L 156.253906 246.125 C 177.539062 255.773438 215.84375 249.597656 225.492188 228.320312 C 235.148438 207.046875 236.480469 186.625 215.195312 176.980469 Z M 215.195312 176.980469 " fill-opacity="1" fill-rule="nonzero"/><path fill="#282120" d="M 179.351562 256.199219 C 169.839844 256.199219 161.046875 254.492188 153.921875 251.265625 C 153.777344 251.199219 153.636719 251.128906 153.5 251.050781 L 127.652344 236.617188 C 120.023438 233.113281 113.445312 227.667969 108.597656 220.84375 C 108.019531 220.140625 107.660156 219.40625 107.421875 218.890625 C 102.839844 216.472656 88.304688 214.527344 76.558594 214.058594 C 74.921875 213.992188 73.394531 213.222656 72.371094 211.941406 C 71.351562 210.664062 70.933594 209.003906 71.230469 207.394531 L 85.019531 132.769531 C 85.492188 130.214844 87.652344 128.3125 90.25 128.164062 C 90.960938 128.121094 92.089844 128.1875 94.1875 128.445312 C 94.609375 128.496094 95.027344 128.597656 95.429688 128.742188 L 135.648438 143.351562 C 137.550781 142.96875 142.597656 140.890625 146.351562 139.34375 C 154.800781 135.863281 164.371094 131.921875 171.128906 131.921875 C 175.871094 131.921875 178.484375 133.855469 179.84375 135.480469 C 181.644531 137.632812 182.359375 140.417969 181.980469 143.777344 C 182.21875 146.839844 180.25 148.605469 175.15625 152.835938 L 217.507812 171.832031 C 229.179688 177.125 236.105469 186.027344 237.550781 197.59375 C 238.707031 206.867188 236.382812 217.988281 230.636719 230.65625 C 222.632812 248.300781 199.113281 256.199219 179.351562 256.199219 Z M 158.792969 241.078125 C 164.355469 243.554688 171.644531 244.914062 179.351562 244.914062 C 194.964844 244.914062 214.457031 238.992188 220.351562 225.992188 C 225.226562 215.25 227.242188 206.167969 226.34375 198.988281 C 225.386719 191.3125 220.976562 185.792969 212.867188 182.117188 L 162.84375 159.675781 C 161.058594 158.875 159.753906 157.125 159.492188 155.191406 C 159.003906 151.558594 161.085938 149.835938 167.257812 144.71875 C 167.71875 144.335938 168.25 143.894531 168.785156 143.449219 C 163.882812 144.328125 156.371094 147.421875 150.652344 149.773438 C 140.695312 153.875 136.101562 155.585938 132.476562 154.203125 L 95.054688 140.609375 L 83.496094 203.148438 C 93.269531 203.863281 108.800781 205.699219 114.949219 210.332031 C 116.394531 211.417969 117.09375 212.925781 117.605469 214.023438 C 117.609375 214.03125 117.613281 214.035156 117.617188 214.042969 C 117.621094 214.054688 117.628906 214.0625 117.636719 214.074219 C 121.390625 219.449219 126.542969 223.722656 132.535156 226.4375 C 132.675781 226.503906 132.816406 226.574219 132.957031 226.652344 Z M 158.792969 241.078125 " fill-opacity="1" fill-rule="nonzero"/><path fill="#ffffff" d="M 199.027344 169.585938 L 242.578125 181.515625 C 248.59375 183.160156 252.132812 189.371094 250.484375 195.382812 C 248.835938 201.394531 242.625 204.929688 236.609375 203.285156 L 193.058594 191.351562 " fill-opacity="1" fill-rule="nonzero"/><path fill="#282120" d="M 239.589844 209.328125 C 238.113281 209.328125 236.609375 209.132812 235.121094 208.726562 L 191.566406 196.792969 C 188.558594 195.96875 186.789062 192.867188 187.613281 189.859375 C 188.4375 186.855469 191.542969 185.085938 194.550781 185.910156 L 238.105469 197.839844 C 241.101562 198.664062 244.21875 196.890625 245.039062 193.890625 C 245.4375 192.4375 245.246094 190.914062 244.5 189.605469 C 243.753906 188.296875 242.542969 187.355469 241.085938 186.957031 L 197.535156 175.027344 C 194.527344 174.203125 192.757812 171.101562 193.582031 168.09375 C 194.40625 165.089844 197.511719 163.320312 200.519531 164.144531 L 244.070312 176.074219 C 248.433594 177.269531 252.070312 180.089844 254.308594 184.019531 C 256.550781 187.949219 257.125 192.515625 255.929688 196.875 C 253.867188 204.382812 247.027344 209.328125 239.589844 209.328125 Z M 239.589844 209.328125 " fill-opacity="1" fill-rule="nonzero"/><path fill="#ffffff" d="M 198.464844 165.058594 L 162.144531 176.792969 C 156.546875 179.542969 149.78125 177.234375 147.03125 171.636719 C 144.285156 166.042969 146.59375 159.28125 152.191406 156.535156 L 192.726562 136.636719 " fill-opacity="1" fill-rule="nonzero"/><path fill="#282120" d="M 157.183594 183.601562 C 155.339844 183.601562 153.492188 183.296875 151.699219 182.6875 C 147.417969 181.226562 143.960938 178.183594 141.96875 174.125 C 137.851562 165.75 141.324219 155.585938 149.703125 151.46875 L 190.238281 131.574219 C 193.035156 130.199219 196.417969 131.355469 197.792969 134.148438 C 199.167969 136.949219 198.011719 140.328125 195.214844 141.703125 L 154.679688 161.597656 C 151.886719 162.96875 150.730469 166.359375 152.101562 169.152344 C 152.765625 170.503906 153.917969 171.519531 155.34375 172.003906 C 156.773438 172.492188 158.304688 172.394531 159.65625 171.730469 C 159.898438 171.609375 160.152344 171.507812 160.410156 171.425781 L 196.730469 159.691406 C 199.695312 158.734375 202.878906 160.359375 203.835938 163.324219 C 204.792969 166.289062 203.167969 169.46875 200.199219 170.425781 L 164.230469 182.050781 C 161.984375 183.082031 159.589844 183.601562 157.183594 183.601562 Z M 157.183594 183.601562 " fill-opacity="1" fill-rule="nonzero"/><path fill="#ffffff" d="M 185.386719 189.308594 L 228.9375 201.238281 C 234.953125 202.886719 238.492188 209.09375 236.84375 215.105469 C 235.195312 221.117188 228.984375 224.652344 222.96875 223.007812 L 179.417969 211.074219 " fill-opacity="1" fill-rule="nonzero"/><path fill="#282120" d="M 225.949219 229.050781 C 224.472656 229.050781 222.972656 228.859375 221.480469 228.449219 L 177.925781 216.515625 C 174.917969 215.695312 173.152344 212.589844 173.976562 209.582031 C 174.800781 206.578125 177.90625 204.808594 180.910156 205.632812 L 224.464844 217.566406 C 227.464844 218.386719 230.578125 216.613281 231.398438 213.613281 C 231.796875 212.160156 231.609375 210.640625 230.859375 209.328125 C 230.113281 208.019531 228.902344 207.078125 227.449219 206.679688 L 183.894531 194.75 C 180.886719 193.925781 179.117188 190.824219 179.941406 187.816406 C 180.765625 184.8125 183.875 183.042969 186.878906 183.867188 L 230.429688 195.796875 C 234.792969 196.992188 238.429688 199.8125 240.667969 203.742188 C 242.910156 207.671875 243.484375 212.238281 242.289062 216.597656 C 240.226562 224.105469 233.386719 229.050781 225.949219 229.050781 Z M 225.949219 229.050781 " fill-opacity="1" fill-rule="nonzero"/><path fill="#ffffff" d="M 173.609375 209.546875 L 215.355469 220.984375 C 221.121094 222.5625 224.511719 228.511719 222.933594 234.273438 C 221.351562 240.035156 215.398438 243.425781 209.636719 241.847656 L 182.8125 234.496094 " fill-opacity="1" fill-rule="nonzero"/><path fill="#282120" d="M 212.488281 247.875 C 211.050781 247.875 209.59375 247.6875 208.144531 247.289062 L 181.320312 239.941406 C 178.3125 239.117188 176.542969 236.011719 177.367188 233.007812 C 178.191406 230.003906 181.292969 228.234375 184.304688 229.058594 L 211.128906 236.40625 C 213.878906 237.164062 216.734375 235.535156 217.488281 232.78125 C 218.242188 230.03125 216.617188 227.179688 213.863281 226.425781 L 172.117188 214.992188 C 169.109375 214.167969 167.34375 211.0625 168.167969 208.058594 C 168.992188 205.050781 172.097656 203.28125 175.101562 204.105469 L 216.847656 215.542969 C 225.605469 217.9375 230.777344 227.011719 228.378906 235.765625 C 226.371094 243.066406 219.722656 247.875 212.488281 247.875 Z M 212.488281 247.875 " fill-opacity="1" fill-rule="nonzero"/><path fill="#ffffff" d="M 178.136719 232.816406 L 197.097656 238.011719 C 202.058594 239.371094 204.980469 244.492188 203.621094 249.449219 C 202.257812 254.40625 197.136719 257.324219 192.175781 255.964844 L 156.253906 246.125 " fill-opacity="1" fill-rule="nonzero"/><path fill="#282120" d="M 194.632812 261.941406 C 193.328125 261.941406 192.003906 261.769531 190.683594 261.40625 L 154.761719 251.566406 C 151.753906 250.742188 149.984375 247.640625 150.808594 244.632812 C 151.632812 241.625 154.738281 239.859375 157.746094 240.683594 L 193.667969 250.523438 C 195.617188 251.058594 197.640625 249.90625 198.175781 247.953125 C 198.710938 246.007812 197.558594 243.984375 195.605469 243.453125 L 176.644531 238.257812 C 173.636719 237.433594 171.867188 234.328125 172.691406 231.324219 C 173.515625 228.316406 176.625 226.550781 179.628906 227.371094 L 198.59375 232.566406 C 206.542969 234.746094 211.242188 242.988281 209.0625 250.9375 C 207.242188 257.574219 201.203125 261.941406 194.632812 261.941406 Z M 194.632812 261.941406 " fill-opacity="1" fill-rule="nonzero"/><path fill="#ffffff" d="M 65.789062 118.65625 L 108.503906 129.933594 L 86.808594 212.058594 L 44.09375 200.785156 Z M 65.789062 118.65625 " fill-opacity="1" fill-rule="nonzero"/><g clip-path="url(#f283a17f8f)"><path fill="#282120" d="M 86.824219 217.695312 C 86.339844 217.695312 85.855469 217.632812 85.382812 217.507812 L 42.667969 206.238281 C 41.21875 205.855469 39.984375 204.914062 39.230469 203.621094 C 38.476562 202.328125 38.269531 200.789062 38.648438 199.339844 L 60.339844 117.214844 C 60.722656 115.769531 61.664062 114.53125 62.957031 113.78125 C 64.25 113.027344 65.789062 112.816406 67.238281 113.199219 L 109.953125 124.472656 C 112.96875 125.269531 114.765625 128.355469 113.96875 131.367188 L 92.28125 213.496094 C 91.898438 214.941406 90.957031 216.175781 89.664062 216.929688 C 88.792969 217.4375 87.8125 217.695312 86.824219 217.695312 Z M 51.007812 196.765625 L 82.804688 205.160156 L 101.613281 133.945312 L 69.8125 125.550781 Z M 51.007812 196.765625 " fill-opacity="1" fill-rule="nonzero"/></g><path fill="#ffffff" d="M 330.953125 200.789062 L 288.238281 212.0625 L 266.542969 129.9375 L 309.261719 118.664062 Z M 330.953125 200.789062 " fill-opacity="1" fill-rule="nonzero"/><g clip-path="url(#25f79637a5)"><path fill="#282120" d="M 288.257812 217.695312 C 287.269531 217.695312 286.289062 217.4375 285.417969 216.929688 C 284.125 216.175781 283.183594 214.941406 282.800781 213.496094 L 261.109375 131.367188 C 260.316406 128.355469 262.113281 125.269531 265.128906 124.472656 L 307.84375 113.199219 C 309.292969 112.816406 310.832031 113.027344 312.125 113.78125 C 313.417969 114.53125 314.359375 115.769531 314.742188 117.214844 L 336.429688 199.339844 C 336.8125 200.789062 336.605469 202.328125 335.851562 203.621094 C 335.097656 204.914062 333.863281 205.855469 332.414062 206.238281 L 289.699219 217.507812 C 289.226562 217.636719 288.742188 217.695312 288.257812 217.695312 Z M 273.46875 133.945312 L 292.273438 205.160156 L 324.074219 196.765625 L 305.265625 125.550781 Z M 273.46875 133.945312 " fill-opacity="1" fill-rule="nonzero"/></g><path fill="#ffffff" d="M 111.484375 80.191406 L 131.367188 104.128906 " fill-opacity="1" fill-rule="nonzero"/><path fill="#282120" d="M 131.371094 109.773438 C 129.75 109.773438 128.140625 109.078125 127.023438 107.734375 L 107.140625 83.792969 C 105.148438 81.398438 105.480469 77.839844 107.878906 75.847656 C 110.277344 73.859375 113.835938 74.1875 115.828125 76.585938 L 135.710938 100.527344 C 137.699219 102.925781 137.371094 106.480469 134.972656 108.472656 C 133.917969 109.347656 132.640625 109.773438 131.371094 109.773438 Z M 131.371094 109.773438 " fill-opacity="1" fill-rule="nonzero"/><path fill="#ffffff" d="M 99.351562 65.582031 L 102.941406 69.90625 " fill-opacity="1" fill-rule="nonzero"/><path fill="#282120" d="M 102.945312 75.550781 C 101.324219 75.550781 99.714844 74.855469 98.597656 73.511719 L 95.007812 69.183594 C 93.015625 66.785156 93.347656 63.230469 95.746094 61.238281 C 98.144531 59.25 101.703125 59.578125 103.695312 61.976562 L 107.285156 66.304688 C 109.277344 68.699219 108.945312 72.257812 106.546875 74.25 C 105.492188 75.125 104.214844 75.550781 102.945312 75.550781 Z M 102.945312 75.550781 " fill-opacity="1" fill-rule="nonzero"/><path fill="#ffffff" d="M 263.597656 80.191406 L 243.714844 104.128906 " fill-opacity="1" fill-rule="nonzero"/><path fill="#282120" d="M 243.710938 109.773438 C 242.441406 109.773438 241.164062 109.347656 240.109375 108.472656 C 237.710938 106.480469 237.378906 102.925781 239.371094 100.527344 L 259.253906 76.585938 C 261.246094 74.1875 264.800781 73.859375 267.203125 75.847656 C 269.601562 77.839844 269.929688 81.398438 267.941406 83.792969 L 248.058594 107.734375 C 246.941406 109.078125 245.332031 109.773438 243.710938 109.773438 Z M 243.710938 109.773438 " fill-opacity="1" fill-rule="nonzero"/><path fill="#ffffff" d="M 275.730469 65.582031 L 272.140625 69.90625 " fill-opacity="1" fill-rule="nonzero"/><path fill="#282120" d="M 272.136719 75.550781 C 270.867188 75.550781 269.585938 75.125 268.535156 74.25 C 266.136719 72.257812 265.804688 68.699219 267.796875 66.304688 L 271.386719 61.976562 C 273.378906 59.578125 276.9375 59.25 279.335938 61.238281 C 281.734375 63.230469 282.066406 66.785156 280.074219 69.183594 L 276.484375 73.511719 C 275.367188 74.855469 273.757812 75.550781 272.136719 75.550781 Z M 272.136719 75.550781 " fill-opacity="1" fill-rule="nonzero"/><path fill="#282120" d="M 187.542969 106.246094 C 184.425781 106.246094 181.898438 103.722656 181.898438 100.605469 L 181.898438 74.5625 C 181.898438 71.445312 184.425781 68.917969 187.542969 68.917969 C 190.660156 68.917969 193.1875 71.445312 193.1875 74.5625 L 193.1875 100.605469 C 193.1875 103.722656 190.660156 106.246094 187.542969 106.246094 Z M 187.542969 106.246094 " fill-opacity="1" fill-rule="nonzero"/><path fill="#ffffff" d="M 187.542969 56.222656 L 187.539062 60.925781 " fill-opacity="1" fill-rule="nonzero"/><g clip-path="url(#7a9d2e4f0f)"><path fill="#282120" d="M 187.539062 66.570312 C 184.421875 66.570312 181.894531 64.042969 181.894531 60.925781 L 181.898438 56.21875 C 181.898438 53.105469 184.425781 50.578125 187.542969 50.578125 C 190.660156 50.578125 193.1875 53.105469 193.1875 56.222656 L 193.183594 60.929688 C 193.183594 64.042969 190.65625 66.570312 187.539062 66.570312 Z M 187.539062 66.570312 " fill-opacity="1" fill-rule="nonzero"/></g><path fill="#ffffff" d="M 111.484375 294.765625 L 131.367188 270.824219 " fill-opacity="1" fill-rule="nonzero"/><path fill="#282120" d="M 111.480469 300.40625 C 110.210938 300.40625 108.933594 299.980469 107.878906 299.105469 C 105.480469 297.113281 105.148438 293.558594 107.140625 291.160156 L 127.023438 267.21875 C 129.011719 264.820312 132.574219 264.492188 134.972656 266.484375 C 137.371094 268.472656 137.699219 272.03125 135.710938 274.429688 L 115.828125 298.367188 C 114.710938 299.710938 113.101562 300.40625 111.480469 300.40625 Z M 111.480469 300.40625 " fill-opacity="1" fill-rule="nonzero"/><path fill="#ffffff" d="M 99.351562 309.371094 L 102.941406 305.046875 " fill-opacity="1" fill-rule="nonzero"/><path fill="#282120" d="M 99.347656 315.015625 C 98.078125 315.015625 96.796875 314.589844 95.746094 313.714844 C 93.347656 311.722656 93.015625 308.167969 95.007812 305.769531 L 98.597656 301.441406 C 100.589844 299.042969 104.148438 298.714844 106.546875 300.703125 C 108.945312 302.695312 109.277344 306.253906 107.285156 308.652344 L 103.695312 312.976562 C 102.578125 314.320312 100.96875 315.015625 99.347656 315.015625 Z M 99.347656 315.015625 " fill-opacity="1" fill-rule="nonzero"/><path fill="#ffffff" d="M 263.597656 294.765625 L 243.714844 270.824219 " fill-opacity="1" fill-rule="nonzero"/><path fill="#282120" d="M 263.601562 300.40625 C 261.980469 300.40625 260.371094 299.710938 259.253906 298.367188 L 239.371094 274.429688 C 237.378906 272.03125 237.710938 268.472656 240.109375 266.484375 C 242.507812 264.492188 246.066406 264.824219 248.058594 267.21875 L 267.941406 291.160156 C 269.933594 293.558594 269.601562 297.113281 267.203125 299.105469 C 266.148438 299.980469 264.871094 300.40625 263.601562 300.40625 Z M 263.601562 300.40625 " fill-opacity="1" fill-rule="nonzero"/><path fill="#ffffff" d="M 275.730469 309.371094 L 272.140625 305.046875 " fill-opacity="1" fill-rule="nonzero"/><path fill="#282120" d="M 275.734375 315.015625 C 274.113281 315.015625 272.503906 314.320312 271.386719 312.976562 L 267.796875 308.652344 C 265.804688 306.253906 266.136719 302.695312 268.535156 300.703125 C 270.933594 298.714844 274.492188 299.042969 276.484375 301.441406 L 280.074219 305.769531 C 282.066406 308.167969 281.734375 311.722656 279.335938 313.714844 C 278.28125 314.589844 277.003906 315.015625 275.734375 315.015625 Z M 275.734375 315.015625 " fill-opacity="1" fill-rule="nonzero"/><path fill="#282120" d="M 187.542969 306.035156 C 184.425781 306.035156 181.898438 303.507812 181.898438 300.390625 L 181.898438 274.347656 C 181.898438 271.234375 184.425781 268.707031 187.542969 268.707031 C 190.660156 268.707031 193.1875 271.234375 193.1875 274.347656 L 193.1875 300.390625 C 193.1875 303.507812 190.660156 306.035156 187.542969 306.035156 Z M 187.542969 306.035156 " fill-opacity="1" fill-rule="nonzero"/><path fill="#ffffff" d="M 187.542969 318.734375 L 187.539062 314.027344 " fill-opacity="1" fill-rule="nonzero"/><g clip-path="url(#f5a9a66908)"><path fill="#282120" d="M 187.542969 324.375 C 184.425781 324.375 181.898438 321.851562 181.898438 318.734375 L 181.894531 314.027344 C 181.894531 310.914062 184.421875 308.386719 187.539062 308.382812 C 190.65625 308.382812 193.183594 310.910156 193.183594 314.027344 L 193.1875 318.730469 C 193.1875 321.847656 190.660156 324.375 187.542969 324.375 Z M 187.542969 324.375 " fill-opacity="1" fill-rule="nonzero"/></g></svg>