<svg xmlns="http://www.w3.org/2000/svg" xmlns:xlink="http://www.w3.org/1999/xlink" width="500" zoomAndPan="magnify" viewBox="0 0 375 374.999991" height="500" preserveAspectRatio="xMidYMid meet" version="1.0"><defs><clipPath id="884e6541ec"><path d="M 252 172 L 350.8125 172 L 350.8125 251 L 252 251 Z M 252 172 " clip-rule="nonzero"/></clipPath><clipPath id="b06328655d"><path d="M 248 260 L 350.8125 260 L 350.8125 352.722656 L 248 352.722656 Z M 248 260 " clip-rule="nonzero"/></clipPath><clipPath id="1b9692aa63"><path d="M 23.8125 260 L 127 260 L 127 352.722656 L 23.8125 352.722656 Z M 23.8125 260 " clip-rule="nonzero"/></clipPath><clipPath id="8c58a8b148"><path d="M 136 260 L 239 260 L 239 352.722656 L 136 352.722656 Z M 136 260 " clip-rule="nonzero"/></clipPath><clipPath id="72243a6240"><path d="M 23.8125 172 L 123 172 L 123 251 L 23.8125 251 Z M 23.8125 172 " clip-rule="nonzero"/></clipPath></defs><g clip-path="url(#884e6541ec)"><path fill="#022135" d="M 309.195312 209.699219 C 307.4375 211.28125 305.328125 212.351562 303.003906 212.667969 C 302.539062 212.722656 302.042969 212.777344 301.546875 212.777344 C 300.890625 212.777344 300.234375 212.6875 299.597656 212.582031 C 297.394531 212.171875 295.375 211.085938 293.707031 209.523438 C 290.777344 206.769531 288.898438 202.535156 288.898438 197.789062 C 288.898438 189.523438 294.574219 182.804688 301.546875 182.804688 C 308.539062 182.804688 314.214844 189.523438 314.214844 197.789062 C 314.214844 202.644531 312.246094 206.964844 309.195312 209.699219 Z M 319.164062 213.878906 C 322.445312 209.503906 324.433594 203.90625 324.433594 197.789062 C 324.433594 183.886719 314.160156 172.5625 301.546875 172.5625 C 288.953125 172.5625 278.679688 183.886719 278.679688 197.789062 C 278.679688 203.816406 280.613281 209.363281 283.824219 213.699219 L 278.148438 216.117188 C 263.972656 222.144531 253.042969 227.941406 252.175781 242.910156 L 252.15625 243.210938 L 252.175781 243.515625 C 252.191406 243.832031 252.226562 244.152344 252.261719 244.457031 L 252.296875 250.285156 L 262.515625 249.824219 L 262.515625 244.6875 C 262.515625 244.207031 262.480469 243.761719 262.410156 243.121094 C 263.03125 235.070312 268.195312 231.460938 282.140625 225.558594 L 292.730469 221.0625 C 295.445312 222.324219 298.425781 223.015625 301.546875 223.015625 C 304.582031 223.015625 307.457031 222.359375 310.082031 221.183594 L 320.582031 225.578125 C 335.289062 231.621094 340.257812 235.070312 340.703125 243.175781 C 340.628906 243.65625 340.578125 244.152344 340.578125 244.6875 L 340.578125 250.285156 L 350.832031 249.59375 L 350.832031 244.472656 C 350.886719 244.152344 350.921875 243.832031 350.9375 243.515625 L 350.957031 243.210938 L 350.9375 242.925781 C 350.035156 226.625 337.027344 221.273438 324.503906 216.101562 L 319.164062 213.878906 " fill-opacity="1" fill-rule="nonzero"/></g><path fill="#022135" d="M 210.660156 95.746094 L 225.332031 81.257812 L 210.660156 66.789062 L 203.492188 74.078125 L 210.765625 81.257812 L 203.492188 88.457031 L 210.660156 95.746094 " fill-opacity="1" fill-rule="nonzero"/><path fill="#022135" d="M 195.011719 209.699219 C 193.257812 211.28125 191.144531 212.351562 188.839844 212.667969 C 188.359375 212.722656 187.882812 212.777344 187.386719 212.777344 C 186.710938 212.777344 186.070312 212.6875 185.433594 212.582031 C 183.214844 212.171875 181.210938 211.085938 179.527344 209.523438 C 176.617188 206.769531 174.734375 202.535156 174.734375 197.789062 C 174.734375 189.523438 180.394531 182.804688 187.386719 182.804688 C 194.355469 182.804688 200.035156 189.523438 200.035156 197.789062 C 200.035156 202.644531 198.066406 206.964844 195.011719 209.699219 Z M 226.414062 245.167969 L 226.414062 250.285156 L 236.667969 249.59375 L 236.667969 244.472656 C 236.703125 244.152344 236.738281 243.816406 236.757812 243.476562 L 236.777344 243.210938 L 236.757812 242.925781 C 235.851562 226.625 222.867188 221.273438 210.324219 216.101562 L 204.984375 213.878906 C 208.265625 209.503906 210.253906 203.90625 210.253906 197.789062 C 210.253906 183.886719 200 172.5625 187.386719 172.5625 C 174.769531 172.5625 164.5 183.886719 164.5 197.789062 C 164.5 203.816406 166.433594 209.363281 169.660156 213.699219 L 163.984375 216.117188 C 149.792969 222.144531 138.882812 227.941406 138.011719 242.910156 L 137.996094 243.195312 L 138.011719 243.476562 C 138.03125 243.816406 138.066406 244.136719 138.101562 244.457031 L 138.117188 250.285156 L 148.355469 249.824219 L 148.355469 244.6875 C 148.355469 244.207031 148.300781 243.761719 148.230469 243.140625 C 148.851562 235.070312 154.015625 231.476562 167.957031 225.558594 L 178.550781 221.0625 C 181.265625 222.324219 184.261719 223.015625 187.386719 223.015625 C 190.402344 223.015625 193.273438 222.359375 195.917969 221.183594 L 206.402344 225.578125 C 221.109375 231.621094 226.078125 235.070312 226.519531 243.195312 C 226.46875 243.671875 226.414062 244.152344 226.414062 244.6875 L 226.414062 245.167969 " fill-opacity="1" fill-rule="nonzero"/><path fill="#022135" d="M 192.175781 54.164062 L 172.996094 104.726562 L 182.542969 108.351562 L 201.738281 57.808594 L 192.175781 54.164062 " fill-opacity="1" fill-rule="nonzero"/><g clip-path="url(#b06328655d)"><path fill="#022135" d="M 258.933594 270.765625 L 340.71875 270.765625 L 340.71875 327.121094 L 315.3125 327.121094 L 314.035156 321.984375 L 285.617188 321.984375 L 284.339844 327.121094 L 258.933594 327.121094 Z M 291.042969 342.480469 L 293.597656 332.242188 L 306.070312 332.242188 L 307.332031 337.359375 L 308.625 342.480469 Z M 248.714844 337.359375 L 281.785156 337.359375 L 277.953125 352.722656 L 321.71875 352.722656 L 317.867188 337.359375 L 350.9375 337.359375 L 350.9375 260.527344 L 248.714844 260.527344 L 248.714844 337.359375 " fill-opacity="1" fill-rule="nonzero"/></g><path fill="#022135" d="M 154.332031 131.480469 C 161.960938 136.742188 166.503906 145.558594 166.503906 155.070312 L 166.503906 161.507812 L 176.742188 161.507812 L 176.742188 155.070312 C 176.742188 142.199219 170.53125 130.21875 160.136719 123.035156 C 147.09375 114.039062 139.308594 99.195312 139.308594 83.339844 C 139.308594 68.902344 145.695312 55.355469 156.816406 46.148438 C 167.957031 36.957031 182.628906 33.292969 197.070312 36.121094 C 215.949219 39.785156 231.007812 54.984375 234.574219 73.917969 C 238.246094 93.488281 230.40625 112.457031 214.101562 123.410156 C 204.042969 130.148438 198.03125 142.003906 198.03125 155.105469 L 198.03125 161.507812 L 208.25 161.507812 L 208.25 155.105469 C 208.25 145.433594 212.558594 136.757812 219.78125 131.925781 C 239.257812 118.839844 249 95.339844 244.617188 72.015625 C 240.289062 48.992188 221.960938 30.519531 199.039062 26.058594 C 181.582031 22.644531 163.808594 27.109375 150.324219 38.253906 C 136.824219 49.402344 129.089844 65.828125 129.089844 83.339844 C 129.089844 102.574219 138.527344 120.5625 154.332031 131.480469 " fill-opacity="1" fill-rule="nonzero"/><path fill="#022135" d="M 279.390625 111.996094 L 279.390625 121.828125 C 272.132812 120.796875 265.390625 117.59375 259.980469 112.492188 L 256.59375 109.292969 L 256.253906 108.992188 L 249.246094 116.441406 L 252.972656 119.960938 C 260.28125 126.859375 269.523438 131.070312 279.390625 132.171875 L 279.390625 142.734375 L 289.609375 142.734375 L 289.609375 132.171875 C 310.898438 129.808594 327.839844 112.832031 330.199219 91.515625 L 340.71875 91.515625 L 340.71875 81.257812 L 330.199219 81.257812 C 327.839844 59.941406 310.898438 42.964844 289.609375 40.601562 L 289.609375 30.042969 L 279.390625 30.042969 L 279.390625 40.601562 C 270.039062 41.648438 261.203125 45.507812 254.089844 51.800781 L 250.242188 55.195312 L 257 62.875 L 257.355469 62.574219 L 260.851562 59.480469 C 266.082031 54.859375 272.542969 51.925781 279.390625 50.929688 L 279.390625 60.777344 L 289.609375 60.777344 L 289.609375 50.949219 C 305.238281 53.207031 317.621094 65.597656 319.875 81.257812 L 310.046875 81.257812 L 310.046875 91.515625 L 319.875 91.515625 C 317.621094 107.179688 305.238281 119.570312 289.609375 121.828125 L 289.609375 111.996094 L 279.390625 111.996094 " fill-opacity="1" fill-rule="nonzero"/><path fill="#022135" d="M 164.109375 66.789062 L 149.4375 81.257812 L 164.109375 95.746094 L 171.277344 88.457031 L 164.003906 81.257812 L 171.277344 74.078125 L 164.109375 66.789062 " fill-opacity="1" fill-rule="nonzero"/><path fill="#022135" d="M 192.496094 291.265625 L 182.277344 291.265625 L 182.277344 301.503906 C 192.496094 301.503906 182.277344 301.503906 192.496094 301.503906 L 192.496094 291.265625 " fill-opacity="1" fill-rule="nonzero"/><g clip-path="url(#1b9692aa63)"><path fill="#022135" d="M 34.050781 270.765625 L 115.816406 270.765625 L 115.816406 327.121094 L 90.429688 327.121094 L 89.152344 321.984375 L 60.714844 321.984375 L 59.4375 327.121094 L 34.050781 327.121094 Z M 66.144531 342.480469 L 68.699219 332.242188 L 81.171875 332.242188 L 83.726562 342.480469 Z M 23.8125 337.359375 L 56.882812 337.359375 L 53.050781 352.722656 L 96.816406 352.722656 L 92.984375 337.359375 L 126.054688 337.359375 L 126.054688 260.527344 L 23.8125 260.527344 L 23.8125 337.359375 " fill-opacity="1" fill-rule="nonzero"/></g><path fill="#022135" d="M 131.164062 199.070312 C 128.34375 199.070312 126.054688 196.777344 126.054688 193.949219 C 126.054688 191.125 128.34375 188.832031 131.164062 188.832031 C 133.96875 188.832031 136.273438 191.125 136.273438 193.949219 C 136.273438 196.777344 133.96875 199.070312 131.164062 199.070312 Z M 146.492188 193.949219 C 146.492188 187.265625 142.214844 181.59375 136.273438 179.480469 L 136.273438 163.210938 L 156.710938 163.210938 L 156.710938 152.972656 L 126.054688 152.972656 L 126.054688 179.480469 C 120.09375 181.59375 115.816406 187.265625 115.816406 193.949219 C 115.816406 202.414062 122.703125 209.308594 131.164062 209.308594 C 139.609375 209.308594 146.492188 202.414062 146.492188 193.949219 " fill-opacity="1" fill-rule="nonzero"/><path fill="#022135" d="M 243.605469 199.070312 C 240.785156 199.070312 238.496094 196.777344 238.496094 193.949219 C 238.496094 191.125 240.785156 188.832031 243.605469 188.832031 C 246.425781 188.832031 248.714844 191.125 248.714844 193.949219 C 248.714844 196.777344 246.425781 199.070312 243.605469 199.070312 Z M 258.933594 193.949219 C 258.933594 187.265625 254.660156 181.59375 248.714844 179.480469 L 248.714844 152.972656 L 218.058594 152.972656 L 218.058594 163.210938 L 238.496094 163.210938 L 238.496094 179.480469 C 232.554688 181.59375 228.277344 187.265625 228.277344 193.949219 C 228.277344 202.414062 235.144531 209.308594 243.605469 209.308594 C 252.066406 209.308594 258.933594 202.414062 258.933594 193.949219 " fill-opacity="1" fill-rule="nonzero"/><g clip-path="url(#8c58a8b148)"><path fill="#022135" d="M 146.472656 270.765625 L 228.261719 270.765625 L 228.261719 327.121094 L 202.855469 327.121094 L 201.578125 321.984375 L 173.15625 321.984375 L 171.863281 327.121094 L 146.472656 327.121094 Z M 178.566406 342.480469 L 179.84375 337.359375 L 181.140625 332.242188 L 193.59375 332.242188 L 196.148438 342.480469 Z M 136.253906 337.359375 L 169.308594 337.359375 L 165.476562 352.722656 L 209.242188 352.722656 L 205.410156 337.359375 L 238.480469 337.359375 L 238.480469 260.527344 L 136.253906 260.527344 L 136.253906 337.359375 " fill-opacity="1" fill-rule="nonzero"/></g><path fill="#022135" d="M 100.488281 101.753906 L 100.488281 91.515625 L 110.707031 91.515625 L 110.707031 81.257812 L 100.488281 81.257812 L 100.488281 71.019531 L 90.269531 71.019531 L 90.269531 81.257812 L 80.050781 81.257812 L 80.050781 91.515625 L 90.269531 91.515625 L 90.269531 101.753906 L 100.488281 101.753906 " fill-opacity="1" fill-rule="nonzero"/><g clip-path="url(#72243a6240)"><path fill="#022135" d="M 73.203125 182.804688 C 80.175781 182.804688 85.855469 189.523438 85.855469 197.789062 C 85.855469 202.644531 83.882812 206.964844 80.851562 209.699219 C 79.078125 211.28125 76.964844 212.351562 74.660156 212.667969 C 74.179688 212.722656 73.703125 212.777344 73.203125 212.777344 C 72.546875 212.777344 71.890625 212.6875 71.253906 212.582031 C 69.054688 212.171875 67.03125 211.085938 65.34375 209.523438 C 62.4375 206.769531 60.554688 202.535156 60.554688 197.789062 C 60.554688 189.523438 66.230469 182.804688 73.203125 182.804688 Z M 23.921875 244.472656 L 23.957031 250.285156 L 34.175781 249.824219 L 34.175781 244.6875 C 34.175781 244.207031 34.140625 243.761719 34.066406 243.121094 C 34.671875 235.070312 39.851562 231.476562 53.796875 225.558594 L 64.371094 221.0625 C 67.101562 222.324219 70.082031 223.015625 73.203125 223.015625 C 76.21875 223.015625 79.09375 222.359375 81.738281 221.183594 L 92.242188 225.578125 C 106.929688 231.621094 111.914062 235.070312 112.339844 243.175781 C 112.289062 243.65625 112.234375 244.152344 112.234375 244.6875 L 112.234375 250.285156 L 122.488281 249.59375 L 122.488281 244.472656 C 122.523438 244.152344 122.558594 243.832031 122.578125 243.515625 L 122.59375 243.210938 L 122.578125 242.925781 C 121.671875 226.605469 108.6875 221.273438 96.144531 216.101562 L 90.804688 213.878906 C 94.101562 209.503906 96.074219 203.90625 96.074219 197.789062 C 96.074219 183.886719 85.816406 172.5625 73.203125 172.5625 C 60.589844 172.5625 50.335938 183.886719 50.335938 197.789062 C 50.335938 203.816406 52.269531 209.363281 55.480469 213.699219 L 49.804688 216.117188 C 35.613281 222.144531 24.699219 227.941406 23.832031 242.910156 L 23.8125 243.195312 L 23.832031 243.476562 C 23.847656 243.816406 23.886719 244.152344 23.921875 244.472656 " fill-opacity="1" fill-rule="nonzero"/></g><path fill="#022135" d="M 56.191406 130.394531 L 67.652344 123.746094 C 70.277344 125.648438 73.097656 127.285156 76.0625 128.601562 L 76.0625 141.914062 L 113.882812 141.914062 L 113.882812 128.601562 C 116.4375 127.445312 118.921875 126.058594 121.28125 124.441406 L 125.488281 121.523438 L 119.703125 113.082031 L 118.371094 113.988281 L 115.480469 115.996094 C 112.835938 117.808594 110 119.265625 107.054688 120.316406 L 103.664062 121.523438 L 103.664062 131.675781 L 86.296875 131.675781 L 86.296875 121.523438 L 82.890625 120.316406 C 78.667969 118.804688 74.800781 116.582031 71.429688 113.683594 L 68.679688 111.320312 L 59.933594 116.386719 L 51.242188 101.257812 L 59.988281 96.191406 L 59.332031 92.636719 C 58.90625 90.308594 58.691406 88.136719 58.691406 85.988281 C 58.691406 83.835938 58.90625 81.648438 59.332031 79.320312 L 59.988281 75.78125 L 51.242188 70.699219 L 59.933594 55.570312 L 68.679688 60.652344 L 71.429688 58.289062 C 74.800781 55.390625 78.667969 53.152344 82.890625 51.640625 L 86.296875 50.433594 L 86.296875 40.28125 L 103.664062 40.28125 L 103.664062 50.433594 L 107.054688 51.640625 C 110 52.691406 112.835938 54.148438 115.480469 55.980469 L 118.371094 57.96875 L 119.703125 58.875 L 125.488281 50.433594 L 121.28125 47.535156 C 118.921875 45.917969 116.4375 44.511719 113.882812 43.355469 L 113.882812 30.042969 L 76.0625 30.042969 L 76.0625 43.355469 C 73.097656 44.691406 70.277344 46.308594 67.652344 48.226562 L 56.191406 41.5625 L 37.296875 74.449219 L 48.738281 81.097656 C 48.5625 82.75 48.472656 84.386719 48.472656 85.988281 C 48.472656 87.605469 48.5625 89.222656 48.738281 90.875 L 37.296875 97.507812 L 56.191406 130.394531 " fill-opacity="1" fill-rule="nonzero"/><path fill="#022135" d="M 304.9375 291.265625 L 294.71875 291.265625 L 294.71875 301.503906 C 304.9375 301.503906 294.71875 301.503906 304.9375 301.503906 L 304.9375 291.265625 " fill-opacity="1" fill-rule="nonzero"/><path fill="#022135" d="M 80.050781 291.265625 L 69.816406 291.265625 L 69.816406 301.503906 C 80.050781 301.503906 69.816406 301.503906 80.050781 301.503906 L 80.050781 291.265625 " fill-opacity="1" fill-rule="nonzero"/></svg>