<svg xmlns="http://www.w3.org/2000/svg" xmlns:xlink="http://www.w3.org/1999/xlink" width="500" zoomAndPan="magnify" viewBox="0 0 375 374.999991" height="500" preserveAspectRatio="xMidYMid meet" version="1.0"><defs><clipPath id="331257ee0a"><path d="M 43.195312 0 L 320 0 L 320 370 L 43.195312 370 Z M 43.195312 0 " clip-rule="nonzero"/></clipPath><clipPath id="200944ed78"><path d="M 64.679688 88.492188 L 310.679688 88.492188 L 310.679688 252 L 64.679688 252 Z M 64.679688 88.492188 " clip-rule="nonzero"/></clipPath><clipPath id="e0e64ab19a"><path d="M 182 270 L 193 270 L 193 305.992188 L 182 305.992188 Z M 182 270 " clip-rule="nonzero"/></clipPath></defs><g clip-path="url(#331257ee0a)"><path fill="#153242" d="M 183.871094 369.765625 C 145.75 369.765625 51.527344 363.8125 43.183594 255.375 C 43.183594 255.375 67.589844 298.585938 67.625 293.507812 C 67.742188 277.011719 43.183594 216.648438 104.582031 175.539062 C 179.71875 125.234375 157.042969 63.527344 139.160156 62.335938 C 139.160156 62.335938 187.242188 57.472656 191.625 121.203125 C 194.003906 155.878906 223.21875 55.78125 205.933594 0.375 C 205.933594 0.375 293.710938 46.847656 282.828125 161.238281 C 282.828125 161.238281 296.394531 135.324219 319.195312 149.171875 C 319.195312 149.171875 304.886719 154.089844 309.660156 192.222656 C 314.425781 230.351562 335.289062 369.765625 183.871094 369.765625 " fill-opacity="1" fill-rule="nonzero"/></g><path fill="#286289" d="M 172.542969 365.808594 C 147.902344 364.6875 101.003906 359.257812 101.003906 297.890625 C 101.003906 236.523438 162.410156 228.179688 162.410156 171.582031 C 162.410156 171.582031 191.617188 181.707031 188.640625 209.714844 C 188.640625 209.714844 245.871094 173.964844 241.101562 131.664062 C 241.101562 131.664062 364.898438 374.605469 172.542969 365.808594 " fill-opacity="1" fill-rule="nonzero"/><path fill="#286289" d="M 172.542969 365.808594 C 147.902344 364.6875 101.003906 359.257812 101.003906 297.890625 C 101.003906 236.523438 162.410156 228.179688 162.410156 171.582031 C 162.410156 171.582031 191.617188 181.707031 188.640625 209.714844 C 188.640625 209.714844 245.871094 173.964844 241.101562 131.664062 C 241.101562 131.664062 364.898438 374.605469 172.542969 365.808594 " fill-opacity="1" fill-rule="nonzero"/><path fill="#64acc5" d="M 184.46875 260.109375 C 184.46875 260.109375 199.371094 303.78125 174.929688 303.78125 C 157.9375 303.78125 160.023438 285.316406 160.023438 285.316406 C 160.023438 285.316406 112.628906 362.171875 184.46875 362.171875 C 199.019531 362.171875 224.410156 359.191406 224.410156 319.871094 C 224.410156 280.550781 202.347656 264.691406 184.46875 260.109375 " fill-opacity="1" fill-rule="nonzero"/><g clip-path="url(#200944ed78)"><path fill="#38b6ff" d="M 64.679688 88.625 C 65.628906 92.246094 66.378906 95.925781 67.554688 99.46875 C 69.871094 106.441406 72.03125 113.507812 74.980469 120.21875 C 78.027344 127.140625 83.464844 132.097656 90.128906 135.863281 C 114.339844 149.535156 138.464844 163.367188 162.617188 177.140625 C 163.320312 177.546875 164.003906 178 164.601562 178.597656 C 135.746094 165.503906 107.675781 150.945312 80.152344 134.074219 C 80.539062 135.09375 80.660156 135.621094 80.917969 136.082031 C 85.316406 143.996094 89.796875 151.855469 94.136719 159.800781 C 98.117188 167.078125 104.507812 170.195312 112.457031 171.398438 C 125.78125 173.410156 139.046875 175.8125 152.335938 178.0625 C 156.507812 178.769531 160.679688 179.507812 164.828125 180.390625 C 144.015625 179.527344 123.414062 176.890625 102.652344 173.863281 C 103.839844 174.851562 105.039062 175.824219 106.214844 176.820312 C 111.148438 181.015625 116.210938 185.066406 120.957031 189.46875 C 124.757812 192.988281 128.679688 193.625 133.535156 191.972656 C 143.617188 188.554688 153.820312 185.476562 163.972656 182.257812 C 164.308594 182.152344 164.65625 182.089844 165.050781 182.1875 C 161.265625 183.953125 157.429688 185.628906 153.699219 187.5 C 148.40625 190.152344 143.683594 193.632812 139.679688 197.988281 C 135.542969 202.488281 134.914062 207.410156 138.386719 212.339844 C 143.070312 218.980469 148.160156 225.34375 153.34375 231.78125 C 148.773438 212.5 153.148438 195.882812 167.828125 182.261719 C 167.4375 182.988281 167.054688 183.722656 166.65625 184.449219 C 162.003906 192.953125 157.980469 201.695312 156.613281 211.414062 C 155.636719 218.3125 156.6875 224.652344 162.03125 229.652344 C 167.757812 235.011719 173.578125 240.273438 179.347656 245.585938 C 181.511719 247.578125 183.652344 249.597656 185.964844 251.542969 C 173.8125 230.023438 168.574219 206.828125 169.203125 182.171875 C 172.214844 192.011719 175.230469 201.847656 178.234375 211.691406 C 181.234375 221.523438 184.214844 231.359375 187.75 241.1875 C 193.75 221.515625 199.75 201.839844 205.75 182.164062 C 206.390625 206.769531 201.183594 229.921875 189.15625 251.558594 C 189.542969 251.230469 189.933594 250.910156 190.304688 250.566406 C 190.699219 250.207031 191.050781 249.804688 191.449219 249.445312 C 197.433594 244.023438 203.238281 238.382812 209.460938 233.246094 C 218.339844 225.925781 220.300781 216.925781 217.382812 206.226562 C 215.289062 198.542969 212.125 191.351562 208.292969 184.414062 C 207.960938 183.8125 207.617188 183.222656 207.300781 182.617188 C 207.242188 182.507812 207.308594 182.339844 207.328125 181.90625 C 214.277344 188.378906 219.113281 195.890625 221.585938 204.871094 C 224.039062 213.808594 223.730469 222.730469 221.707031 231.820312 C 224.933594 227.730469 228.183594 223.652344 231.382812 219.53125 C 232.96875 217.492188 234.503906 215.402344 235.992188 213.289062 C 240.015625 207.609375 239.617188 202.527344 234.800781 197.460938 C 229.070312 191.4375 221.996094 187.464844 214.429688 184.25 C 212.902344 183.601562 211.375 182.9375 209.976562 181.917969 C 215.933594 183.671875 221.917969 185.351562 227.839844 187.203125 C 232.199219 188.5625 236.566406 189.953125 240.777344 191.695312 C 245.972656 193.839844 250.191406 193.046875 254.335938 189.167969 C 259.503906 184.335938 265.089844 179.949219 270.492188 175.371094 C 271.0625 174.882812 271.632812 174.390625 272.144531 173.679688 C 251.558594 176.863281 230.949219 179.542969 210.117188 180.265625 C 217.957031 178.855469 225.796875 177.378906 233.65625 176.050781 C 244.089844 174.289062 254.550781 172.671875 264.996094 170.9375 C 271.324219 169.886719 276.566406 166.953125 279.835938 161.320312 C 284.792969 152.769531 289.53125 144.089844 294.359375 135.460938 C 294.492188 135.222656 294.539062 134.941406 294.828125 134.0625 C 267.3125 150.925781 239.214844 165.503906 210.210938 178.359375 C 217.765625 173.941406 225.273438 169.445312 232.882812 165.121094 C 249.773438 155.523438 266.617188 145.839844 283.671875 136.535156 C 292.335938 131.8125 298.632812 125.1875 301.953125 116.078125 C 305.222656 107.125 307.804688 97.917969 310.6875 88.824219 C 310.457031 88.722656 310.230469 88.625 310 88.523438 C 309.722656 88.785156 309.378906 89.003906 309.167969 89.3125 C 296.171875 108.175781 279.097656 122.515625 259.429688 134.003906 C 246.472656 141.574219 233.589844 149.28125 220.613281 156.816406 C 214.242188 160.515625 211.226562 166.582031 208.605469 172.96875 C 207.628906 175.347656 206.921875 177.839844 205.988281 180.558594 C 202.5625 176.035156 200.796875 171.214844 201.066406 165.65625 C 201.167969 163.546875 201.425781 161.304688 200.875 159.328125 C 199.058594 152.855469 193.953125 150.019531 187.851562 148.621094 C 184.367188 147.816406 181.078125 148.140625 178.207031 150.683594 C 177.527344 151.277344 176.222656 151.238281 175.1875 151.347656 C 170.746094 151.832031 168.753906 153.941406 169.300781 157.65625 C 175.90625 155.875 180.480469 159.589844 180.238281 166.546875 C 179.988281 173.546875 175.105469 179.699219 168.980469 180.589844 C 168.085938 177.976562 167.273438 175.3125 166.277344 172.714844 C 163.363281 165.113281 158.851562 159.039062 151.445312 154.910156 C 138.066406 147.464844 124.953125 139.546875 111.808594 131.691406 C 93.574219 120.804688 78.046875 106.953125 65.90625 89.464844 C 65.660156 89.113281 65.367188 88.789062 64.679688 88.625 Z M 181.785156 154.125 L 181.84375 152.386719 L 186.609375 153.546875 L 186.574219 154.058594 Z M 181.785156 154.125 " fill-opacity="1" fill-rule="nonzero"/></g><path fill="#38b6ff" d="M 147.675781 286.28125 C 152.5625 286.28125 156.964844 286.519531 161.324219 286.207031 C 164.851562 285.957031 167.804688 284.070312 170.136719 281.390625 C 175.964844 274.6875 179.386719 266.785156 181.351562 258.25 C 182.390625 253.726562 179.410156 247.449219 174.519531 243.324219 C 175.34375 245.289062 175.996094 246.839844 176.644531 248.390625 C 178.609375 253.054688 178.285156 257.398438 175.539062 261.8125 C 169.367188 271.722656 160.699219 278.816406 150.730469 284.558594 C 149.84375 285.070312 148.949219 285.566406 147.675781 286.28125 Z M 147.675781 286.28125 " fill-opacity="1" fill-rule="nonzero"/><path fill="#38b6ff" d="M 226.84375 286.117188 C 224.460938 284.683594 222.035156 283.3125 219.699219 281.800781 C 211.617188 276.570312 204.707031 270.1875 199.507812 261.972656 C 196.628906 257.417969 196.332031 252.9375 198.40625 248.128906 C 199.023438 246.691406 199.648438 245.253906 200.339844 243.644531 C 195.601562 246.730469 192.550781 254.011719 193.816406 259.179688 C 195.585938 266.402344 198.554688 273.085938 202.941406 279.144531 C 206.5625 284.140625 211.28125 286.746094 217.542969 286.519531 C 220.617188 286.410156 223.703125 286.503906 226.78125 286.503906 C 226.800781 286.371094 226.824219 286.242188 226.84375 286.117188 Z M 226.84375 286.117188 " fill-opacity="1" fill-rule="nonzero"/><g clip-path="url(#e0e64ab19a)"><path fill="#38b6ff" d="M 187.59375 305.972656 C 191.4375 300.453125 193.046875 294.644531 191.660156 288.160156 C 190.378906 282.171875 189.097656 276.1875 187.816406 270.199219 C 187.628906 270.175781 187.445312 270.152344 187.257812 270.128906 C 186.984375 271.300781 186.695312 272.46875 186.441406 273.640625 C 185.34375 278.671875 184.210938 283.695312 183.179688 288.742188 C 181.976562 294.609375 183.726562 301.429688 187.59375 305.972656 Z M 187.59375 305.972656 " fill-opacity="1" fill-rule="nonzero"/></g><path fill="#38b6ff" d="M 184.296875 260.597656 C 181.695312 266.390625 179.121094 272.785156 176.007812 278.910156 C 172.867188 285.089844 168.351562 290.347656 163.136719 295.167969 C 169.492188 296.417969 176.355469 292.808594 179.25 286.675781 C 183.253906 278.191406 184.742188 269.210938 184.296875 260.597656 Z M 184.296875 260.597656 " fill-opacity="1" fill-rule="nonzero"/><path fill="#38b6ff" d="M 190.867188 259.878906 C 190.191406 269.046875 191.710938 277.804688 195.421875 286.136719 C 198.296875 292.578125 204.375 295.988281 211.964844 295.339844 C 201.300781 285.457031 194.796875 273.414062 190.867188 259.878906 Z M 190.867188 259.878906 " fill-opacity="1" fill-rule="nonzero"/><path fill="#38b6ff" d="M 240.941406 255.546875 C 238.558594 254.109375 236.128906 252.738281 233.792969 251.230469 C 225.710938 245.996094 218.804688 239.613281 213.605469 231.398438 C 210.722656 226.84375 210.425781 222.363281 212.5 217.558594 C 213.121094 216.117188 213.742188 214.679688 214.4375 213.070312 C 209.695312 216.15625 206.648438 223.4375 207.914062 228.605469 C 209.683594 235.828125 212.648438 242.515625 217.039062 248.574219 C 220.65625 253.566406 225.378906 256.175781 231.640625 255.949219 C 234.714844 255.835938 237.796875 255.929688 240.878906 255.929688 C 240.902344 255.800781 240.921875 255.671875 240.941406 255.546875 Z M 240.941406 255.546875 " fill-opacity="1" fill-rule="nonzero"/><path fill="#38b6ff" d="M 204.964844 229.308594 C 204.289062 238.476562 205.804688 247.234375 209.519531 255.5625 C 212.390625 262.007812 218.472656 265.417969 226.058594 264.769531 C 215.398438 254.882812 208.894531 242.839844 204.964844 229.308594 Z M 204.964844 229.308594 " fill-opacity="1" fill-rule="nonzero"/><path fill="#38b6ff" d="M 136 255.546875 C 138.382812 254.109375 140.808594 252.738281 143.144531 251.230469 C 151.226562 245.996094 158.136719 239.613281 163.335938 231.398438 C 166.214844 226.84375 166.511719 222.363281 164.4375 217.558594 C 163.820312 216.117188 163.195312 214.679688 162.503906 213.070312 C 167.242188 216.15625 170.292969 223.4375 169.027344 228.605469 C 167.257812 235.828125 164.289062 242.515625 159.902344 248.574219 C 156.28125 253.566406 151.5625 256.175781 145.300781 255.949219 C 142.226562 255.835938 139.140625 255.929688 136.0625 255.929688 C 136.042969 255.800781 136.019531 255.671875 136 255.546875 Z M 136 255.546875 " fill-opacity="1" fill-rule="nonzero"/><path fill="#38b6ff" d="M 171.980469 229.308594 C 172.65625 238.476562 171.136719 247.234375 167.425781 255.5625 C 164.550781 262.007812 158.472656 265.417969 150.882812 264.769531 C 161.542969 254.882812 168.046875 242.839844 171.980469 229.308594 Z M 171.980469 229.308594 " fill-opacity="1" fill-rule="nonzero"/><path fill="#ffffff" d="M 181.84375 154.058594 C 183.421875 154.058594 184.996094 154.058594 186.578125 154.058594 C 186.589844 153.886719 186.601562 153.714844 186.613281 153.546875 C 185.039062 153.417969 183.464844 153.289062 181.890625 153.15625 C 181.875 153.457031 181.859375 153.757812 181.84375 154.058594 Z M 181.84375 154.058594 " fill-opacity="1" fill-rule="nonzero"/></svg>