<svg xmlns="http://www.w3.org/2000/svg" xmlns:xlink="http://www.w3.org/1999/xlink" width="500" zoomAndPan="magnify" viewBox="0 0 375 374.999991" height="500" preserveAspectRatio="xMidYMid meet" version="1.0"><defs><clipPath id="adde064d0d"><path d="M 32.085938 32.085938 L 342.585938 32.085938 L 342.585938 342.585938 L 32.085938 342.585938 Z M 32.085938 32.085938 " clip-rule="nonzero"/></clipPath></defs><g clip-path="url(#adde064d0d)"><path fill="#022135" d="M 203.679688 244.535156 C 205.015625 244.53125 206.351562 244.464844 207.679688 244.332031 C 209.011719 244.199219 210.335938 244.003906 211.644531 243.742188 C 212.957031 243.480469 214.253906 243.152344 215.535156 242.765625 C 216.8125 242.375 218.070312 241.925781 219.304688 241.414062 C 220.542969 240.898438 221.75 240.328125 222.929688 239.695312 C 224.109375 239.066406 225.253906 238.378906 226.367188 237.636719 C 227.476562 236.890625 228.550781 236.09375 229.585938 235.246094 C 230.621094 234.398438 231.609375 233.5 232.554688 232.554688 C 233.5 231.609375 234.398438 230.621094 235.246094 229.585938 C 236.09375 228.550781 236.890625 227.476562 237.636719 226.367188 C 238.378906 225.253906 239.066406 224.109375 239.695312 222.929688 C 240.328125 221.75 240.898438 220.542969 241.414062 219.304688 C 241.925781 218.070312 242.375 216.8125 242.765625 215.535156 C 243.152344 214.253906 243.480469 212.957031 243.742188 211.644531 C 244.003906 210.335938 244.199219 209.011719 244.332031 207.679688 C 244.464844 206.351562 244.53125 205.015625 244.535156 203.679688 L 244.535156 72.941406 C 244.53125 71.605469 244.464844 70.269531 244.332031 68.9375 C 244.199219 67.605469 244.003906 66.285156 243.742188 64.972656 C 243.480469 63.664062 243.152344 62.367188 242.765625 61.085938 C 242.375 59.808594 241.925781 58.550781 241.414062 57.3125 C 240.898438 56.078125 240.328125 54.871094 239.695312 53.691406 C 239.066406 52.511719 238.378906 51.367188 237.636719 50.253906 C 236.890625 49.140625 236.09375 48.070312 235.246094 47.035156 C 234.398438 46 233.5 45.011719 232.554688 44.066406 C 231.609375 43.121094 230.621094 42.222656 229.585938 41.375 C 228.550781 40.523438 227.476562 39.726562 226.367188 38.984375 C 225.253906 38.242188 224.109375 37.554688 222.929688 36.921875 C 221.75 36.292969 220.542969 35.71875 219.304688 35.207031 C 218.070312 34.695312 216.8125 34.246094 215.535156 33.855469 C 214.253906 33.464844 212.957031 33.140625 211.644531 32.878906 C 210.335938 32.617188 209.011719 32.417969 207.679688 32.285156 C 206.351562 32.15625 205.015625 32.085938 203.679688 32.085938 L 72.941406 32.085938 C 71.605469 32.085938 70.269531 32.15625 68.9375 32.285156 C 67.605469 32.417969 66.285156 32.617188 64.972656 32.878906 C 63.664062 33.140625 62.367188 33.464844 61.085938 33.855469 C 59.808594 34.246094 58.550781 34.695312 57.3125 35.207031 C 56.078125 35.71875 54.871094 36.292969 53.691406 36.921875 C 52.511719 37.554688 51.367188 38.242188 50.253906 38.984375 C 49.140625 39.726562 48.070312 40.523438 47.035156 41.375 C 46 42.222656 45.011719 43.121094 44.066406 44.066406 C 43.121094 45.011719 42.222656 46 41.375 47.035156 C 40.523438 48.070312 39.726562 49.140625 38.984375 50.253906 C 38.242188 51.367188 37.554688 52.511719 36.921875 53.691406 C 36.292969 54.871094 35.71875 56.078125 35.207031 57.3125 C 34.695312 58.550781 34.246094 59.808594 33.855469 61.085938 C 33.464844 62.367188 33.140625 63.664062 32.878906 64.972656 C 32.617188 66.285156 32.417969 67.605469 32.285156 68.9375 C 32.15625 70.269531 32.085938 71.605469 32.085938 72.941406 L 32.085938 203.679688 C 32.085938 205.015625 32.15625 206.351562 32.285156 207.679688 C 32.417969 209.011719 32.617188 210.335938 32.878906 211.644531 C 33.140625 212.957031 33.464844 214.253906 33.855469 215.535156 C 34.246094 216.8125 34.695312 218.070312 35.207031 219.304688 C 35.71875 220.542969 36.292969 221.75 36.921875 222.929688 C 37.554688 224.109375 38.242188 225.253906 38.984375 226.367188 C 39.726562 227.476562 40.523438 228.550781 41.375 229.585938 C 42.222656 230.617188 43.121094 231.609375 44.066406 232.554688 C 45.011719 233.5 46 234.398438 47.035156 235.246094 C 48.070312 236.09375 49.140625 236.890625 50.253906 237.636719 C 51.367188 238.378906 52.511719 239.066406 53.691406 239.695312 C 54.871094 240.328125 56.078125 240.898438 57.3125 241.414062 C 58.550781 241.925781 59.808594 242.375 61.085938 242.765625 C 62.367188 243.152344 63.664062 243.480469 64.972656 243.742188 C 66.285156 244.003906 67.605469 244.199219 68.9375 244.332031 C 70.269531 244.464844 71.605469 244.53125 72.941406 244.535156 Z M 48.429688 203.679688 L 48.429688 72.941406 C 48.429688 72.140625 48.46875 71.339844 48.550781 70.539062 C 48.628906 69.742188 48.746094 68.949219 48.902344 68.160156 C 49.0625 67.375 49.257812 66.597656 49.488281 65.828125 C 49.722656 65.0625 49.992188 64.304688 50.300781 63.566406 C 50.609375 62.824219 50.953125 62.097656 51.332031 61.390625 C 51.710938 60.683594 52.121094 59.996094 52.566406 59.328125 C 53.015625 58.660156 53.492188 58.019531 54 57.398438 C 54.511719 56.777344 55.046875 56.183594 55.617188 55.617188 C 56.183594 55.046875 56.777344 54.511719 57.398438 54 C 58.019531 53.492188 58.660156 53.015625 59.328125 52.566406 C 59.996094 52.121094 60.683594 51.710938 61.390625 51.332031 C 62.097656 50.953125 62.824219 50.609375 63.566406 50.300781 C 64.304688 49.992188 65.0625 49.722656 65.828125 49.488281 C 66.597656 49.257812 67.375 49.0625 68.160156 48.902344 C 68.949219 48.746094 69.742188 48.628906 70.539062 48.550781 C 71.339844 48.46875 72.140625 48.429688 72.941406 48.429688 L 203.679688 48.429688 C 204.480469 48.429688 205.28125 48.46875 206.082031 48.550781 C 206.878906 48.628906 207.671875 48.746094 208.457031 48.902344 C 209.246094 49.0625 210.023438 49.257812 210.792969 49.488281 C 211.558594 49.722656 212.3125 49.992188 213.054688 50.300781 C 213.796875 50.609375 214.519531 50.953125 215.230469 51.332031 C 215.9375 51.710938 216.625 52.121094 217.289062 52.566406 C 217.957031 53.015625 218.601562 53.492188 219.222656 54 C 219.84375 54.511719 220.4375 55.046875 221.003906 55.617188 C 221.570312 56.183594 222.109375 56.777344 222.621094 57.398438 C 223.128906 58.019531 223.605469 58.660156 224.050781 59.328125 C 224.5 59.996094 224.910156 60.683594 225.289062 61.390625 C 225.667969 62.097656 226.011719 62.824219 226.320312 63.566406 C 226.625 64.304688 226.898438 65.0625 227.128906 65.828125 C 227.363281 66.597656 227.558594 67.375 227.714844 68.160156 C 227.875 68.949219 227.992188 69.742188 228.070312 70.539062 C 228.152344 71.339844 228.191406 72.140625 228.191406 72.941406 L 228.191406 203.679688 C 228.191406 204.480469 228.152344 205.28125 228.070312 206.082031 C 227.992188 206.878906 227.875 207.671875 227.714844 208.457031 C 227.558594 209.246094 227.363281 210.023438 227.128906 210.792969 C 226.898438 211.558594 226.625 212.3125 226.320312 213.054688 C 226.011719 213.796875 225.667969 214.519531 225.289062 215.230469 C 224.910156 215.9375 224.5 216.625 224.050781 217.289062 C 223.605469 217.957031 223.128906 218.601562 222.621094 219.222656 C 222.109375 219.84375 221.570312 220.4375 221.003906 221.003906 C 220.4375 221.570312 219.84375 222.109375 219.222656 222.621094 C 218.601562 223.128906 217.957031 223.605469 217.289062 224.050781 C 216.625 224.5 215.9375 224.910156 215.230469 225.289062 C 214.519531 225.667969 213.796875 226.011719 213.054688 226.320312 C 212.3125 226.625 211.558594 226.898438 210.792969 227.128906 C 210.023438 227.363281 209.246094 227.558594 208.457031 227.714844 C 207.671875 227.875 206.878906 227.992188 206.082031 228.070312 C 205.28125 228.152344 204.480469 228.191406 203.679688 228.191406 L 72.941406 228.191406 C 72.140625 228.191406 71.339844 228.152344 70.539062 228.070312 C 69.742188 227.992188 68.949219 227.875 68.160156 227.714844 C 67.375 227.558594 66.597656 227.363281 65.828125 227.128906 C 65.0625 226.898438 64.304688 226.625 63.566406 226.320312 C 62.824219 226.011719 62.097656 225.667969 61.390625 225.289062 C 60.683594 224.910156 59.996094 224.5 59.328125 224.050781 C 58.660156 223.605469 58.019531 223.128906 57.398438 222.621094 C 56.777344 222.109375 56.183594 221.570312 55.617188 221.003906 C 55.046875 220.4375 54.511719 219.84375 54 219.222656 C 53.492188 218.601562 53.015625 217.957031 52.566406 217.289062 C 52.121094 216.625 51.710938 215.9375 51.332031 215.230469 C 50.953125 214.519531 50.609375 213.796875 50.300781 213.054688 C 49.992188 212.3125 49.722656 211.558594 49.488281 210.792969 C 49.257812 210.023438 49.0625 209.246094 48.902344 208.457031 C 48.746094 207.671875 48.628906 206.878906 48.550781 206.082031 C 48.46875 205.28125 48.429688 204.480469 48.429688 203.679688 Z M 81.878906 190.785156 C 81.652344 190.296875 81.476562 189.792969 81.351562 189.273438 C 81.222656 188.75 81.148438 188.222656 81.125 187.6875 C 81.101562 187.152344 81.132812 186.621094 81.214844 186.089844 C 81.296875 185.558594 81.429688 185.042969 81.613281 184.539062 C 81.796875 184.035156 82.027344 183.554688 82.308594 183.097656 C 82.585938 182.636719 82.90625 182.210938 83.269531 181.816406 C 83.628906 181.421875 84.027344 181.066406 84.460938 180.746094 C 84.890625 180.429688 85.351562 180.160156 85.835938 179.929688 C 86.25 179.738281 123.578125 161.835938 129.324219 130.140625 L 105.625 130.140625 C 105.089844 130.140625 104.558594 130.085938 104.03125 129.980469 C 103.503906 129.878906 102.996094 129.722656 102.5 129.515625 C 102.003906 129.3125 101.53125 129.058594 101.085938 128.761719 C 100.640625 128.464844 100.226562 128.125 99.847656 127.746094 C 99.46875 127.367188 99.128906 126.953125 98.832031 126.507812 C 98.535156 126.0625 98.28125 125.589844 98.078125 125.09375 C 97.871094 124.597656 97.714844 124.089844 97.613281 123.5625 C 97.507812 123.035156 97.453125 122.503906 97.453125 121.96875 C 97.453125 121.429688 97.507812 120.898438 97.613281 120.375 C 97.714844 119.847656 97.871094 119.335938 98.078125 118.839844 C 98.28125 118.34375 98.535156 117.875 98.832031 117.429688 C 99.128906 116.980469 99.46875 116.570312 99.847656 116.191406 C 100.226562 115.8125 100.640625 115.472656 101.085938 115.175781 C 101.53125 114.875 102.003906 114.625 102.5 114.417969 C 102.996094 114.214844 103.503906 114.058594 104.03125 113.953125 C 104.558594 113.847656 105.089844 113.796875 105.625 113.796875 L 130.140625 113.796875 L 130.140625 89.285156 C 130.140625 88.746094 130.191406 88.214844 130.296875 87.691406 C 130.402344 87.164062 130.554688 86.652344 130.761719 86.15625 C 130.964844 85.660156 131.21875 85.191406 131.515625 84.742188 C 131.8125 84.296875 132.152344 83.886719 132.53125 83.507812 C 132.910156 83.125 133.324219 82.789062 133.769531 82.488281 C 134.214844 82.191406 134.6875 81.941406 135.183594 81.734375 C 135.679688 81.53125 136.191406 81.375 136.714844 81.269531 C 137.242188 81.164062 137.773438 81.113281 138.308594 81.113281 C 138.847656 81.113281 139.378906 81.164062 139.902344 81.269531 C 140.429688 81.375 140.941406 81.53125 141.4375 81.734375 C 141.933594 81.941406 142.402344 82.191406 142.847656 82.488281 C 143.296875 82.789062 143.707031 83.125 144.085938 83.507812 C 144.46875 83.886719 144.804688 84.296875 145.105469 84.742188 C 145.402344 85.191406 145.652344 85.660156 145.859375 86.15625 C 146.0625 86.652344 146.21875 87.164062 146.324219 87.691406 C 146.429688 88.214844 146.480469 88.746094 146.480469 89.285156 L 146.480469 113.796875 L 170.996094 113.796875 C 171.53125 113.796875 172.0625 113.847656 172.589844 113.953125 C 173.113281 114.058594 173.625 114.214844 174.121094 114.417969 C 174.617188 114.625 175.085938 114.875 175.535156 115.175781 C 175.980469 115.472656 176.394531 115.8125 176.773438 116.191406 C 177.152344 116.570312 177.488281 116.980469 177.789062 117.429688 C 178.085938 117.875 178.339844 118.34375 178.542969 118.839844 C 178.75 119.335938 178.902344 119.847656 179.007812 120.375 C 179.113281 120.898438 179.164062 121.429688 179.164062 121.96875 C 179.164062 122.503906 179.113281 123.035156 179.007812 123.5625 C 178.902344 124.089844 178.75 124.597656 178.542969 125.09375 C 178.339844 125.589844 178.085938 126.0625 177.789062 126.507812 C 177.488281 126.953125 177.152344 127.367188 176.773438 127.746094 C 176.394531 128.125 175.980469 128.464844 175.535156 128.761719 C 175.085938 129.058594 174.617188 129.3125 174.121094 129.515625 C 173.625 129.722656 173.113281 129.878906 172.589844 129.980469 C 172.0625 130.085938 171.53125 130.140625 170.996094 130.140625 L 147.292969 130.140625 C 153.042969 161.835938 190.371094 179.738281 190.785156 179.929688 C 191.203125 180.125 191.601562 180.355469 191.980469 180.617188 C 192.363281 180.882812 192.714844 181.171875 193.046875 181.496094 C 193.375 181.820312 193.675781 182.167969 193.949219 182.542969 C 194.21875 182.917969 194.457031 183.308594 194.660156 183.726562 C 194.867188 184.140625 195.035156 184.566406 195.164062 185.011719 C 195.296875 185.453125 195.390625 185.902344 195.445312 186.363281 C 195.5 186.820312 195.515625 187.28125 195.492188 187.742188 C 195.472656 188.203125 195.410156 188.660156 195.308594 189.109375 C 195.207031 189.5625 195.070312 190 194.894531 190.429688 C 194.722656 190.855469 194.511719 191.265625 194.269531 191.65625 C 194.023438 192.050781 193.746094 192.417969 193.441406 192.765625 C 193.132812 193.109375 192.800781 193.425781 192.441406 193.714844 C 192.078125 194.003906 191.695312 194.261719 191.292969 194.484375 C 190.890625 194.707031 190.46875 194.894531 190.03125 195.046875 C 189.597656 195.199219 189.152344 195.316406 188.695312 195.394531 C 188.242188 195.46875 187.78125 195.507812 187.320312 195.507812 C 186.125 195.511719 184.984375 195.257812 183.90625 194.75 C 179.214844 192.464844 174.714844 189.863281 170.398438 186.9375 C 166.078125 184.011719 161.992188 180.792969 158.136719 177.285156 C 154.277344 173.777344 150.6875 170.011719 147.367188 165.992188 C 144.046875 161.96875 141.027344 157.734375 138.308594 153.28125 C 135.59375 157.734375 132.574219 161.96875 129.253906 165.992188 C 125.933594 170.011719 122.34375 173.777344 118.484375 177.285156 C 114.628906 180.792969 110.539062 184.011719 106.222656 186.9375 C 101.90625 189.863281 97.402344 192.464844 92.714844 194.75 C 91.632812 195.257812 90.496094 195.511719 89.300781 195.507812 C 88.519531 195.507812 87.757812 195.398438 87.007812 195.179688 C 86.261719 194.964844 85.558594 194.644531 84.902344 194.226562 C 84.242188 193.808594 83.65625 193.308594 83.144531 192.722656 C 82.628906 192.136719 82.207031 191.488281 81.878906 190.785156 Z M 342.585938 301.730469 C 342.585938 303.070312 342.519531 304.402344 342.386719 305.734375 C 342.253906 307.066406 342.054688 308.386719 341.792969 309.699219 C 341.53125 311.011719 341.207031 312.304688 340.816406 313.585938 C 340.429688 314.867188 339.976562 316.125 339.464844 317.359375 C 338.953125 318.59375 338.378906 319.800781 337.75 320.980469 C 337.117188 322.160156 336.429688 323.308594 335.6875 324.417969 C 334.945312 325.53125 334.148438 326.605469 333.300781 327.636719 C 332.449219 328.671875 331.554688 329.660156 330.609375 330.609375 C 329.660156 331.554688 328.671875 332.449219 327.636719 333.300781 C 326.605469 334.148438 325.53125 334.945312 324.417969 335.6875 C 323.308594 336.429688 322.160156 337.117188 320.980469 337.75 C 319.800781 338.378906 318.59375 338.953125 317.359375 339.464844 C 316.125 339.976562 314.867188 340.429688 313.585938 340.816406 C 312.304688 341.207031 311.011719 341.53125 309.699219 341.792969 C 308.386719 342.054688 307.066406 342.253906 305.734375 342.386719 C 304.402344 342.519531 303.070312 342.585938 301.730469 342.585938 L 170.996094 342.585938 C 169.65625 342.585938 168.320312 342.519531 166.992188 342.386719 C 165.660156 342.253906 164.339844 342.054688 163.027344 341.792969 C 161.714844 341.53125 160.417969 341.207031 159.140625 340.816406 C 157.859375 340.429688 156.601562 339.976562 155.367188 339.464844 C 154.128906 338.953125 152.921875 338.378906 151.742188 337.75 C 150.5625 337.117188 149.417969 336.429688 148.304688 335.6875 C 147.195312 334.945312 146.121094 334.148438 145.085938 333.300781 C 144.054688 332.449219 143.0625 331.554688 142.117188 330.609375 C 141.171875 329.660156 140.273438 328.671875 139.425781 327.636719 C 138.578125 326.605469 137.78125 325.53125 137.039062 324.417969 C 136.292969 323.308594 135.605469 322.160156 134.976562 320.980469 C 134.34375 319.800781 133.773438 318.59375 133.261719 317.359375 C 132.746094 316.125 132.296875 314.867188 131.90625 313.585938 C 131.519531 312.304688 131.191406 311.011719 130.929688 309.699219 C 130.667969 308.386719 130.472656 307.066406 130.339844 305.734375 C 130.207031 304.402344 130.140625 303.070312 130.140625 301.730469 L 130.140625 269.046875 L 146.480469 269.046875 L 146.480469 301.730469 C 146.480469 302.535156 146.523438 303.335938 146.601562 304.132812 C 146.679688 304.929688 146.800781 305.722656 146.957031 306.511719 C 147.113281 307.296875 147.308594 308.074219 147.542969 308.84375 C 147.777344 309.613281 148.046875 310.367188 148.355469 311.109375 C 148.660156 311.847656 149.003906 312.574219 149.382812 313.28125 C 149.761719 313.988281 150.175781 314.675781 150.621094 315.34375 C 151.066406 316.011719 151.542969 316.65625 152.054688 317.273438 C 152.5625 317.894531 153.101562 318.488281 153.667969 319.058594 C 154.234375 319.625 154.832031 320.164062 155.449219 320.671875 C 156.070312 321.179688 156.714844 321.660156 157.382812 322.105469 C 158.050781 322.550781 158.738281 322.964844 159.445312 323.34375 C 160.152344 323.71875 160.875 324.0625 161.617188 324.371094 C 162.359375 324.679688 163.113281 324.949219 163.882812 325.183594 C 164.648438 325.417969 165.425781 325.613281 166.214844 325.769531 C 167 325.925781 167.792969 326.042969 168.59375 326.125 C 169.390625 326.203125 170.191406 326.242188 170.996094 326.246094 L 301.730469 326.246094 C 302.535156 326.242188 303.335938 326.203125 304.132812 326.125 C 304.929688 326.042969 305.722656 325.925781 306.511719 325.769531 C 307.296875 325.613281 308.074219 325.417969 308.84375 325.183594 C 309.613281 324.949219 310.367188 324.679688 311.109375 324.371094 C 311.847656 324.0625 312.574219 323.71875 313.28125 323.339844 C 313.988281 322.964844 314.675781 322.550781 315.34375 322.105469 C 316.011719 321.660156 316.65625 321.179688 317.273438 320.671875 C 317.894531 320.164062 318.488281 319.625 319.054688 319.054688 C 319.625 318.488281 320.164062 317.894531 320.671875 317.273438 C 321.179688 316.65625 321.660156 316.011719 322.105469 315.34375 C 322.550781 314.675781 322.964844 313.988281 323.34375 313.28125 C 323.71875 312.574219 324.0625 311.847656 324.371094 311.109375 C 324.679688 310.367188 324.949219 309.613281 325.183594 308.84375 C 325.417969 308.074219 325.613281 307.296875 325.769531 306.511719 C 325.925781 305.722656 326.042969 304.929688 326.125 304.132812 C 326.203125 303.335938 326.242188 302.535156 326.246094 301.730469 L 326.246094 170.996094 C 326.242188 170.191406 326.203125 169.390625 326.125 168.59375 C 326.042969 167.792969 325.925781 167 325.769531 166.214844 C 325.613281 165.425781 325.417969 164.648438 325.183594 163.882812 C 324.949219 163.113281 324.679688 162.359375 324.371094 161.617188 C 324.0625 160.875 323.71875 160.152344 323.34375 159.445312 C 322.964844 158.738281 322.550781 158.050781 322.105469 157.382812 C 321.660156 156.714844 321.179688 156.070312 320.671875 155.449219 C 320.164062 154.832031 319.625 154.234375 319.058594 153.667969 C 318.488281 153.101562 317.894531 152.5625 317.273438 152.054688 C 316.65625 151.542969 316.011719 151.066406 315.34375 150.621094 C 314.675781 150.175781 313.988281 149.761719 313.28125 149.382812 C 312.574219 149.003906 311.847656 148.660156 311.109375 148.355469 C 310.367188 148.046875 309.613281 147.777344 308.84375 147.542969 C 308.074219 147.308594 307.296875 147.113281 306.511719 146.957031 C 305.722656 146.800781 304.929688 146.679688 304.132812 146.601562 C 303.335938 146.523438 302.535156 146.480469 301.730469 146.480469 L 269.046875 146.480469 L 269.046875 130.140625 L 301.730469 130.140625 C 303.070312 130.140625 304.402344 130.207031 305.734375 130.339844 C 307.066406 130.472656 308.386719 130.667969 309.699219 130.929688 C 311.011719 131.191406 312.304688 131.519531 313.585938 131.90625 C 314.867188 132.296875 316.125 132.746094 317.359375 133.261719 C 318.59375 133.773438 319.800781 134.34375 320.980469 134.976562 C 322.160156 135.605469 323.308594 136.292969 324.417969 137.039062 C 325.53125 137.78125 326.605469 138.578125 327.636719 139.425781 C 328.671875 140.273438 329.660156 141.171875 330.609375 142.117188 C 331.554688 143.0625 332.449219 144.054688 333.300781 145.085938 C 334.148438 146.121094 334.945312 147.195312 335.6875 148.304688 C 336.429688 149.417969 337.117188 150.5625 337.75 151.742188 C 338.378906 152.921875 338.953125 154.128906 339.464844 155.367188 C 339.976562 156.601562 340.429688 157.859375 340.816406 159.140625 C 341.207031 160.417969 341.53125 161.714844 341.792969 163.027344 C 342.054688 164.339844 342.253906 165.660156 342.386719 166.992188 C 342.519531 168.320312 342.585938 169.65625 342.585938 170.996094 Z M 203.679688 269.046875 C 204.027344 269.046875 204.347656 268.949219 204.695312 268.945312 L 194.644531 289.042969 C 194.40625 289.523438 194.121094 289.976562 193.792969 290.398438 C 193.464844 290.824219 193.097656 291.210938 192.691406 291.5625 C 192.285156 291.914062 191.847656 292.222656 191.382812 292.488281 C 190.917969 292.753906 190.429688 292.972656 189.921875 293.140625 C 189.410156 293.3125 188.890625 293.429688 188.359375 293.496094 C 187.824219 293.5625 187.292969 293.578125 186.757812 293.539062 C 186.222656 293.503906 185.695312 293.414062 185.179688 293.269531 C 184.660156 293.128906 184.160156 292.9375 183.679688 292.699219 C 183.203125 292.457031 182.75 292.175781 182.324219 291.84375 C 181.902344 291.515625 181.515625 291.148438 181.164062 290.742188 C 180.8125 290.339844 180.503906 289.902344 180.238281 289.4375 C 179.972656 288.96875 179.753906 288.480469 179.582031 287.972656 C 179.414062 287.464844 179.296875 286.945312 179.226562 286.410156 C 179.160156 285.878906 179.148438 285.34375 179.183594 284.808594 C 179.222656 284.273438 179.3125 283.75 179.453125 283.230469 C 179.597656 282.714844 179.785156 282.214844 180.027344 281.734375 L 186.371094 269.046875 Z M 254.292969 244.535156 L 255.824219 244.535156 L 255.246094 243.378906 C 259.34375 238.09375 262.542969 232.316406 264.851562 226.042969 L 292.699219 281.734375 C 292.9375 282.214844 293.128906 282.714844 293.269531 283.230469 C 293.414062 283.75 293.503906 284.273438 293.539062 284.808594 C 293.578125 285.34375 293.5625 285.878906 293.496094 286.410156 C 293.429688 286.945312 293.3125 287.464844 293.140625 287.972656 C 292.972656 288.480469 292.753906 288.96875 292.488281 289.4375 C 292.222656 289.902344 291.914062 290.339844 291.5625 290.742188 C 291.210938 291.148438 290.824219 291.515625 290.398438 291.84375 C 289.976562 292.175781 289.523438 292.457031 289.042969 292.699219 C 288.5625 292.9375 288.066406 293.128906 287.546875 293.269531 C 287.03125 293.414062 286.503906 293.503906 285.96875 293.539062 C 285.433594 293.578125 284.898438 293.5625 284.367188 293.496094 C 283.835938 293.429688 283.3125 293.3125 282.804688 293.140625 C 282.296875 292.972656 281.808594 292.753906 281.34375 292.488281 C 280.875 292.222656 280.441406 291.914062 280.035156 291.5625 C 279.628906 291.210938 279.261719 290.824219 278.933594 290.398438 C 278.605469 289.976562 278.320312 289.523438 278.078125 289.042969 L 263.996094 260.875 L 234.671875 260.875 C 242.296875 256.730469 248.839844 251.285156 254.292969 244.535156 Z M 254.292969 244.535156 " fill-opacity="1" fill-rule="nonzero"/></g></svg>