<svg xmlns="http://www.w3.org/2000/svg" xmlns:xlink="http://www.w3.org/1999/xlink" width="500" zoomAndPan="magnify" viewBox="0 0 375 374.999991" height="500" preserveAspectRatio="xMidYMid meet" version="1.0"><defs><clipPath id="b64652153d"><path d="M 13.796875 13.796875 L 361.046875 13.796875 L 361.046875 361.046875 L 13.796875 361.046875 Z M 13.796875 13.796875 " clip-rule="nonzero"/></clipPath></defs><g clip-path="url(#b64652153d)"><path fill="#ffffff" d="M 349.472656 256.871094 L 25.371094 256.871094 L 25.371094 31.160156 C 25.371094 27.96875 27.96875 25.371094 31.160156 25.371094 L 343.683594 25.371094 C 346.875 25.371094 349.472656 27.96875 349.472656 31.160156 Z M 349.472656 285.808594 C 349.472656 289 346.875 291.597656 343.683594 291.597656 L 31.160156 291.597656 C 27.96875 291.597656 25.371094 289 25.371094 285.808594 L 25.371094 268.445312 L 349.472656 268.445312 Z M 225.945312 349.472656 L 148.898438 349.472656 L 162.789062 303.171875 L 212.054688 303.171875 Z M 343.683594 13.796875 L 31.160156 13.796875 C 21.585938 13.796875 13.796875 21.585938 13.796875 31.160156 L 13.796875 285.808594 C 13.796875 295.378906 21.585938 303.171875 31.160156 303.171875 L 150.707031 303.171875 L 136.816406 349.472656 L 117.972656 349.472656 L 117.972656 361.046875 L 256.871094 361.046875 L 256.871094 349.472656 L 238.027344 349.472656 L 224.136719 303.171875 L 343.683594 303.171875 C 353.253906 303.171875 361.046875 295.378906 361.046875 285.808594 L 361.046875 31.160156 C 361.046875 21.585938 353.253906 13.796875 343.683594 13.796875 " fill-opacity="1" fill-rule="nonzero"/></g><path fill="#ffffff" d="M 326.320312 227.933594 C 326.320312 231.125 323.726562 233.722656 320.535156 233.722656 L 146.910156 233.722656 C 143.71875 233.722656 141.121094 231.125 141.121094 227.933594 L 141.121094 106.398438 C 141.121094 103.207031 143.71875 100.609375 146.910156 100.609375 L 211.5625 100.609375 C 213.113281 100.609375 214.566406 101.210938 215.65625 102.300781 L 232.03125 118.675781 C 235.304688 121.949219 239.667969 123.757812 244.304688 123.757812 L 320.535156 123.757812 C 323.726562 123.757812 326.320312 126.355469 326.320312 129.546875 Z M 320.535156 112.183594 L 244.304688 112.183594 C 242.757812 112.183594 241.304688 111.585938 240.210938 110.492188 L 223.839844 94.121094 C 220.5625 90.84375 216.199219 89.035156 211.5625 89.035156 L 146.910156 89.035156 C 137.339844 89.035156 129.546875 96.824219 129.546875 106.398438 L 129.546875 227.933594 C 129.546875 237.503906 137.339844 245.296875 146.910156 245.296875 L 320.535156 245.296875 C 330.105469 245.296875 337.898438 237.503906 337.898438 227.933594 L 337.898438 129.546875 C 337.898438 119.976562 330.105469 112.183594 320.535156 112.183594 " fill-opacity="1" fill-rule="nonzero"/><path fill="#ffffff" d="M 194.902344 142.816406 L 161.878906 175.847656 L 194.902344 208.878906 L 203.09375 200.691406 L 178.242188 175.847656 L 203.09375 151.003906 L 194.902344 142.816406 " fill-opacity="1" fill-rule="nonzero"/><path fill="#ffffff" d="M 217.089844 201.96875 L 227.203125 207.597656 L 256.140625 155.511719 L 246.027344 149.882812 L 217.089844 201.96875 " fill-opacity="1" fill-rule="nonzero"/><path fill="#ffffff" d="M 264.351562 151.003906 L 289.203125 175.847656 L 264.351562 200.691406 L 272.542969 208.878906 L 305.566406 175.847656 L 272.542969 142.816406 L 264.351562 151.003906 " fill-opacity="1" fill-rule="nonzero"/><path fill="#ffffff" d="M 148.929688 48.523438 L 158.304688 70.382812 L 178.972656 78.949219 L 201.09375 70.109375 L 212.539062 81.554688 L 220.722656 73.367188 L 203.878906 56.527344 L 179.050781 66.449219 L 167.085938 61.492188 L 156.558594 36.945312 L 125.683594 36.945312 L 115.15625 61.492188 L 103.191406 66.449219 L 78.363281 56.527344 L 56.527344 78.363281 L 66.449219 103.191406 L 61.492188 115.15625 L 36.945312 125.683594 L 36.945312 156.558594 L 61.492188 167.085938 L 66.449219 179.050781 L 56.527344 203.878906 L 78.363281 225.714844 L 103.191406 215.796875 L 115.757812 220.996094 L 120.1875 210.304688 L 103.273438 203.292969 L 81.148438 212.136719 L 70.109375 201.09375 L 78.949219 178.972656 L 70.382812 158.304688 L 48.523438 148.929688 L 48.523438 133.316406 L 70.382812 123.941406 L 78.949219 103.273438 L 70.109375 81.148438 L 81.148438 70.109375 L 103.273438 78.949219 L 123.941406 70.382812 L 133.316406 48.523438 L 148.929688 48.523438 " fill-opacity="1" fill-rule="nonzero"/><path fill="#ffffff" d="M 120.546875 99.632812 L 115.398438 89.265625 C 95.566406 99.121094 83.246094 118.992188 83.246094 141.121094 C 83.246094 163.253906 95.566406 183.125 115.398438 192.976562 L 120.546875 182.609375 C 104.675781 174.726562 94.820312 158.832031 94.820312 141.121094 C 94.820312 123.414062 104.675781 107.519531 120.546875 99.632812 " fill-opacity="1" fill-rule="nonzero"/></svg>