<svg xmlns="http://www.w3.org/2000/svg" xmlns:xlink="http://www.w3.org/1999/xlink" width="500" zoomAndPan="magnify" viewBox="0 0 375 374.999991" height="500" preserveAspectRatio="xMidYMid meet" version="1.0"><defs><clipPath id="6bff3a9c0f"><path d="M 111 28.28125 L 165 28.28125 L 165 82 L 111 82 Z M 111 28.28125 " clip-rule="nonzero"/></clipPath><clipPath id="b7efeddf79"><path d="M 210 28.28125 L 264 28.28125 L 264 82 L 210 82 Z M 210 28.28125 " clip-rule="nonzero"/></clipPath></defs><path fill="#ffffff" d="M 115.113281 92.28125 C 115.113281 93.15625 115.070312 94.023438 114.984375 94.894531 C 114.902344 95.761719 114.773438 96.621094 114.601562 97.476562 C 114.433594 98.335938 114.222656 99.179688 113.96875 100.015625 C 113.714844 100.847656 113.421875 101.667969 113.085938 102.476562 C 112.753906 103.28125 112.382812 104.070312 111.96875 104.835938 C 111.558594 105.605469 111.113281 106.355469 110.628906 107.078125 C 110.144531 107.804688 109.625 108.503906 109.070312 109.179688 C 108.519531 109.851562 107.933594 110.5 107.316406 111.117188 C 106.699219 111.734375 106.054688 112.316406 105.382812 112.871094 C 104.707031 113.425781 104.007812 113.945312 103.28125 114.429688 C 102.558594 114.914062 101.8125 115.359375 101.042969 115.773438 C 100.273438 116.183594 99.484375 116.554688 98.679688 116.890625 C 97.875 117.222656 97.054688 117.515625 96.21875 117.769531 C 95.386719 118.023438 94.542969 118.234375 93.6875 118.40625 C 92.832031 118.574219 91.96875 118.703125 91.101562 118.789062 C 90.234375 118.875 89.363281 118.917969 88.492188 118.917969 C 87.621094 118.917969 86.75 118.875 85.882812 118.789062 C 85.015625 118.703125 84.152344 118.574219 83.296875 118.40625 C 82.445312 118.234375 81.597656 118.023438 80.765625 117.769531 C 79.929688 117.515625 79.109375 117.222656 78.304688 116.890625 C 77.5 116.554688 76.710938 116.183594 75.941406 115.773438 C 75.175781 115.359375 74.425781 114.914062 73.703125 114.429688 C 72.976562 113.945312 72.277344 113.425781 71.605469 112.871094 C 70.929688 112.316406 70.285156 111.734375 69.667969 111.117188 C 69.050781 110.5 68.464844 109.851562 67.914062 109.179688 C 67.359375 108.503906 66.839844 107.804688 66.355469 107.078125 C 65.871094 106.355469 65.425781 105.605469 65.015625 104.835938 C 64.601562 104.070312 64.230469 103.28125 63.898438 102.476562 C 63.5625 101.667969 63.269531 100.847656 63.015625 100.015625 C 62.761719 99.179688 62.550781 98.335938 62.382812 97.476562 C 62.210938 96.621094 62.085938 95.761719 62 94.894531 C 61.914062 94.023438 61.871094 93.15625 61.871094 92.28125 C 61.871094 91.410156 61.914062 90.539062 62 89.671875 C 62.085938 88.804688 62.210938 87.941406 62.382812 87.085938 C 62.550781 86.230469 62.761719 85.386719 63.015625 84.550781 C 63.269531 83.714844 63.5625 82.894531 63.898438 82.089844 C 64.230469 81.285156 64.601562 80.496094 65.015625 79.726562 C 65.425781 78.957031 65.871094 78.210938 66.355469 77.484375 C 66.839844 76.757812 67.359375 76.058594 67.914062 75.386719 C 68.464844 74.710938 69.050781 74.066406 69.667969 73.449219 C 70.285156 72.832031 70.929688 72.246094 71.605469 71.695312 C 72.277344 71.140625 72.976562 70.621094 73.703125 70.136719 C 74.425781 69.652344 75.175781 69.203125 75.941406 68.792969 C 76.710938 68.382812 77.5 68.007812 78.304688 67.675781 C 79.109375 67.339844 79.929688 67.046875 80.765625 66.792969 C 81.597656 66.542969 82.445312 66.328125 83.296875 66.160156 C 84.152344 65.988281 85.015625 65.863281 85.882812 65.777344 C 86.75 65.691406 87.621094 65.648438 88.492188 65.648438 C 89.363281 65.648438 90.234375 65.691406 91.101562 65.777344 C 91.96875 65.863281 92.832031 65.988281 93.6875 66.160156 C 94.542969 66.328125 95.386719 66.542969 96.21875 66.792969 C 97.054688 67.046875 97.875 67.339844 98.679688 67.675781 C 99.484375 68.007812 100.273438 68.382812 101.042969 68.792969 C 101.8125 69.203125 102.558594 69.652344 103.28125 70.136719 C 104.007812 70.621094 104.707031 71.140625 105.382812 71.695312 C 106.054688 72.246094 106.699219 72.832031 107.316406 73.449219 C 107.933594 74.066406 108.519531 74.710938 109.070312 75.386719 C 109.625 76.058594 110.144531 76.757812 110.628906 77.484375 C 111.113281 78.210938 111.558594 78.957031 111.96875 79.726562 C 112.382812 80.496094 112.753906 81.285156 113.085938 82.089844 C 113.421875 82.894531 113.714844 83.714844 113.96875 84.550781 C 114.222656 85.386719 114.433594 86.230469 114.601562 87.085938 C 114.773438 87.941406 114.902344 88.804688 114.984375 89.671875 C 115.070312 90.539062 115.113281 91.410156 115.113281 92.28125 Z M 115.113281 92.28125 " fill-opacity="1" fill-rule="nonzero"/><path fill="#ffffff" d="M 345.144531 230.0625 C 348.066406 180.050781 341.816406 147.425781 326.558594 133.085938 C 319.910156 126.832031 313.417969 125.765625 310.089844 125.691406 C 309.902344 125.679688 309.71875 125.660156 309.53125 125.660156 L 263.820312 125.660156 C 263.628906 125.660156 263.441406 125.679688 263.253906 125.691406 C 259.921875 125.765625 253.433594 126.835938 246.789062 133.082031 C 243.015625 136.628906 239.796875 141.296875 237.128906 147.066406 C 234.460938 141.296875 231.238281 136.628906 227.464844 133.085938 C 220.820312 126.832031 214.324219 125.765625 210.996094 125.691406 C 210.8125 125.679688 210.625 125.660156 210.4375 125.660156 L 164.726562 125.660156 C 164.535156 125.660156 164.347656 125.679688 164.160156 125.691406 C 160.832031 125.765625 154.339844 126.835938 147.695312 133.082031 C 143.921875 136.628906 140.703125 141.296875 138.035156 147.066406 C 135.367188 141.296875 132.144531 136.628906 128.371094 133.085938 C 121.726562 126.835938 115.230469 125.765625 111.902344 125.691406 C 111.71875 125.679688 111.535156 125.660156 111.34375 125.660156 L 65.636719 125.660156 C 65.445312 125.660156 65.257812 125.679688 65.070312 125.691406 C 61.742188 125.765625 55.25 126.835938 48.605469 133.082031 C 33.351562 147.421875 27.101562 180.050781 30.023438 230.0625 C 30.316406 235.097656 34.488281 238.980469 39.464844 238.980469 C 39.648438 238.980469 39.839844 238.976562 40.027344 238.964844 C 45.246094 238.660156 49.226562 234.179688 48.921875 228.957031 C 46.488281 187.359375 51.203125 165.1875 56.492188 154.179688 L 56.492188 206.550781 L 46.398438 330.363281 C 45.742188 338.417969 51.738281 345.480469 59.789062 346.136719 C 67.84375 346.792969 74.902344 340.800781 75.558594 332.742188 L 84.351562 224.917969 L 92.632812 224.917969 L 101.425781 332.742188 C 102.082031 340.800781 109.140625 346.792969 117.195312 346.136719 C 125.246094 345.480469 131.242188 338.417969 130.585938 330.363281 L 120.492188 206.550781 L 120.492188 154.183594 C 124.292969 162.089844 127.792969 175.761719 128.5625 198.261719 C 128.375 204.304688 128.375 210.707031 128.570312 217.476562 C 128.460938 221.128906 128.296875 224.949219 128.0625 228.953125 C 127.757812 234.175781 131.738281 238.65625 136.957031 238.960938 C 137.144531 238.972656 137.332031 238.980469 137.519531 238.980469 C 137.695312 238.980469 137.867188 238.964844 138.039062 238.953125 C 138.210938 238.964844 138.382812 238.980469 138.558594 238.980469 C 138.746094 238.980469 138.933594 238.972656 139.121094 238.960938 C 144.339844 238.65625 148.324219 234.175781 148.015625 228.953125 C 147.78125 224.949219 147.617188 221.132812 147.511719 217.480469 C 147.703125 210.707031 147.703125 204.304688 147.515625 198.261719 C 148.285156 175.761719 151.785156 162.085938 155.585938 154.179688 L 155.585938 206.550781 L 145.492188 330.359375 C 144.835938 338.417969 150.835938 345.480469 158.886719 346.136719 C 166.9375 346.792969 173.996094 340.796875 174.65625 332.738281 L 183.445312 224.917969 L 191.730469 224.917969 L 200.519531 332.738281 C 201.175781 340.800781 208.238281 346.792969 216.289062 346.136719 C 224.339844 345.480469 230.335938 338.417969 229.679688 330.359375 L 219.585938 206.546875 L 219.585938 154.183594 C 223.386719 162.089844 226.886719 175.761719 227.65625 198.261719 C 227.46875 204.304688 227.472656 210.707031 227.664062 217.476562 C 227.554688 221.128906 227.390625 224.949219 227.15625 228.953125 C 226.851562 234.175781 230.832031 238.65625 236.054688 238.960938 C 236.242188 238.972656 236.429688 238.976562 236.613281 238.976562 C 236.789062 238.976562 236.960938 238.960938 237.132812 238.953125 C 237.304688 238.960938 237.480469 238.976562 237.652344 238.976562 C 237.839844 238.976562 238.027344 238.972656 238.214844 238.960938 C 243.433594 238.65625 247.417969 234.175781 247.113281 228.953125 C 246.878906 224.949219 246.710938 221.128906 246.605469 217.476562 C 246.796875 210.707031 246.796875 204.300781 246.613281 198.257812 C 247.378906 175.757812 250.878906 162.085938 254.679688 154.179688 L 254.679688 206.550781 L 244.589844 330.359375 C 243.933594 338.417969 249.929688 345.476562 257.980469 346.136719 C 266.03125 346.792969 273.09375 340.796875 273.75 332.738281 L 282.539062 224.917969 L 290.824219 224.917969 L 299.613281 332.738281 C 300.269531 340.796875 307.332031 346.792969 315.382812 346.136719 C 323.433594 345.476562 329.429688 338.417969 328.773438 330.359375 L 318.683594 206.546875 L 318.683594 154.179688 C 323.972656 165.1875 328.683594 187.359375 326.25 228.953125 C 325.945312 234.175781 329.925781 238.65625 335.144531 238.960938 C 335.335938 238.972656 335.519531 238.976562 335.707031 238.976562 C 340.679688 238.980469 344.851562 235.097656 345.144531 230.0625 Z M 345.144531 230.0625 " fill-opacity="1" fill-rule="nonzero"/><path fill="#ffffff" d="M 313.296875 92.28125 C 313.296875 93.15625 313.257812 94.023438 313.171875 94.894531 C 313.085938 95.761719 312.957031 96.621094 312.789062 97.476562 C 312.617188 98.335938 312.40625 99.179688 312.152344 100.015625 C 311.898438 100.847656 311.605469 101.667969 311.273438 102.476562 C 310.9375 103.28125 310.566406 104.070312 310.15625 104.835938 C 309.746094 105.605469 309.296875 106.355469 308.8125 107.078125 C 308.328125 107.804688 307.808594 108.503906 307.257812 109.179688 C 306.703125 109.851562 306.117188 110.5 305.5 111.117188 C 304.886719 111.734375 304.238281 112.316406 303.566406 112.871094 C 302.890625 113.425781 302.191406 113.945312 301.46875 114.429688 C 300.742188 114.914062 299.996094 115.359375 299.226562 115.773438 C 298.457031 116.183594 297.671875 116.554688 296.863281 116.890625 C 296.058594 117.222656 295.238281 117.515625 294.40625 117.769531 C 293.570312 118.023438 292.726562 118.234375 291.871094 118.40625 C 291.015625 118.574219 290.152344 118.703125 289.285156 118.789062 C 288.417969 118.875 287.550781 118.917969 286.675781 118.917969 C 285.804688 118.917969 284.933594 118.875 284.066406 118.789062 C 283.199219 118.703125 282.339844 118.574219 281.484375 118.40625 C 280.628906 118.234375 279.785156 118.023438 278.949219 117.769531 C 278.113281 117.515625 277.292969 117.222656 276.488281 116.890625 C 275.683594 116.554688 274.894531 116.183594 274.128906 115.773438 C 273.359375 115.359375 272.613281 114.914062 271.886719 114.429688 C 271.160156 113.945312 270.460938 113.425781 269.789062 112.871094 C 269.113281 112.316406 268.46875 111.734375 267.851562 111.117188 C 267.234375 110.5 266.652344 109.851562 266.097656 109.179688 C 265.542969 108.503906 265.027344 107.804688 264.542969 107.078125 C 264.058594 106.355469 263.609375 105.605469 263.199219 104.835938 C 262.789062 104.070312 262.414062 103.28125 262.082031 102.476562 C 261.746094 101.667969 261.453125 100.847656 261.203125 100.015625 C 260.949219 99.179688 260.738281 98.335938 260.566406 97.476562 C 260.398438 96.621094 260.269531 95.761719 260.183594 94.894531 C 260.097656 94.023438 260.054688 93.15625 260.054688 92.28125 C 260.054688 91.410156 260.097656 90.539062 260.183594 89.671875 C 260.269531 88.804688 260.398438 87.941406 260.566406 87.085938 C 260.738281 86.230469 260.949219 85.386719 261.203125 84.550781 C 261.453125 83.714844 261.746094 82.894531 262.082031 82.089844 C 262.414062 81.285156 262.789062 80.496094 263.199219 79.726562 C 263.609375 78.957031 264.058594 78.210938 264.542969 77.484375 C 265.027344 76.757812 265.542969 76.058594 266.097656 75.386719 C 266.652344 74.710938 267.234375 74.066406 267.851562 73.449219 C 268.46875 72.832031 269.113281 72.246094 269.789062 71.695312 C 270.460938 71.140625 271.160156 70.621094 271.886719 70.136719 C 272.613281 69.652344 273.359375 69.203125 274.128906 68.792969 C 274.894531 68.382812 275.683594 68.007812 276.488281 67.675781 C 277.292969 67.339844 278.113281 67.046875 278.949219 66.792969 C 279.785156 66.542969 280.628906 66.328125 281.484375 66.160156 C 282.339844 65.988281 283.199219 65.863281 284.066406 65.777344 C 284.933594 65.691406 285.804688 65.648438 286.675781 65.648438 C 287.550781 65.648438 288.417969 65.691406 289.285156 65.777344 C 290.152344 65.863281 291.015625 65.988281 291.871094 66.160156 C 292.726562 66.328125 293.570312 66.542969 294.40625 66.792969 C 295.238281 67.046875 296.058594 67.339844 296.863281 67.675781 C 297.671875 68.007812 298.457031 68.382812 299.226562 68.792969 C 299.996094 69.203125 300.742188 69.652344 301.46875 70.136719 C 302.191406 70.621094 302.890625 71.140625 303.566406 71.695312 C 304.238281 72.246094 304.886719 72.832031 305.5 73.449219 C 306.117188 74.066406 306.703125 74.710938 307.257812 75.386719 C 307.808594 76.058594 308.328125 76.757812 308.8125 77.484375 C 309.296875 78.210938 309.746094 78.957031 310.15625 79.726562 C 310.566406 80.496094 310.9375 81.285156 311.273438 82.089844 C 311.605469 82.894531 311.898438 83.714844 312.152344 84.550781 C 312.40625 85.386719 312.617188 86.230469 312.789062 87.085938 C 312.957031 87.941406 313.085938 88.804688 313.171875 89.671875 C 313.257812 90.539062 313.296875 91.410156 313.296875 92.28125 Z M 313.296875 92.28125 " fill-opacity="1" fill-rule="nonzero"/><path fill="#ffffff" d="M 214.207031 92.28125 C 214.207031 93.15625 214.164062 94.023438 214.078125 94.894531 C 213.992188 95.761719 213.863281 96.621094 213.695312 97.476562 C 213.523438 98.335938 213.3125 99.179688 213.058594 100.015625 C 212.808594 100.847656 212.511719 101.667969 212.179688 102.476562 C 211.847656 103.28125 211.472656 104.070312 211.0625 104.835938 C 210.652344 105.605469 210.203125 106.355469 209.71875 107.078125 C 209.234375 107.804688 208.714844 108.503906 208.164062 109.179688 C 207.609375 109.851562 207.027344 110.5 206.410156 111.117188 C 205.792969 111.734375 205.148438 112.316406 204.472656 112.871094 C 203.800781 113.425781 203.101562 113.945312 202.375 114.429688 C 201.648438 114.914062 200.902344 115.359375 200.132812 115.773438 C 199.363281 116.183594 198.578125 116.554688 197.773438 116.890625 C 196.964844 117.222656 196.148438 117.515625 195.3125 117.769531 C 194.476562 118.023438 193.632812 118.234375 192.777344 118.40625 C 191.921875 118.574219 191.0625 118.703125 190.195312 118.789062 C 189.328125 118.875 188.457031 118.917969 187.585938 118.917969 C 186.710938 118.917969 185.84375 118.875 184.976562 118.789062 C 184.109375 118.703125 183.246094 118.574219 182.390625 118.40625 C 181.535156 118.234375 180.691406 118.023438 179.855469 117.769531 C 179.023438 117.515625 178.203125 117.222656 177.398438 116.890625 C 176.589844 116.554688 175.804688 116.183594 175.035156 115.773438 C 174.265625 115.359375 173.519531 114.914062 172.792969 114.429688 C 172.070312 113.945312 171.371094 113.425781 170.695312 112.871094 C 170.023438 112.316406 169.375 111.734375 168.761719 111.117188 C 168.144531 110.5 167.558594 109.851562 167.003906 109.179688 C 166.453125 108.503906 165.933594 107.804688 165.449219 107.078125 C 164.964844 106.355469 164.515625 105.605469 164.105469 104.835938 C 163.695312 104.070312 163.324219 103.28125 162.988281 102.476562 C 162.65625 101.667969 162.363281 100.847656 162.109375 100.015625 C 161.855469 99.179688 161.644531 98.335938 161.472656 97.476562 C 161.304688 96.621094 161.175781 95.761719 161.089844 94.894531 C 161.003906 94.023438 160.960938 93.15625 160.960938 92.28125 C 160.960938 91.410156 161.003906 90.539062 161.089844 89.671875 C 161.175781 88.804688 161.304688 87.941406 161.472656 87.085938 C 161.644531 86.230469 161.855469 85.386719 162.109375 84.550781 C 162.363281 83.714844 162.65625 82.894531 162.988281 82.089844 C 163.324219 81.285156 163.695312 80.496094 164.105469 79.726562 C 164.515625 78.957031 164.964844 78.210938 165.449219 77.484375 C 165.933594 76.757812 166.453125 76.058594 167.003906 75.386719 C 167.558594 74.710938 168.144531 74.066406 168.761719 73.449219 C 169.375 72.832031 170.023438 72.246094 170.695312 71.695312 C 171.371094 71.140625 172.070312 70.621094 172.792969 70.136719 C 173.519531 69.652344 174.265625 69.203125 175.035156 68.792969 C 175.804688 68.382812 176.589844 68.007812 177.398438 67.675781 C 178.203125 67.339844 179.023438 67.046875 179.855469 66.792969 C 180.691406 66.542969 181.535156 66.328125 182.390625 66.160156 C 183.246094 65.988281 184.109375 65.863281 184.976562 65.777344 C 185.84375 65.691406 186.710938 65.648438 187.585938 65.648438 C 188.457031 65.648438 189.328125 65.691406 190.195312 65.777344 C 191.0625 65.863281 191.921875 65.988281 192.777344 66.160156 C 193.632812 66.328125 194.476562 66.542969 195.3125 66.792969 C 196.148438 67.046875 196.96875 67.339844 197.773438 67.675781 C 198.578125 68.007812 199.363281 68.382812 200.132812 68.792969 C 200.902344 69.203125 201.648438 69.652344 202.375 70.136719 C 203.101562 70.621094 203.800781 71.140625 204.472656 71.695312 C 205.148438 72.246094 205.792969 72.832031 206.410156 73.449219 C 207.027344 74.066406 207.609375 74.710938 208.164062 75.386719 C 208.714844 76.058594 209.234375 76.757812 209.71875 77.484375 C 210.203125 78.210938 210.652344 78.957031 211.0625 79.726562 C 211.472656 80.496094 211.847656 81.285156 212.179688 82.089844 C 212.511719 82.894531 212.808594 83.714844 213.058594 84.550781 C 213.3125 85.386719 213.523438 86.230469 213.695312 87.085938 C 213.863281 87.941406 213.992188 88.804688 214.078125 89.671875 C 214.164062 90.539062 214.207031 91.410156 214.207031 92.28125 Z M 214.207031 92.28125 " fill-opacity="1" fill-rule="nonzero"/><g clip-path="url(#6bff3a9c0f)"><path fill="#ffffff" d="M 164.660156 55.191406 C 164.660156 56.0625 164.617188 56.933594 164.53125 57.800781 C 164.445312 58.671875 164.320312 59.53125 164.148438 60.386719 C 163.980469 61.242188 163.765625 62.089844 163.515625 62.921875 C 163.261719 63.757812 162.96875 64.578125 162.632812 65.382812 C 162.300781 66.191406 161.929688 66.976562 161.515625 67.746094 C 161.105469 68.515625 160.65625 69.261719 160.171875 69.988281 C 159.6875 70.714844 159.171875 71.414062 158.617188 72.089844 C 158.0625 72.761719 157.480469 73.40625 156.863281 74.023438 C 156.246094 74.640625 155.601562 75.226562 154.925781 75.78125 C 154.253906 76.332031 153.554688 76.851562 152.828125 77.335938 C 152.105469 77.820312 151.355469 78.269531 150.585938 78.679688 C 149.820312 79.09375 149.03125 79.464844 148.226562 79.796875 C 147.421875 80.132812 146.601562 80.425781 145.765625 80.679688 C 144.933594 80.933594 144.085938 81.144531 143.230469 81.3125 C 142.375 81.484375 141.515625 81.613281 140.648438 81.699219 C 139.78125 81.785156 138.910156 81.824219 138.039062 81.824219 C 137.167969 81.824219 136.296875 81.785156 135.429688 81.699219 C 134.5625 81.613281 133.699219 81.484375 132.84375 81.3125 C 131.988281 81.144531 131.144531 80.933594 130.308594 80.679688 C 129.476562 80.425781 128.65625 80.132812 127.851562 79.796875 C 127.046875 79.464844 126.257812 79.09375 125.488281 78.679688 C 124.71875 78.269531 123.972656 77.820312 123.25 77.335938 C 122.523438 76.851562 121.824219 76.332031 121.148438 75.78125 C 120.476562 75.226562 119.832031 74.640625 119.214844 74.023438 C 118.597656 73.40625 118.011719 72.761719 117.460938 72.089844 C 116.90625 71.414062 116.386719 70.714844 115.902344 69.988281 C 115.417969 69.261719 114.972656 68.515625 114.558594 67.746094 C 114.148438 66.976562 113.777344 66.191406 113.441406 65.382812 C 113.109375 64.578125 112.816406 63.757812 112.5625 62.921875 C 112.308594 62.089844 112.097656 61.242188 111.929688 60.386719 C 111.757812 59.53125 111.628906 58.671875 111.542969 57.800781 C 111.460938 56.933594 111.417969 56.0625 111.417969 55.191406 C 111.417969 54.320312 111.460938 53.449219 111.542969 52.582031 C 111.628906 51.710938 111.757812 50.851562 111.929688 49.996094 C 112.097656 49.140625 112.308594 48.292969 112.5625 47.460938 C 112.816406 46.625 113.109375 45.804688 113.441406 45 C 113.777344 44.191406 114.148438 43.40625 114.558594 42.636719 C 114.972656 41.867188 115.417969 41.121094 115.902344 40.394531 C 116.386719 39.667969 116.90625 38.96875 117.460938 38.292969 C 118.011719 37.621094 118.597656 36.976562 119.214844 36.359375 C 119.832031 35.742188 120.476562 35.15625 121.148438 34.601562 C 121.824219 34.050781 122.523438 33.53125 123.25 33.046875 C 123.972656 32.5625 124.71875 32.113281 125.488281 31.703125 C 126.257812 31.289062 127.046875 30.917969 127.851562 30.585938 C 128.65625 30.25 129.476562 29.957031 130.308594 29.703125 C 131.144531 29.449219 131.988281 29.238281 132.84375 29.070312 C 133.699219 28.898438 134.5625 28.769531 135.429688 28.683594 C 136.296875 28.597656 137.167969 28.558594 138.039062 28.558594 C 138.910156 28.558594 139.78125 28.597656 140.648438 28.683594 C 141.515625 28.769531 142.375 28.898438 143.230469 29.070312 C 144.085938 29.238281 144.933594 29.449219 145.765625 29.703125 C 146.601562 29.957031 147.421875 30.25 148.226562 30.585938 C 149.03125 30.917969 149.820312 31.289062 150.585938 31.703125 C 151.355469 32.113281 152.105469 32.5625 152.828125 33.046875 C 153.554688 33.53125 154.253906 34.050781 154.925781 34.601562 C 155.601562 35.15625 156.246094 35.742188 156.863281 36.359375 C 157.480469 36.976562 158.0625 37.621094 158.617188 38.292969 C 159.171875 38.96875 159.6875 39.667969 160.171875 40.394531 C 160.65625 41.121094 161.105469 41.867188 161.515625 42.636719 C 161.929688 43.40625 162.300781 44.191406 162.632812 45 C 162.96875 45.804688 163.261719 46.625 163.515625 47.460938 C 163.765625 48.292969 163.980469 49.140625 164.148438 49.996094 C 164.320312 50.851562 164.445312 51.710938 164.53125 52.582031 C 164.617188 53.449219 164.660156 54.320312 164.660156 55.191406 Z M 164.660156 55.191406 " fill-opacity="1" fill-rule="nonzero"/></g><g clip-path="url(#b7efeddf79)"><path fill="#ffffff" d="M 263.753906 55.191406 C 263.753906 56.0625 263.710938 56.933594 263.625 57.800781 C 263.539062 58.671875 263.410156 59.53125 263.242188 60.386719 C 263.070312 61.242188 262.859375 62.089844 262.605469 62.921875 C 262.351562 63.757812 262.058594 64.578125 261.726562 65.382812 C 261.390625 66.191406 261.019531 66.976562 260.609375 67.746094 C 260.199219 68.515625 259.75 69.261719 259.265625 69.988281 C 258.78125 70.714844 258.261719 71.414062 257.710938 72.089844 C 257.15625 72.761719 256.570312 73.40625 255.957031 74.023438 C 255.339844 74.640625 254.695312 75.226562 254.019531 75.78125 C 253.34375 76.332031 252.644531 76.851562 251.921875 77.335938 C 251.195312 77.820312 250.449219 78.269531 249.679688 78.679688 C 248.910156 79.09375 248.125 79.464844 247.320312 79.796875 C 246.511719 80.132812 245.691406 80.425781 244.859375 80.679688 C 244.023438 80.933594 243.179688 81.144531 242.324219 81.3125 C 241.46875 81.484375 240.609375 81.613281 239.738281 81.699219 C 238.871094 81.785156 238.003906 81.824219 237.128906 81.824219 C 236.257812 81.824219 235.390625 81.785156 234.519531 81.699219 C 233.652344 81.613281 232.792969 81.484375 231.9375 81.3125 C 231.082031 81.144531 230.238281 80.933594 229.402344 80.679688 C 228.570312 80.425781 227.75 80.132812 226.941406 79.796875 C 226.136719 79.464844 225.351562 79.09375 224.582031 78.679688 C 223.8125 78.269531 223.066406 77.820312 222.339844 77.335938 C 221.617188 76.851562 220.917969 76.332031 220.242188 75.78125 C 219.566406 75.226562 218.921875 74.640625 218.304688 74.023438 C 217.691406 73.40625 217.105469 72.761719 216.550781 72.089844 C 216 71.414062 215.480469 70.714844 214.996094 69.988281 C 214.511719 69.261719 214.0625 68.515625 213.652344 67.746094 C 213.242188 66.976562 212.867188 66.191406 212.535156 65.382812 C 212.203125 64.578125 211.910156 63.757812 211.65625 62.921875 C 211.402344 62.089844 211.191406 61.242188 211.019531 60.386719 C 210.851562 59.53125 210.722656 58.671875 210.636719 57.800781 C 210.550781 56.933594 210.507812 56.0625 210.507812 55.191406 C 210.507812 54.320312 210.550781 53.449219 210.636719 52.582031 C 210.722656 51.710938 210.851562 50.851562 211.019531 49.996094 C 211.191406 49.140625 211.402344 48.292969 211.65625 47.460938 C 211.910156 46.625 212.203125 45.804688 212.535156 45 C 212.867188 44.191406 213.242188 43.40625 213.652344 42.636719 C 214.0625 41.867188 214.511719 41.121094 214.996094 40.394531 C 215.480469 39.667969 216 38.96875 216.550781 38.292969 C 217.105469 37.621094 217.691406 36.976562 218.304688 36.359375 C 218.921875 35.742188 219.566406 35.15625 220.242188 34.601562 C 220.917969 34.050781 221.617188 33.53125 222.339844 33.046875 C 223.066406 32.5625 223.8125 32.113281 224.582031 31.703125 C 225.351562 31.289062 226.136719 30.917969 226.941406 30.585938 C 227.75 30.25 228.570312 29.957031 229.402344 29.703125 C 230.238281 29.449219 231.082031 29.238281 231.9375 29.070312 C 232.792969 28.898438 233.652344 28.769531 234.519531 28.683594 C 235.390625 28.597656 236.257812 28.558594 237.128906 28.558594 C 238.003906 28.558594 238.871094 28.597656 239.738281 28.683594 C 240.609375 28.769531 241.46875 28.898438 242.324219 29.070312 C 243.179688 29.238281 244.023438 29.449219 244.859375 29.703125 C 245.691406 29.957031 246.511719 30.25 247.320312 30.585938 C 248.125 30.917969 248.910156 31.289062 249.679688 31.703125 C 250.449219 32.113281 251.195312 32.5625 251.921875 33.046875 C 252.644531 33.53125 253.34375 34.050781 254.019531 34.601562 C 254.695312 35.15625 255.339844 35.742188 255.957031 36.359375 C 256.570312 36.976562 257.15625 37.621094 257.710938 38.292969 C 258.261719 38.96875 258.78125 39.667969 259.265625 40.394531 C 259.75 41.121094 260.199219 41.867188 260.609375 42.636719 C 261.019531 43.40625 261.390625 44.191406 261.726562 45 C 262.058594 45.804688 262.351562 46.625 262.605469 47.460938 C 262.859375 48.292969 263.070312 49.140625 263.242188 49.996094 C 263.410156 50.851562 263.539062 51.710938 263.625 52.582031 C 263.710938 53.449219 263.753906 54.320312 263.753906 55.191406 Z M 263.753906 55.191406 " fill-opacity="1" fill-rule="nonzero"/></g></svg>