<svg xmlns="http://www.w3.org/2000/svg" xmlns:xlink="http://www.w3.org/1999/xlink" width="500" zoomAndPan="magnify" viewBox="0 0 375 374.999991" height="500" preserveAspectRatio="xMidYMid meet" version="1.0"><defs><clipPath id="82b7fd66eb"><path d="M 24 36 L 351 36 L 351 362.328125 L 24 362.328125 Z M 24 36 " clip-rule="nonzero"/></clipPath><clipPath id="806cf2cba6"><path d="M 12.828125 175 L 362.328125 175 L 362.328125 206 L 12.828125 206 Z M 12.828125 175 " clip-rule="nonzero"/></clipPath><clipPath id="606c638322"><path d="M 169 12.828125 L 206 12.828125 L 206 146 L 169 146 Z M 169 12.828125 " clip-rule="nonzero"/></clipPath></defs><g clip-path="url(#82b7fd66eb)"><path fill="#ffffff" d="M 317.898438 183.554688 L 291.09375 118.847656 C 282.019531 109.769531 277.4375 105.1875 268.363281 96.113281 L 270.585938 52.546875 L 232.882812 36.933594 L 203.652344 69.308594 L 171.503906 69.308594 L 142.273438 36.933594 L 104.570312 52.546875 L 106.796875 96.113281 L 84.0625 118.847656 L 57.257812 183.554688 L 57.257812 215.703125 L 24.878906 244.9375 L 40.496094 282.636719 L 84.0625 280.410156 L 106.792969 303.144531 L 104.570312 346.710938 L 142.273438 362.328125 L 171.503906 329.949219 L 203.652344 329.949219 L 232.882812 362.328125 L 270.585938 346.710938 L 268.359375 303.148438 C 277.433594 294.070312 282.019531 289.488281 291.09375 280.414062 L 334.65625 282.636719 L 350.277344 244.9375 L 317.898438 215.703125 Z M 187.578125 277.964844 C 186.296875 277.964844 185.015625 277.933594 183.734375 277.871094 C 182.453125 277.808594 181.175781 277.714844 179.898438 277.589844 C 178.625 277.464844 177.351562 277.304688 176.085938 277.117188 C 174.816406 276.929688 173.554688 276.710938 172.296875 276.460938 C 171.039062 276.210938 169.789062 275.929688 168.542969 275.617188 C 167.300781 275.308594 166.066406 274.964844 164.839844 274.59375 C 163.613281 274.222656 162.394531 273.820312 161.1875 273.386719 C 159.980469 272.953125 158.785156 272.492188 157.601562 272.003906 C 156.414062 271.511719 155.246094 270.992188 154.085938 270.445312 C 152.925781 269.898438 151.78125 269.320312 150.652344 268.714844 C 149.519531 268.113281 148.40625 267.480469 147.304688 266.820312 C 146.207031 266.164062 145.121094 265.476562 144.058594 264.765625 C 142.992188 264.050781 141.941406 263.3125 140.914062 262.550781 C 139.882812 261.785156 138.875 260.996094 137.882812 260.183594 C 136.890625 259.371094 135.921875 258.535156 134.972656 257.671875 C 134.019531 256.8125 133.09375 255.929688 132.1875 255.023438 C 131.28125 254.117188 130.394531 253.1875 129.535156 252.238281 C 128.675781 251.289062 127.835938 250.316406 127.023438 249.324219 C 126.210938 248.335938 125.421875 247.324219 124.65625 246.292969 C 123.894531 245.265625 123.15625 244.21875 122.445312 243.152344 C 121.730469 242.085938 121.046875 241.003906 120.386719 239.902344 C 119.726562 238.804688 119.097656 237.6875 118.492188 236.558594 C 117.886719 235.425781 117.3125 234.28125 116.761719 233.125 C 116.214844 231.964844 115.695312 230.792969 115.207031 229.609375 C 114.714844 228.421875 114.253906 227.226562 113.820312 226.019531 C 113.390625 224.8125 112.988281 223.597656 112.617188 222.371094 C 112.242188 221.144531 111.902344 219.90625 111.589844 218.664062 C 111.277344 217.421875 110.996094 216.171875 110.746094 214.914062 C 110.496094 213.65625 110.277344 212.390625 110.089844 211.125 C 109.902344 209.855469 109.746094 208.585938 109.621094 207.308594 C 109.492188 206.03125 109.398438 204.753906 109.335938 203.472656 C 109.273438 202.191406 109.242188 200.910156 109.242188 199.628906 C 109.242188 198.347656 109.273438 197.066406 109.335938 195.785156 C 109.398438 194.503906 109.492188 193.226562 109.621094 191.953125 C 109.746094 190.675781 109.902344 189.402344 110.089844 188.136719 C 110.277344 186.867188 110.496094 185.605469 110.746094 184.347656 C 110.996094 183.089844 111.277344 181.839844 111.589844 180.597656 C 111.902344 179.351562 112.242188 178.117188 112.617188 176.890625 C 112.988281 175.664062 113.390625 174.445312 113.820312 173.238281 C 114.253906 172.03125 114.714844 170.835938 115.207031 169.652344 C 115.695312 168.46875 116.214844 167.296875 116.761719 166.136719 C 117.3125 164.976562 117.886719 163.832031 118.492188 162.703125 C 119.097656 161.570312 119.726562 160.457031 120.386719 159.355469 C 121.046875 158.257812 121.730469 157.175781 122.445312 156.109375 C 123.15625 155.042969 123.894531 153.996094 124.65625 152.964844 C 125.421875 151.933594 126.210938 150.925781 127.023438 149.933594 C 127.835938 148.941406 128.675781 147.972656 129.535156 147.023438 C 130.394531 146.074219 131.28125 145.144531 132.1875 144.238281 C 133.09375 143.332031 134.019531 142.449219 134.972656 141.585938 C 135.921875 140.726562 136.890625 139.886719 137.882812 139.074219 C 138.875 138.261719 139.882812 137.472656 140.914062 136.710938 C 141.941406 135.945312 142.992188 135.207031 144.058594 134.496094 C 145.121094 133.785156 146.207031 133.097656 147.304688 132.4375 C 148.40625 131.78125 149.519531 131.148438 150.652344 130.542969 C 151.78125 129.9375 152.925781 129.363281 154.085938 128.816406 C 155.246094 128.265625 156.414062 127.746094 157.601562 127.257812 C 158.785156 126.765625 159.980469 126.304688 161.1875 125.875 C 162.394531 125.441406 163.613281 125.039062 164.839844 124.667969 C 166.066406 124.292969 167.300781 123.953125 168.542969 123.640625 C 169.789062 123.328125 171.039062 123.050781 172.296875 122.800781 C 173.554688 122.550781 174.816406 122.328125 176.085938 122.140625 C 177.351562 121.953125 178.625 121.796875 179.898438 121.671875 C 181.175781 121.546875 182.453125 121.449219 183.734375 121.386719 C 185.015625 121.324219 186.296875 121.292969 187.578125 121.292969 C 188.859375 121.292969 190.140625 121.324219 191.421875 121.386719 C 192.703125 121.449219 193.980469 121.546875 195.257812 121.671875 C 196.53125 121.796875 197.804688 121.953125 199.074219 122.140625 C 200.339844 122.328125 201.605469 122.550781 202.859375 122.800781 C 204.117188 123.050781 205.367188 123.328125 206.613281 123.640625 C 207.855469 123.953125 209.089844 124.292969 210.316406 124.667969 C 211.546875 125.039062 212.761719 125.441406 213.96875 125.875 C 215.175781 126.304688 216.371094 126.765625 217.554688 127.257812 C 218.742188 127.746094 219.914062 128.265625 221.070312 128.816406 C 222.230469 129.363281 223.375 129.9375 224.503906 130.542969 C 225.636719 131.148438 226.75 131.78125 227.851562 132.4375 C 228.949219 133.097656 230.035156 133.785156 231.097656 134.496094 C 232.164062 135.207031 233.214844 135.945312 234.242188 136.710938 C 235.273438 137.472656 236.285156 138.261719 237.273438 139.074219 C 238.265625 139.886719 239.234375 140.726562 240.1875 141.585938 C 241.136719 142.449219 242.0625 143.332031 242.96875 144.238281 C 243.875 145.144531 244.761719 146.074219 245.621094 147.023438 C 246.484375 147.972656 247.320312 148.941406 248.132812 149.933594 C 248.945312 150.925781 249.734375 151.933594 250.5 152.964844 C 251.261719 153.996094 252 155.042969 252.710938 156.109375 C 253.425781 157.175781 254.109375 158.257812 254.769531 159.355469 C 255.429688 160.457031 256.058594 161.570312 256.664062 162.703125 C 257.269531 163.832031 257.84375 164.976562 258.394531 166.136719 C 258.941406 167.296875 259.460938 168.46875 259.953125 169.652344 C 260.441406 170.835938 260.902344 172.03125 261.335938 173.238281 C 261.765625 174.445312 262.167969 175.664062 262.542969 176.890625 C 262.914062 178.117188 263.253906 179.351562 263.566406 180.597656 C 263.878906 181.839844 264.160156 183.089844 264.410156 184.347656 C 264.660156 185.605469 264.878906 186.867188 265.066406 188.136719 C 265.253906 189.402344 265.410156 190.675781 265.539062 191.953125 C 265.664062 193.226562 265.757812 194.503906 265.820312 195.785156 C 265.882812 197.066406 265.914062 198.347656 265.914062 199.628906 C 265.914062 200.910156 265.882812 202.191406 265.820312 203.472656 C 265.757812 204.753906 265.664062 206.03125 265.539062 207.308594 C 265.410156 208.585938 265.253906 209.855469 265.066406 211.125 C 264.878906 212.390625 264.660156 213.65625 264.410156 214.914062 C 264.160156 216.171875 263.878906 217.421875 263.566406 218.664062 C 263.253906 219.90625 262.914062 221.144531 262.542969 222.371094 C 262.167969 223.597656 261.765625 224.8125 261.335938 226.019531 C 260.902344 227.226562 260.441406 228.421875 259.953125 229.609375 C 259.460938 230.792969 258.941406 231.964844 258.394531 233.125 C 257.84375 234.28125 257.269531 235.425781 256.664062 236.558594 C 256.058594 237.6875 255.429688 238.804688 254.769531 239.902344 C 254.109375 241.003906 253.425781 242.085938 252.710938 243.152344 C 252 244.21875 251.261719 245.265625 250.5 246.292969 C 249.734375 247.324219 248.945312 248.335938 248.132812 249.324219 C 247.320312 250.316406 246.484375 251.289062 245.621094 252.238281 C 244.761719 253.1875 243.875 254.117188 242.96875 255.023438 C 242.0625 255.929688 241.136719 256.8125 240.1875 257.671875 C 239.234375 258.535156 238.265625 259.371094 237.273438 260.183594 C 236.285156 260.996094 235.273438 261.785156 234.242188 262.550781 C 233.214844 263.3125 232.164062 264.050781 231.097656 264.765625 C 230.035156 265.476562 228.949219 266.160156 227.851562 266.820312 C 226.75 267.480469 225.636719 268.113281 224.503906 268.714844 C 223.375 269.320312 222.230469 269.898438 221.070312 270.445312 C 219.914062 270.992188 218.742188 271.511719 217.554688 272.003906 C 216.371094 272.492188 215.175781 272.953125 213.96875 273.386719 C 212.761719 273.820312 211.546875 274.222656 210.316406 274.59375 C 209.089844 274.964844 207.855469 275.308594 206.613281 275.617188 C 205.367188 275.929688 204.117188 276.210938 202.859375 276.460938 C 201.605469 276.710938 200.339844 276.929688 199.074219 277.117188 C 197.804688 277.304688 196.53125 277.464844 195.257812 277.589844 C 193.980469 277.714844 192.703125 277.808594 191.421875 277.871094 C 190.140625 277.933594 188.859375 277.964844 187.578125 277.964844 Z M 187.578125 277.964844 " fill-opacity="1" fill-rule="nonzero"/></g><path fill="#ecedda" d="M 181.550781 296.042969 L 193.605469 296.042969 L 193.605469 308.09375 L 181.550781 308.09375 Z M 181.550781 296.042969 " fill-opacity="1" fill-rule="nonzero"/><path fill="#ecedda" d="M 251.492188 272.066406 L 260.015625 263.542969 L 268.535156 272.066406 L 260.015625 280.589844 Z M 251.492188 272.066406 " fill-opacity="1" fill-rule="nonzero"/><path fill="#ecedda" d="M 106.621094 272.066406 L 115.144531 263.542969 L 123.664062 272.066406 L 115.144531 280.589844 Z M 106.621094 272.066406 " fill-opacity="1" fill-rule="nonzero"/><path fill="#ffeb5b" d="M 205.074219 26.371094 C 216.042969 27.605469 226.742188 30.023438 237.171875 33.625 L 237.179688 33.625 L 265.914062 47.117188 C 268.660156 48.777344 271.347656 50.53125 273.984375 52.367188 C 276.617188 54.203125 279.1875 56.121094 281.699219 58.121094 C 284.207031 60.125 286.652344 62.203125 289.027344 64.363281 C 291.40625 66.519531 293.710938 68.75 295.941406 71.058594 C 298.175781 73.363281 300.332031 75.738281 302.414062 78.183594 C 304.496094 80.628906 306.496094 83.136719 308.417969 85.710938 C 310.335938 88.28125 312.171875 90.914062 313.921875 93.605469 C 315.675781 96.292969 317.339844 99.039062 318.914062 101.835938 C 320.488281 104.632812 321.972656 107.476562 323.363281 110.371094 C 324.757812 113.261719 326.054688 116.199219 327.261719 119.171875 C 328.464844 122.148438 329.574219 125.160156 330.585938 128.207031 C 331.59375 131.253906 332.507812 134.332031 333.320312 137.4375 C 334.136719 140.542969 334.847656 143.667969 335.460938 146.820312 C 336.074219 149.972656 336.585938 153.140625 336.996094 156.324219 C 337.40625 159.507812 337.714844 162.703125 337.917969 165.90625 C 338.125 169.109375 338.226562 172.316406 338.226562 175.527344 L 338.226562 187.578125 L 36.933594 187.578125 L 36.933594 175.527344 C 36.929688 172.316406 37.03125 169.109375 37.238281 165.90625 C 37.441406 162.703125 37.75 159.507812 38.160156 156.324219 C 38.570312 153.140625 39.082031 149.972656 39.695312 146.820312 C 40.308594 143.667969 41.019531 140.542969 41.835938 137.4375 C 42.648438 134.332031 43.5625 131.253906 44.574219 128.207031 C 45.582031 125.160156 46.691406 122.148438 47.894531 119.171875 C 49.101562 116.199219 50.398438 113.261719 51.792969 110.371094 C 53.183594 107.476562 54.667969 104.632812 56.242188 101.835938 C 57.820312 99.039062 59.480469 96.292969 61.234375 93.605469 C 62.984375 90.914062 64.820312 88.28125 66.738281 85.710938 C 68.660156 83.136719 70.660156 80.628906 72.742188 78.183594 C 74.824219 75.738281 76.980469 73.363281 79.214844 71.058594 C 81.445312 68.75 83.753906 66.519531 86.128906 64.363281 C 88.503906 62.203125 90.949219 60.125 93.460938 58.121094 C 95.96875 56.121094 98.539062 54.203125 101.175781 52.367188 C 103.808594 50.53125 106.496094 48.777344 109.242188 47.117188 L 137.976562 33.625 L 137.984375 33.625 C 148.417969 30.023438 159.113281 27.605469 170.082031 26.371094 Z M 205.074219 26.371094 " fill-opacity="1" fill-rule="nonzero"/><g clip-path="url(#806cf2cba6)"><path fill="#e2b808" d="M 27.894531 175.527344 L 347.261719 175.527344 C 348.253906 175.527344 349.234375 175.625 350.203125 175.816406 C 351.171875 176.007812 352.113281 176.292969 353.027344 176.671875 C 353.941406 177.050781 354.8125 177.515625 355.632812 178.066406 C 356.457031 178.613281 357.214844 179.238281 357.914062 179.9375 C 358.617188 180.636719 359.238281 181.398438 359.789062 182.222656 C 360.339844 183.042969 360.804688 183.914062 361.179688 184.828125 C 361.558594 185.738281 361.847656 186.683594 362.039062 187.652344 C 362.230469 188.621094 362.328125 189.601562 362.328125 190.589844 C 362.328125 191.582031 362.230469 192.558594 362.039062 193.53125 C 361.847656 194.5 361.558594 195.441406 361.179688 196.355469 C 360.804688 197.269531 360.339844 198.136719 359.789062 198.960938 C 359.238281 199.78125 358.617188 200.542969 357.914062 201.242188 C 357.214844 201.941406 356.457031 202.566406 355.632812 203.117188 C 354.8125 203.667969 353.941406 204.128906 353.027344 204.507812 C 352.113281 204.886719 351.171875 205.171875 350.203125 205.367188 C 349.234375 205.558594 348.253906 205.65625 347.261719 205.65625 L 27.894531 205.65625 C 26.902344 205.65625 25.925781 205.558594 24.953125 205.367188 C 23.984375 205.171875 23.042969 204.886719 22.128906 204.507812 C 21.214844 204.128906 20.347656 203.667969 19.523438 203.117188 C 18.699219 202.566406 17.941406 201.941406 17.242188 201.242188 C 16.542969 200.542969 15.917969 199.78125 15.367188 198.960938 C 14.816406 198.136719 14.355469 197.269531 13.976562 196.355469 C 13.597656 195.441406 13.3125 194.5 13.117188 193.53125 C 12.925781 192.558594 12.828125 191.582031 12.828125 190.589844 C 12.828125 189.601562 12.925781 188.621094 13.117188 187.652344 C 13.3125 186.683594 13.597656 185.738281 13.976562 184.828125 C 14.355469 183.914062 14.816406 183.042969 15.367188 182.222656 C 15.917969 181.398438 16.542969 180.636719 17.242188 179.9375 C 17.941406 179.238281 18.699219 178.613281 19.523438 178.066406 C 20.347656 177.515625 21.214844 177.050781 22.128906 176.671875 C 23.042969 176.292969 23.984375 176.007812 24.953125 175.816406 C 25.925781 175.625 26.902344 175.527344 27.894531 175.527344 Z M 27.894531 175.527344 " fill-opacity="1" fill-rule="nonzero"/></g><g clip-path="url(#606c638322)"><path fill="#e2b808" d="M 187.578125 12.828125 C 188.171875 12.828125 188.761719 12.855469 189.351562 12.914062 C 189.9375 12.972656 190.523438 13.058594 191.105469 13.175781 C 191.6875 13.292969 192.257812 13.433594 192.824219 13.605469 C 193.390625 13.777344 193.949219 13.976562 194.496094 14.203125 C 195.042969 14.429688 195.578125 14.683594 196.101562 14.964844 C 196.621094 15.242188 197.128906 15.546875 197.621094 15.875 C 198.113281 16.203125 198.589844 16.554688 199.046875 16.933594 C 199.503906 17.308594 199.941406 17.703125 200.359375 18.125 C 200.78125 18.542969 201.175781 18.980469 201.550781 19.4375 C 201.929688 19.894531 202.28125 20.371094 202.609375 20.863281 C 202.9375 21.355469 203.242188 21.863281 203.519531 22.382812 C 203.800781 22.90625 204.054688 23.441406 204.28125 23.988281 C 204.507812 24.535156 204.707031 25.089844 204.878906 25.660156 C 205.050781 26.226562 205.191406 26.796875 205.308594 27.378906 C 205.425781 27.960938 205.511719 28.542969 205.570312 29.132812 C 205.625 29.722656 205.65625 30.3125 205.65625 30.90625 L 205.65625 127.320312 C 205.65625 127.910156 205.625 128.503906 205.570312 129.089844 C 205.511719 129.679688 205.425781 130.265625 205.308594 130.847656 C 205.191406 131.425781 205.050781 132 204.878906 132.566406 C 204.707031 133.132812 204.507812 133.691406 204.28125 134.238281 C 204.054688 134.785156 203.800781 135.320312 203.519531 135.839844 C 203.242188 136.363281 202.9375 136.871094 202.609375 137.363281 C 202.28125 137.855469 201.929688 138.332031 201.550781 138.789062 C 201.175781 139.246094 200.78125 139.683594 200.359375 140.101562 C 199.941406 140.519531 199.503906 140.917969 199.046875 141.292969 C 198.589844 141.667969 198.113281 142.023438 197.621094 142.351562 C 197.128906 142.679688 196.621094 142.984375 196.101562 143.261719 C 195.578125 143.542969 195.042969 143.792969 194.496094 144.019531 C 193.949219 144.246094 193.390625 144.445312 192.824219 144.617188 C 192.257812 144.789062 191.6875 144.933594 191.105469 145.050781 C 190.523438 145.164062 189.9375 145.253906 189.351562 145.308594 C 188.761719 145.367188 188.171875 145.398438 187.578125 145.398438 C 186.984375 145.398438 186.394531 145.367188 185.804688 145.308594 C 185.21875 145.253906 184.632812 145.164062 184.050781 145.050781 C 183.472656 144.933594 182.898438 144.789062 182.332031 144.617188 C 181.765625 144.445312 181.207031 144.246094 180.660156 144.019531 C 180.113281 143.792969 179.578125 143.542969 179.054688 143.261719 C 178.535156 142.984375 178.027344 142.679688 177.535156 142.351562 C 177.042969 142.023438 176.566406 141.667969 176.109375 141.292969 C 175.652344 140.917969 175.214844 140.519531 174.796875 140.101562 C 174.375 139.683594 173.980469 139.246094 173.605469 138.789062 C 173.230469 138.332031 172.875 137.855469 172.546875 137.363281 C 172.21875 136.871094 171.914062 136.363281 171.636719 135.839844 C 171.355469 135.320312 171.101562 134.785156 170.875 134.238281 C 170.648438 133.691406 170.449219 133.132812 170.277344 132.566406 C 170.105469 132 169.964844 131.425781 169.847656 130.847656 C 169.734375 130.265625 169.644531 129.679688 169.585938 129.089844 C 169.53125 128.503906 169.5 127.910156 169.5 127.320312 L 169.5 30.90625 C 169.5 30.3125 169.53125 29.722656 169.585938 29.132812 C 169.644531 28.542969 169.734375 27.960938 169.847656 27.378906 C 169.964844 26.796875 170.105469 26.226562 170.277344 25.660156 C 170.449219 25.089844 170.648438 24.535156 170.875 23.988281 C 171.101562 23.441406 171.355469 22.90625 171.636719 22.382812 C 171.914062 21.863281 172.21875 21.355469 172.546875 20.863281 C 172.875 20.371094 173.230469 19.894531 173.605469 19.4375 C 173.980469 18.980469 174.375 18.542969 174.796875 18.125 C 175.214844 17.703125 175.652344 17.308594 176.109375 16.933594 C 176.566406 16.554688 177.042969 16.203125 177.535156 15.875 C 178.027344 15.546875 178.535156 15.242188 179.054688 14.964844 C 179.578125 14.683594 180.113281 14.429688 180.660156 14.203125 C 181.207031 13.976562 181.765625 13.777344 182.332031 13.605469 C 182.898438 13.433594 183.472656 13.292969 184.050781 13.175781 C 184.632812 13.058594 185.21875 12.972656 185.804688 12.914062 C 186.394531 12.855469 186.984375 12.828125 187.578125 12.828125 Z M 187.578125 12.828125 " fill-opacity="1" fill-rule="nonzero"/></g><path fill="#e2b808" d="M 250.851562 24.878906 C 251.839844 24.878906 252.820312 24.976562 253.789062 25.167969 C 254.757812 25.363281 255.699219 25.648438 256.613281 26.027344 C 257.527344 26.40625 258.398438 26.871094 259.21875 27.417969 C 260.042969 27.96875 260.804688 28.59375 261.503906 29.292969 C 262.203125 29.992188 262.824219 30.753906 263.375 31.574219 C 263.925781 32.398438 264.390625 33.265625 264.769531 34.179688 C 265.144531 35.09375 265.433594 36.035156 265.625 37.003906 C 265.816406 37.976562 265.914062 38.957031 265.914062 39.945312 L 265.914062 130.332031 C 265.914062 131.320312 265.816406 132.300781 265.625 133.273438 C 265.433594 134.242188 265.144531 135.183594 264.769531 136.097656 C 264.390625 137.011719 263.925781 137.878906 263.375 138.703125 C 262.824219 139.523438 262.203125 140.285156 261.503906 140.984375 C 260.804688 141.683594 260.042969 142.308594 259.21875 142.859375 C 258.398438 143.40625 257.527344 143.871094 256.613281 144.25 C 255.699219 144.628906 254.757812 144.914062 253.789062 145.109375 C 252.820312 145.300781 251.839844 145.398438 250.851562 145.398438 C 249.859375 145.398438 248.882812 145.300781 247.910156 145.109375 C 246.941406 144.914062 246 144.628906 245.085938 144.25 C 244.171875 143.871094 243.304688 143.40625 242.480469 142.859375 C 241.65625 142.308594 240.898438 141.683594 240.199219 140.984375 C 239.5 140.285156 238.875 139.523438 238.324219 138.703125 C 237.773438 137.878906 237.308594 137.011719 236.933594 136.097656 C 236.554688 135.183594 236.269531 134.242188 236.074219 133.273438 C 235.882812 132.300781 235.785156 131.320312 235.785156 130.332031 L 235.785156 39.945312 C 235.785156 38.957031 235.882812 37.976562 236.074219 37.003906 C 236.269531 36.035156 236.554688 35.09375 236.933594 34.179688 C 237.308594 33.265625 237.773438 32.398438 238.324219 31.574219 C 238.875 30.753906 239.5 29.992188 240.199219 29.292969 C 240.898438 28.59375 241.65625 27.96875 242.480469 27.417969 C 243.304688 26.871094 244.171875 26.40625 245.085938 26.027344 C 246 25.648438 246.941406 25.363281 247.910156 25.167969 C 248.882812 24.976562 249.859375 24.878906 250.851562 24.878906 Z M 250.851562 24.878906 " fill-opacity="1" fill-rule="nonzero"/><path fill="#e2b808" d="M 124.308594 145.398438 C 123.316406 145.398438 122.339844 145.300781 121.367188 145.109375 C 120.398438 144.914062 119.457031 144.628906 118.542969 144.25 C 117.628906 143.871094 116.761719 143.40625 115.9375 142.859375 C 115.113281 142.308594 114.355469 141.683594 113.65625 140.984375 C 112.953125 140.285156 112.332031 139.523438 111.78125 138.703125 C 111.230469 137.878906 110.765625 137.011719 110.390625 136.097656 C 110.011719 135.183594 109.722656 134.242188 109.53125 133.273438 C 109.339844 132.300781 109.242188 131.320312 109.242188 130.332031 L 109.242188 39.945312 C 109.242188 38.957031 109.339844 37.976562 109.53125 37.003906 C 109.722656 36.035156 110.011719 35.09375 110.390625 34.179688 C 110.765625 33.265625 111.230469 32.398438 111.78125 31.574219 C 112.332031 30.753906 112.953125 29.992188 113.65625 29.292969 C 114.355469 28.59375 115.113281 27.96875 115.9375 27.417969 C 116.761719 26.871094 117.628906 26.40625 118.542969 26.027344 C 119.457031 25.648438 120.398438 25.363281 121.367188 25.167969 C 122.339844 24.976562 123.316406 24.878906 124.308594 24.878906 C 125.296875 24.878906 126.277344 24.976562 127.246094 25.167969 C 128.214844 25.363281 129.15625 25.648438 130.070312 26.027344 C 130.984375 26.40625 131.855469 26.871094 132.675781 27.417969 C 133.5 27.96875 134.257812 28.59375 134.960938 29.292969 C 135.660156 29.992188 136.28125 30.753906 136.832031 31.574219 C 137.382812 32.398438 137.847656 33.265625 138.226562 34.179688 C 138.601562 35.09375 138.890625 36.035156 139.082031 37.003906 C 139.273438 37.976562 139.371094 38.957031 139.371094 39.945312 L 139.371094 130.332031 C 139.371094 131.320312 139.273438 132.300781 139.082031 133.273438 C 138.890625 134.242188 138.601562 135.183594 138.226562 136.097656 C 137.847656 137.011719 137.382812 137.878906 136.832031 138.703125 C 136.28125 139.523438 135.660156 140.285156 134.960938 140.984375 C 134.257812 141.683594 133.5 142.308594 132.675781 142.859375 C 131.855469 143.40625 130.984375 143.871094 130.070312 144.25 C 129.15625 144.628906 128.214844 144.914062 127.246094 145.109375 C 126.277344 145.300781 125.296875 145.398438 124.308594 145.398438 Z M 124.308594 145.398438 " fill-opacity="1" fill-rule="nonzero"/></svg>