<svg xmlns="http://www.w3.org/2000/svg" xmlns:xlink="http://www.w3.org/1999/xlink" width="500" zoomAndPan="magnify" viewBox="0 0 375 374.999991" height="500" preserveAspectRatio="xMidYMid meet" version="1.0"><defs><clipPath id="2bf18ef6d3"><path d="M 41.851562 38.5 L 332.851562 38.5 L 332.851562 336.25 L 41.851562 336.25 Z M 41.851562 38.5 " clip-rule="nonzero"/></clipPath></defs><g clip-path="url(#2bf18ef6d3)"><path fill="#022135" d="M 206.960938 257.160156 C 202.839844 257.160156 199.457031 253.800781 199.457031 249.679688 C 199.457031 245.554688 202.839844 242.171875 206.960938 242.171875 C 211.085938 242.171875 214.441406 245.527344 214.441406 249.679688 C 214.441406 253.800781 211.085938 257.160156 206.960938 257.160156 Z M 206.960938 236.621094 C 199.746094 236.621094 193.90625 242.460938 193.90625 249.679688 C 193.90625 256.894531 199.773438 262.738281 206.960938 262.738281 C 214.175781 262.738281 220.019531 256.894531 220.019531 249.679688 C 220.019531 242.460938 214.175781 236.621094 206.960938 236.621094 Z M 230.773438 261.441406 L 225.804688 260.121094 C 224.035156 259.644531 221.921875 260.726562 219.753906 263 C 218.0625 264.796875 217.296875 266.332031 217.375 267.863281 C 217.402344 268.050781 218.800781 273.441406 218.800781 273.441406 L 215.445312 274.84375 C 215.445312 274.84375 212.589844 270.007812 212.484375 269.847656 C 212.089844 269.425781 210.898438 268.128906 206.960938 268.128906 C 202.996094 268.128906 201.835938 269.425781 201.410156 269.898438 C 201.253906 270.058594 198.476562 274.816406 198.476562 274.816406 L 195.121094 273.441406 C 195.121094 273.441406 196.496094 268.023438 196.523438 267.839844 C 196.601562 266.332031 195.835938 264.796875 194.144531 262.972656 C 192.265625 261.019531 190.523438 260.015625 188.699219 260.015625 C 188.699219 260.015625 188.699219 260.015625 188.671875 260.015625 C 188.488281 260.039062 183.121094 261.441406 183.121094 261.441406 L 181.722656 258.085938 C 181.722656 258.085938 186.558594 255.230469 186.691406 255.097656 C 187.855469 254.039062 188.410156 252.296875 188.410156 249.757812 C 188.410156 247.246094 187.828125 245.449219 186.691406 244.390625 C 186.585938 244.3125 181.722656 241.167969 181.722656 241.167969 L 183.070312 237.914062 C 183.070312 237.914062 189.121094 239.261719 189.570312 239.105469 C 190.46875 238.972656 192.003906 238.417969 194.144531 236.195312 C 195.835938 234.398438 196.601562 232.839844 196.523438 231.308594 C 196.496094 231.121094 195.121094 225.730469 195.121094 225.730469 L 198.476562 224.355469 C 198.476562 224.355469 201.304688 229.164062 201.4375 229.324219 C 201.835938 229.746094 202.996094 231.042969 206.960938 231.042969 C 210.898438 231.042969 212.089844 229.746094 212.511719 229.269531 C 212.644531 229.113281 215.445312 224.355469 215.445312 224.355469 L 218.800781 225.730469 C 218.800781 225.730469 217.402344 231.175781 217.402344 231.359375 C 217.296875 232.867188 218.0625 234.398438 219.78125 236.222656 C 221.867188 238.417969 223.402344 239 224.351562 239.15625 C 224.800781 239.289062 230.828125 237.914062 230.828125 237.914062 L 232.175781 241.113281 C 232.175781 241.113281 227.363281 243.941406 227.234375 244.074219 C 226.808594 244.445312 225.488281 245.632812 225.488281 249.597656 C 225.488281 253.539062 226.808594 254.726562 227.3125 255.203125 C 227.445312 255.308594 232.203125 258.085938 232.203125 258.085938 Z M 231.171875 251.054688 C 231.117188 250.734375 231.117188 248.460938 231.171875 248.117188 C 231.171875 248.117188 236.085938 245.238281 236.246094 245.078125 C 237.59375 243.785156 238.199219 241.511719 237.515625 239.476562 L 235.636719 234.980469 C 234.792969 233.367188 232.863281 232.257812 230.90625 232.257812 C 230.667969 232.257812 225.199219 233.582031 225.199219 233.582031 C 224.878906 233.367188 223.1875 231.652344 223.058594 231.4375 C 223.058594 231.4375 224.484375 225.914062 224.484375 225.675781 C 224.511719 223.773438 223.320312 221.789062 221.417969 220.8125 L 216.792969 218.910156 C 214.996094 218.328125 212.75 218.9375 211.453125 220.285156 C 211.296875 220.441406 208.390625 225.359375 208.390625 225.359375 C 207.78125 225.492188 206.117188 225.492188 205.480469 225.359375 C 205.480469 225.359375 202.601562 220.441406 202.441406 220.285156 C 201.492188 219.28125 200.011719 218.699219 198.53125 218.699219 C 198.003906 218.699219 197.527344 218.777344 196.839844 218.988281 L 192.242188 220.917969 C 190.574219 221.765625 189.386719 223.773438 189.414062 225.675781 C 189.414062 225.886719 190.839844 231.4375 190.839844 231.4375 C 190.707031 231.625 188.9375 233.367188 188.671875 233.582031 C 188.671875 233.582031 183.203125 232.257812 182.964844 232.257812 C 181.035156 232.257812 179.105469 233.367188 178.179688 235.191406 L 176.277344 239.765625 C 175.695312 241.5625 176.277344 243.835938 177.679688 245.132812 C 177.785156 245.265625 182.726562 248.460938 182.726562 248.460938 C 182.777344 248.726562 182.777344 250.761719 182.726562 251.027344 C 182.726562 251.027344 177.8125 253.960938 177.652344 254.09375 C 176.277344 255.414062 175.695312 257.6875 176.355469 259.722656 L 178.261719 264.296875 C 179.132812 265.933594 181.085938 267.125 183.015625 267.125 C 183.253906 267.125 188.777344 265.722656 188.777344 265.722656 C 189.097656 265.910156 190.707031 267.546875 190.839844 267.757812 C 190.839844 267.757812 189.414062 273.285156 189.414062 273.523438 C 189.386719 275.425781 190.574219 277.40625 192.453125 278.386719 L 197.050781 280.289062 C 198.820312 280.84375 201.121094 280.261719 202.441406 278.914062 C 202.601562 278.730469 205.480469 273.839844 205.480469 273.839844 C 206.117188 273.707031 207.78125 273.707031 208.390625 273.839844 C 208.390625 273.839844 211.296875 278.730469 211.453125 278.914062 C 212.433594 279.917969 213.859375 280.5 215.367188 280.5 C 215.894531 280.5 216.371094 280.421875 217.058594 280.210938 L 221.65625 278.28125 C 223.320312 277.40625 224.511719 275.425781 224.484375 273.523438 C 224.484375 273.285156 223.058594 267.757812 223.058594 267.757812 C 223.1875 267.574219 224.800781 265.910156 225.117188 265.722656 C 225.117188 265.722656 230.667969 267.125 230.90625 267.125 C 232.808594 267.125 234.792969 265.933594 235.714844 264.085938 L 237.621094 259.484375 C 238.199219 257.6875 237.621094 255.414062 236.246094 254.09375 C 236.085938 253.933594 231.171875 251.054688 231.171875 251.054688 Z M 118.53125 123.378906 L 133.332031 138.179688 L 118.53125 152.984375 L 103.730469 138.179688 Z M 76.640625 71.433594 L 76.640625 67.074219 C 76.640625 58.746094 83.433594 51.953125 91.757812 51.953125 L 149.664062 51.953125 C 157.988281 51.953125 164.78125 58.746094 164.78125 67.074219 L 164.78125 71.433594 C 164.78125 79.789062 157.988281 86.554688 149.664062 86.554688 L 91.757812 86.554688 C 83.433594 86.554688 76.640625 79.789062 76.640625 71.433594 Z M 282.65625 119.703125 C 282.65625 129.90625 274.355469 138.207031 264.152344 138.207031 C 253.953125 138.207031 245.652344 129.90625 245.652344 119.703125 C 245.652344 109.527344 253.953125 101.226562 264.152344 101.226562 C 274.328125 101.226562 282.65625 109.527344 282.65625 119.703125 Z M 264.152344 186.238281 L 253.554688 171.460938 L 274.726562 171.460938 Z M 190.125 186.238281 L 179.554688 171.460938 L 200.699219 171.460938 Z M 94.507812 143.203125 L 114.960938 163.664062 C 115.914062 164.613281 117.183594 165.144531 118.53125 165.144531 C 119.851562 165.144531 121.148438 164.613281 122.097656 163.664062 L 142.554688 143.203125 L 185.105469 143.203125 L 185.105469 164.71875 L 173.027344 164.71875 C 171.757812 164.71875 170.621094 165.433594 170.039062 166.542969 C 169.460938 167.679688 169.566406 169.027344 170.277344 170.058594 L 187.40625 193.980469 C 188.039062 194.855469 189.070312 195.382812 190.125 195.382812 C 191.238281 195.382812 192.242188 194.855469 192.875 193.980469 L 209.976562 170.058594 C 210.714844 169.027344 210.820312 167.679688 210.238281 166.542969 C 209.65625 165.433594 208.519531 164.71875 207.253906 164.71875 L 195.175781 164.71875 L 195.175781 138.179688 C 195.175781 135.378906 192.929688 133.132812 190.125 133.132812 L 142.554688 133.132812 L 123.578125 114.152344 L 123.578125 100.035156 L 149.664062 100.035156 C 164.171875 100.035156 176.171875 89.121094 177.96875 75.082031 L 259.105469 75.082031 L 259.105469 88.195312 C 243.882812 90.625 232.203125 103.816406 232.203125 119.703125 C 232.203125 135.617188 243.882812 148.808594 259.105469 151.238281 L 259.105469 164.71875 L 247.027344 164.71875 C 245.785156 164.71875 244.625 165.433594 244.042969 166.542969 C 243.460938 167.679688 243.566406 169.027344 244.304688 170.058594 L 261.433594 193.980469 C 262.039062 194.855469 263.070312 195.382812 264.152344 195.382812 C 265.238281 195.382812 266.242188 194.855469 266.875 193.980469 L 283.976562 170.058594 C 284.742188 169.027344 284.820312 167.679688 284.265625 166.542969 C 283.660156 165.433594 282.523438 164.71875 281.253906 164.71875 L 269.203125 164.71875 L 269.203125 151.238281 C 284.398438 148.808594 296.105469 135.617188 296.105469 119.703125 C 296.105469 103.816406 284.425781 90.625 269.203125 88.195312 L 269.203125 70.035156 C 269.203125 67.234375 266.929688 64.984375 264.152344 64.984375 L 224.535156 64.984375 L 224.535156 45.214844 L 214.46875 45.214844 L 214.46875 64.984375 L 178.128906 64.984375 C 177.042969 50.210938 164.703125 38.5 149.664062 38.5 L 91.757812 38.5 C 76.71875 38.5 64.378906 50.210938 63.292969 64.984375 L 41.886719 64.984375 L 41.886719 75.082031 L 63.453125 75.082031 C 65.222656 89.121094 77.25 100.035156 91.757812 100.035156 L 113.480469 100.035156 L 113.480469 114.152344 L 94.507812 133.132812 L 41.886719 133.132812 L 41.886719 143.203125 L 69.347656 143.203125 L 69.347656 216.902344 L 41.886719 216.902344 L 41.886719 227 L 74.394531 227 C 77.195312 227 79.441406 224.726562 79.441406 221.949219 L 79.441406 143.203125 Z M 101.511719 322.792969 L 123.261719 294.5625 C 123.261719 294.535156 123.261719 294.535156 123.261719 294.535156 L 290.636719 294.535156 C 290.636719 294.535156 290.636719 294.535156 290.636719 294.5625 L 312.386719 322.792969 Z M 289.234375 211.003906 L 289.234375 287.824219 L 124.660156 287.824219 L 124.660156 211.003906 Z M 330.886719 324.777344 L 302.6875 288.164062 L 302.6875 204.292969 C 302.6875 200.589844 299.675781 197.578125 295.949219 197.578125 L 117.921875 197.578125 C 114.222656 197.578125 111.210938 200.589844 111.210938 204.292969 L 111.210938 288.164062 L 82.507812 325.410156 C 80.949219 327.445312 80.683594 330.195312 81.820312 332.496094 C 82.929688 334.796875 85.28125 336.25 87.847656 336.25 L 326.050781 336.25 C 326.078125 336.25 326.105469 336.25 326.128906 336.25 C 329.832031 336.25 332.84375 333.234375 332.84375 329.507812 C 332.84375 327.65625 332.101562 325.992188 330.886719 324.777344 " fill-opacity="1" fill-rule="nonzero"/></g></svg>