<svg xmlns="http://www.w3.org/2000/svg" xmlns:xlink="http://www.w3.org/1999/xlink" width="500" zoomAndPan="magnify" viewBox="0 0 375 374.999991" height="500" preserveAspectRatio="xMidYMid meet" version="1.0"><defs><clipPath id="d17ae56f4f"><path d="M 22 259 L 178 259 L 178 352.808594 L 22 352.808594 Z M 22 259 " clip-rule="nonzero"/></clipPath><clipPath id="21d6ff8303"><path d="M 180 22.058594 L 227 22.058594 L 227 216 L 180 216 Z M 180 22.058594 " clip-rule="nonzero"/></clipPath><clipPath id="d697e14354"><path d="M 234 22.058594 L 353 22.058594 L 353 244 L 234 244 Z M 234 22.058594 " clip-rule="nonzero"/></clipPath><clipPath id="9f0093cf97"><path d="M 156 218 L 289 218 L 289 352.808594 L 156 352.808594 Z M 156 218 " clip-rule="nonzero"/></clipPath></defs><path fill="#ffffff" d="M 87.660156 174.15625 C 77.601562 171.835938 68.574219 165.644531 62.382812 157.136719 C 55.675781 147.855469 52.582031 136.25 54.386719 125.421875 C 54.902344 122.582031 52.839844 120.003906 50.003906 119.488281 C 47.164062 118.972656 44.585938 121.035156 44.070312 123.875 C 42.007812 137.28125 45.359375 151.722656 53.871094 163.324219 C 61.609375 173.898438 72.699219 181.375 85.078125 184.46875 C 85.59375 184.46875 85.851562 184.726562 86.371094 184.726562 C 88.691406 184.726562 90.753906 183.179688 91.269531 180.859375 C 92.300781 177.765625 90.496094 174.929688 87.660156 174.15625 Z M 87.660156 174.15625 " fill-opacity="1" fill-rule="nonzero"/><path fill="#ffffff" d="M 135.632812 225.210938 L 153.171875 249.449219 C 154.976562 246.097656 156.78125 243.003906 159.101562 239.910156 L 144.144531 219.28125 L 155.75 210.769531 L 168.644531 228.820312 C 171.226562 226.5 173.804688 224.179688 176.640625 222.375 L 164.003906 204.582031 C 162.457031 202.261719 160.132812 200.972656 157.296875 200.457031 C 156.523438 200.199219 155.75 200.199219 154.71875 200.457031 L 154.203125 199.941406 C 152.398438 197.363281 151.625 194.269531 152.398438 191.171875 C 155.234375 178.796875 160.394531 150.949219 160.652344 147.339844 C 162.199219 129.804688 157.296875 112.011719 146.464844 97.3125 C 123.511719 65.339844 79.921875 56.832031 49.746094 78.230469 C 35.816406 88.03125 26.53125 103.246094 23.695312 120.519531 C 20.597656 139.34375 25.5 159.457031 37.363281 175.445312 C 48.195312 190.140625 63.414062 200.457031 80.695312 204.324219 C 84.304688 205.097656 112.675781 209.222656 125.316406 210.511719 C 128.410156 210.769531 131.503906 212.574219 133.3125 215.15625 L 134.085938 216.1875 C 133.3125 219.28125 133.828125 222.375 135.632812 225.210938 Z M 126.605469 200.199219 C 113.191406 198.910156 85.851562 194.785156 83.273438 194.269531 C 68.316406 190.65625 55.160156 181.890625 45.875 169.253906 C 35.816406 155.589844 31.433594 138.3125 34.269531 122.066406 C 36.589844 107.371094 44.328125 94.734375 55.933594 86.484375 C 65.21875 79.78125 76.308594 76.683594 87.402344 76.683594 C 106.488281 76.683594 125.832031 85.96875 138.46875 103.503906 C 147.753906 116.136719 152.140625 131.351562 150.589844 146.5625 C 150.332031 149.144531 145.433594 175.960938 142.597656 189.109375 C 141.304688 194.785156 142.339844 200.714844 145.691406 205.613281 L 141.5625 208.449219 C 137.953125 203.808594 132.539062 200.972656 126.605469 200.199219 Z M 126.605469 200.199219 " fill-opacity="1" fill-rule="nonzero"/><g clip-path="url(#d17ae56f4f)"><path fill="#ffffff" d="M 159.359375 329.644531 C 165.292969 325 169.9375 320.617188 172.773438 317.78125 C 175.867188 314.6875 177.671875 310.5625 177.671875 306.179688 C 177.671875 301.792969 175.867188 297.667969 172.773438 294.574219 C 169.9375 291.738281 165.292969 287.355469 159.359375 282.714844 C 145.949219 272.398438 124.542969 259.761719 100.296875 259.761719 C 76.050781 259.761719 54.644531 272.398438 41.234375 282.714844 C 35.300781 287.355469 30.660156 291.738281 27.820312 294.574219 C 24.726562 297.667969 22.921875 301.792969 22.921875 306.179688 C 22.921875 310.5625 24.726562 314.6875 27.820312 317.78125 C 30.660156 320.617188 35.300781 325 41.234375 329.644531 C 54.902344 340.214844 76.050781 352.59375 100.296875 352.59375 C 124.542969 352.59375 145.949219 339.957031 159.359375 329.644531 Z M 153.429688 291.996094 C 153.429688 291.738281 153.6875 291.480469 153.6875 291.480469 C 158.84375 295.605469 162.972656 299.214844 165.550781 302.050781 C 167.871094 304.371094 167.871094 308.242188 165.550781 310.5625 C 162.714844 313.398438 158.84375 317.007812 153.6875 321.132812 C 153.6875 320.875 153.429688 320.875 153.429688 320.617188 C 152.398438 316.234375 151.882812 311.335938 151.882812 306.4375 C 151.882812 301.535156 152.398438 296.378906 153.429688 291.996094 Z M 47.164062 320.359375 C 46.90625 320.359375 46.648438 320.359375 46.390625 320.359375 C 41.492188 316.492188 37.621094 312.882812 35.042969 310.304688 C 32.722656 307.984375 32.722656 304.113281 35.042969 301.792969 C 37.878906 298.957031 42.007812 295.347656 46.90625 291.222656 C 46.90625 291.480469 47.164062 291.480469 47.164062 291.738281 C 48.195312 296.121094 48.710938 301.019531 48.710938 305.921875 C 48.710938 310.820312 48.195312 315.976562 47.164062 320.359375 Z M 57.222656 289.675781 C 56.964844 288.128906 56.191406 286.582031 55.160156 285.550781 C 67.28125 277.554688 83.015625 270.078125 100.296875 270.078125 C 117.578125 270.078125 133.3125 277.296875 145.433594 285.550781 C 144.402344 286.839844 143.628906 288.128906 143.371094 289.675781 C 142.082031 294.832031 141.5625 300.503906 141.5625 306.179688 C 141.5625 311.851562 142.082031 317.523438 143.371094 322.679688 C 143.628906 324.226562 144.402344 325.773438 145.433594 326.804688 C 133.3125 334.800781 117.578125 342.277344 100.296875 342.277344 C 83.015625 342.277344 67.28125 335.058594 55.160156 326.804688 C 56.191406 325.515625 56.964844 324.226562 57.222656 322.679688 C 58.515625 317.523438 59.03125 311.851562 59.03125 306.179688 C 59.03125 300.503906 58.515625 294.832031 57.222656 289.675781 Z M 57.222656 289.675781 " fill-opacity="1" fill-rule="nonzero"/></g><path fill="#ffffff" d="M 77.859375 312.109375 L 78.632812 312.109375 L 78.632812 312.882812 C 78.632812 315.71875 80.953125 318.039062 83.789062 318.039062 C 86.628906 318.039062 88.949219 315.71875 88.949219 312.882812 L 88.949219 312.109375 L 96.429688 312.109375 L 96.429688 312.882812 C 96.429688 315.71875 98.75 318.039062 101.585938 318.039062 C 104.421875 318.039062 106.746094 315.71875 106.746094 312.882812 L 106.746094 312.109375 L 114.226562 312.109375 L 114.226562 312.882812 C 114.226562 315.71875 116.546875 318.039062 119.382812 318.039062 C 122.21875 318.039062 124.542969 315.71875 124.542969 312.882812 L 124.542969 312.109375 L 125.316406 312.109375 C 128.152344 312.109375 130.472656 309.789062 130.472656 306.953125 C 130.472656 304.113281 128.152344 301.792969 125.316406 301.792969 L 124.542969 301.792969 L 124.542969 301.019531 C 124.542969 298.183594 122.21875 295.863281 119.382812 295.863281 C 116.546875 295.863281 114.226562 298.183594 114.226562 301.019531 L 114.226562 301.792969 L 106.746094 301.792969 L 106.746094 301.019531 C 106.746094 298.183594 104.421875 295.863281 101.585938 295.863281 C 98.75 295.863281 96.429688 298.183594 96.429688 301.019531 L 96.429688 301.792969 L 88.949219 301.792969 L 88.949219 301.019531 C 88.949219 298.183594 86.628906 295.863281 83.789062 295.863281 C 80.953125 295.863281 78.632812 298.183594 78.632812 301.019531 L 78.632812 301.792969 L 77.859375 301.792969 C 75.019531 301.792969 72.699219 304.113281 72.699219 306.953125 C 72.699219 309.789062 75.019531 312.109375 77.859375 312.109375 Z M 77.859375 312.109375 " fill-opacity="1" fill-rule="nonzero"/><g clip-path="url(#21d6ff8303)"><path fill="#ffffff" d="M 213.265625 171.0625 L 209.914062 190.65625 C 208.882812 195.816406 208.625 201.230469 208.625 206.644531 L 208.625 209.222656 C 211.976562 208.707031 215.328125 208.191406 218.941406 208.191406 L 218.941406 206.644531 C 218.941406 202.003906 219.457031 197.105469 220.230469 192.464844 L 223.582031 172.867188 C 225.648438 161.003906 226.679688 148.628906 226.679688 136.507812 L 226.679688 43.164062 C 226.679688 31.816406 217.652344 22.535156 206.300781 22.535156 L 200.371094 22.535156 C 189.28125 22.535156 180.253906 31.816406 180.253906 43.164062 L 180.253906 136.25 C 180.253906 148.371094 181.285156 160.746094 183.347656 172.609375 L 186.699219 192.207031 C 187.472656 196.847656 187.988281 201.746094 187.988281 206.386719 L 187.988281 215.929688 C 191.34375 214.378906 194.695312 212.832031 198.308594 211.800781 L 198.308594 206.644531 C 198.308594 201.230469 197.792969 195.816406 197.015625 190.65625 L 193.664062 171.0625 C 191.601562 159.714844 190.570312 148.113281 190.570312 136.507812 L 190.570312 43.164062 C 190.570312 37.492188 194.953125 32.847656 200.628906 32.847656 L 206.5625 32.847656 C 211.976562 32.847656 216.363281 37.492188 216.363281 43.164062 L 216.363281 136.25 C 216.363281 147.855469 215.328125 159.457031 213.265625 171.0625 Z M 213.265625 171.0625 " fill-opacity="1" fill-rule="nonzero"/></g><g clip-path="url(#d697e14354)"><path fill="#ffffff" d="M 346.613281 27.175781 L 337.070312 23.308594 C 334.488281 22.277344 331.652344 22.277344 329.074219 23.308594 C 326.492188 24.339844 324.6875 26.402344 323.65625 28.980469 L 300.445312 86.484375 L 281.359375 96.539062 C 280.324219 97.054688 279.292969 98.085938 279.035156 99.117188 L 234.417969 209.222656 C 237.769531 209.738281 241.378906 210.511719 244.476562 211.542969 L 265.367188 159.714844 L 303.023438 175.1875 L 279.292969 233.976562 C 281.875 237.070312 284.453125 240.167969 286.515625 243.519531 C 286.515625 243.519531 335.519531 121.808594 335.519531 121.808594 C 336.035156 120.777344 336.035156 119.488281 335.519531 118.199219 L 328.558594 97.570312 L 351.769531 40.070312 C 354.347656 35.171875 351.769531 29.238281 346.613281 27.175781 Z M 306.890625 94.992188 C 307.148438 94.734375 307.40625 94.734375 307.664062 94.476562 L 318.5 98.859375 C 318.5 99.117188 318.5 99.375 318.757812 99.632812 L 322.625 111.496094 L 296.058594 100.664062 Z M 307.148438 165.902344 L 269.492188 150.433594 L 286.515625 107.886719 L 324.171875 123.097656 Z M 321.59375 88.804688 L 312.308594 84.9375 L 333.199219 32.847656 L 342.742188 36.71875 Z M 321.59375 88.804688 " fill-opacity="1" fill-rule="nonzero"/></g><g clip-path="url(#9f0093cf97)"><path fill="#ffffff" d="M 288.0625 277.554688 C 284.195312 244.292969 255.824219 218.507812 221.519531 218.507812 C 190.570312 218.507812 164.519531 239.652344 156.78125 268.273438 C 158.328125 269.304688 169.9375 278.070312 170.453125 278.585938 C 183.347656 273.171875 198.308594 273.945312 210.429688 280.390625 C 200.113281 292.253906 192.375 303.597656 187.214844 312.882812 C 186.183594 317.007812 184.121094 320.875 181.027344 324.226562 C 180.769531 324.742188 173.03125 331.707031 173.03125 331.707031 C 174.835938 333.769531 176.898438 335.574219 179.222656 337.378906 C 179.222656 337.378906 179.480469 337.636719 179.480469 337.636719 C 191.085938 346.917969 205.527344 352.59375 221.519531 352.59375 C 242.152344 352.59375 260.722656 343.308594 272.847656 328.613281 C 271.296875 323.96875 270.523438 319.070312 270.523438 314.171875 C 270.265625 314.429688 270.265625 314.6875 270.007812 314.945312 C 262.273438 295.347656 252.210938 278.84375 240.347656 265.4375 C 241.636719 264.148438 243.183594 263.117188 244.476562 262.085938 C 244.476562 262.085938 244.734375 262.34375 244.734375 262.34375 C 253.503906 271.109375 264.851562 276.265625 277.488281 277.554688 C 278.003906 280.132812 278.003906 282.972656 278.003906 285.808594 C 278.003906 286.839844 278.003906 287.871094 278.003906 288.644531 C 280.84375 284.261719 284.195312 280.648438 288.0625 277.554688 Z M 221.519531 228.820312 C 224.355469 228.820312 226.9375 229.078125 229.773438 229.335938 C 230.546875 238.363281 233.640625 246.613281 238.285156 253.832031 C 236.738281 255.121094 234.933594 256.410156 233.382812 257.957031 C 219.457031 244.808594 206.042969 238.363281 196.242188 235.007812 C 203.722656 231.140625 212.234375 228.820312 221.519531 228.820312 Z M 167.355469 268.789062 C 170.453125 258.472656 176.640625 249.449219 184.636719 242.488281 C 191.859375 244.035156 208.367188 248.933594 225.390625 264.921875 C 222.808594 267.5 219.972656 270.078125 217.394531 272.65625 C 202.691406 263.632812 183.605469 262.085938 167.355469 268.789062 Z M 225.648438 342.019531 C 224.355469 342.019531 222.808594 342.277344 221.519531 342.277344 C 209.398438 342.277344 198.050781 338.410156 188.765625 331.707031 C 192.890625 323.195312 202.433594 305.40625 218.941406 286.582031 C 219.199219 286.839844 219.457031 287.097656 219.714844 287.355469 C 233.640625 301.535156 236.222656 324.484375 225.648438 342.019531 Z M 262.789062 324.484375 C 256.082031 331.449219 247.828125 336.863281 238.285156 339.699219 C 246.28125 319.328125 242.152344 295.347656 226.9375 280.132812 C 226.679688 279.875 226.164062 279.359375 225.90625 279.101562 C 228.226562 276.78125 230.546875 274.460938 232.867188 272.398438 C 244.992188 285.808594 255.050781 303.339844 262.789062 324.484375 Z M 240.347656 232.171875 C 246.28125 234.234375 251.695312 237.332031 256.339844 240.941406 C 252.988281 243.003906 249.632812 245.324219 246.28125 247.644531 C 243.441406 243.003906 241.378906 237.589844 240.347656 232.171875 Z M 252.988281 255.636719 C 256.597656 253.058594 260.464844 250.480469 264.335938 248.160156 C 268.976562 253.574219 272.589844 259.761719 275.167969 266.46875 C 266.65625 265.179688 258.917969 261.3125 252.988281 255.636719 Z M 252.988281 255.636719 " fill-opacity="1" fill-rule="nonzero"/></g><path fill="#ffffff" d="M 316.949219 277.8125 C 297.089844 277.8125 280.84375 294.058594 280.84375 313.914062 C 280.84375 333.769531 297.089844 350.011719 316.949219 350.011719 C 336.8125 350.011719 353.058594 333.769531 353.058594 313.914062 C 353.058594 294.058594 336.8125 277.8125 316.949219 277.8125 Z M 295.800781 329.902344 C 292.449219 325.515625 290.386719 319.84375 290.386719 313.914062 C 290.386719 307.984375 292.449219 302.308594 295.800781 297.925781 C 299.414062 302.566406 301.476562 307.984375 301.476562 313.914062 C 301.476562 319.84375 299.414062 325.257812 295.800781 329.902344 Z M 330.363281 336.605469 C 326.492188 338.925781 321.851562 340.214844 316.949219 340.214844 C 312.050781 340.214844 307.664062 338.925781 303.539062 336.605469 C 308.699219 330.160156 311.792969 322.164062 311.792969 313.914062 C 311.792969 305.664062 308.957031 297.667969 303.539062 291.222656 C 307.40625 288.902344 312.050781 287.613281 316.949219 287.613281 C 321.851562 287.613281 326.234375 288.902344 330.363281 291.222656 C 325.203125 297.667969 322.109375 305.664062 322.109375 313.914062 C 322.109375 322.164062 324.945312 330.160156 330.363281 336.605469 Z M 338.101562 329.902344 C 334.488281 325.257812 332.425781 319.84375 332.425781 313.914062 C 332.425781 307.984375 334.488281 302.566406 338.101562 297.925781 C 341.453125 302.308594 343.515625 307.984375 343.515625 313.914062 C 343.257812 319.84375 341.453125 325.515625 338.101562 329.902344 Z M 338.101562 329.902344 " fill-opacity="1" fill-rule="nonzero"/></svg>