<svg xmlns="http://www.w3.org/2000/svg" xmlns:xlink="http://www.w3.org/1999/xlink" width="500" zoomAndPan="magnify" viewBox="0 0 375 374.999991" height="500" preserveAspectRatio="xMidYMid meet" version="1.0"><defs><clipPath id="0cd9265313"><path d="M 50 55.980469 L 314 55.980469 L 314 319.230469 L 50 319.230469 Z M 50 55.980469 " clip-rule="nonzero"/></clipPath></defs><g clip-path="url(#0cd9265313)"><path fill="#ffffff" d="M 281.257812 262.738281 C 273.75 258.710938 265.214844 255.21875 255.929688 252.285156 L 255.050781 259.414062 C 262.945312 261.972656 270.230469 264.964844 276.738281 268.355469 C 259.28125 288.800781 235.335938 303.546875 208.117188 309.375 C 212.863281 305.605469 217.367188 300.796875 221.566406 295 C 220.558594 293.65625 219.824219 292.097656 219.457031 290.390625 L 218.65625 286.667969 C 209.015625 301.695312 197.570312 310.46875 185.5625 311.914062 L 185.5625 283.496094 C 184.476562 285.320312 182.945312 286.886719 181.035156 287.992188 L 179.285156 289.003906 C 179.023438 289.15625 178.746094 289.277344 178.476562 289.40625 L 178.476562 311.914062 C 163.984375 310.171875 150.304688 297.785156 139.640625 276.574219 C 136.140625 269.617188 133.117188 261.960938 130.570312 253.789062 C 135.425781 252.804688 140.4375 251.972656 145.550781 251.269531 C 145.734375 250.335938 146 249.417969 146.363281 248.53125 L 142.976562 244.488281 C 138.070312 245.191406 133.257812 246.015625 128.578125 246.980469 C 124 229.964844 121.46875 210.949219 121.195312 191.148438 L 165.40625 191.148438 L 158.203125 184.667969 C 157.988281 184.476562 157.800781 184.265625 157.605469 184.058594 L 121.195312 184.058594 C 121.464844 164.367188 123.972656 145.457031 128.503906 128.515625 C 144.066406 131.730469 161.007812 133.539062 178.476562 133.753906 L 178.476562 159.695312 C 180.132812 159.929688 181.757812 160.351562 183.320312 161.007812 L 185.5625 161.953125 L 185.5625 133.753906 C 203.03125 133.539062 219.972656 131.726562 235.535156 128.511719 C 239.859375 144.679688 242.316406 162.65625 242.769531 181.382812 L 249.417969 177.53125 C 249.523438 177.46875 249.636719 177.417969 249.742188 177.355469 C 249.050781 159.574219 246.570312 142.5 242.445312 126.96875 C 257.121094 123.445312 270.371094 118.625 281.417969 112.679688 C 296.519531 132.660156 305.742188 157.320312 306.496094 184.058594 L 290.765625 184.058594 C 291.222656 186.390625 291.097656 188.816406 290.410156 191.148438 L 306.496094 191.148438 C 305.742188 217.984375 296.453125 242.71875 281.257812 262.738281 Z M 87.304688 268.355469 C 97.664062 262.953125 110 258.566406 123.625 255.324219 C 126.324219 264.089844 129.554688 272.296875 133.308594 279.757812 C 139.820312 292.703125 147.496094 302.683594 155.921875 309.375 C 128.703125 303.546875 104.761719 288.800781 87.304688 268.355469 Z M 57.546875 191.148438 L 114.109375 191.148438 C 114.382812 211.441406 116.972656 230.972656 121.664062 248.519531 C 107.03125 252.023438 93.8125 256.820312 82.777344 262.738281 C 67.585938 242.71875 58.296875 217.984375 57.546875 191.148438 Z M 82.613281 112.6875 C 93.664062 118.636719 106.914062 123.453125 121.59375 126.976562 C 116.949219 144.449219 114.378906 163.875 114.109375 184.058594 L 57.546875 184.058594 C 58.296875 157.324219 67.515625 132.667969 82.613281 112.6875 Z M 178.476562 63.296875 L 178.476562 126.667969 C 161.675781 126.457031 145.410156 124.742188 130.480469 121.703125 C 133.042969 113.421875 136.097656 105.675781 139.640625 98.636719 C 150.304688 77.425781 163.984375 65.039062 178.476562 63.296875 Z M 155.921875 65.835938 C 147.496094 72.523438 139.820312 82.503906 133.308594 95.449219 C 129.515625 102.992188 126.25 111.292969 123.535156 120.167969 C 109.863281 116.910156 97.496094 112.496094 87.121094 107.070312 C 104.59375 86.507812 128.609375 71.683594 155.921875 65.835938 Z M 185.5625 63.296875 C 200.054688 65.039062 213.734375 77.425781 224.398438 98.636719 C 227.9375 105.671875 230.992188 113.421875 233.554688 121.695312 C 218.628906 124.738281 202.363281 126.457031 185.5625 126.667969 Z M 276.910156 107.058594 C 266.535156 112.488281 254.167969 116.902344 240.5 120.160156 C 237.789062 111.289062 234.523438 102.992188 230.730469 95.449219 C 224.21875 82.503906 216.539062 72.523438 208.117188 65.835938 C 235.421875 71.683594 259.4375 86.503906 276.910156 107.058594 Z M 182.019531 55.988281 C 109.445312 55.988281 50.402344 115.03125 50.402344 187.601562 C 50.402344 260.175781 109.445312 319.222656 182.019531 319.222656 C 254.59375 319.222656 313.636719 260.175781 313.636719 187.601562 C 313.636719 115.03125 254.59375 55.988281 182.019531 55.988281 " fill-opacity="1" fill-rule="nonzero"/></g><path fill="#ffffff" d="M 179.363281 220.125 C 179.933594 219.703125 180.5 219.285156 181.0625 218.871094 C 181.0625 218.871094 182.933594 217.519531 183.382812 217.195312 L 185.5625 215.015625 L 185.5625 209.28125 L 178.476562 202.90625 L 178.476562 220.796875 L 179.363281 220.125 " fill-opacity="1" fill-rule="nonzero"/><path fill="#ffffff" d="M 145.429688 256.328125 C 125.839844 264.75 107.320312 271.503906 90.878906 276.132812 C 55.882812 285.984375 40.105469 283.394531 37.007812 277.683594 C 34.058594 272.242188 39.851562 258.382812 64.957031 235.796875 L 60.21875 230.527344 C 34.867188 253.332031 24.960938 270.335938 30.777344 281.0625 C 34.066406 287.125 41.910156 289.820312 53.007812 289.820312 C 75.210938 289.820312 110.417969 279.019531 148.109375 262.828125 C 147.089844 261.421875 146.296875 259.828125 145.808594 258.089844 C 145.644531 257.507812 145.519531 256.917969 145.429688 256.328125 " fill-opacity="1" fill-rule="nonzero"/><path fill="#ffffff" d="M 342.246094 112.117188 C 336.46875 101.460938 317.015625 100.433594 284.429688 109.074219 L 286.246094 115.925781 C 318.480469 107.382812 333.089844 110.097656 336.015625 115.496094 C 339.113281 121.207031 332.683594 135.847656 305.339844 159.804688 C 299.433594 164.980469 292.894531 170.28125 285.851562 175.644531 C 285.96875 175.742188 286.082031 175.84375 286.195312 175.945312 C 286.460938 176.191406 286.679688 176.40625 286.882812 176.621094 C 287.011719 176.75 287.132812 176.878906 287.246094 177.011719 C 287.515625 177.308594 287.792969 177.644531 288.050781 177.992188 L 288.277344 178.300781 C 288.554688 178.691406 288.8125 179.089844 289.050781 179.503906 C 289.402344 180.113281 289.699219 180.742188 289.960938 181.386719 C 326.628906 153.574219 350.277344 126.929688 342.246094 112.117188 " fill-opacity="1" fill-rule="nonzero"/><path fill="#ffffff" d="M 217.199219 235.003906 L 228.695312 288.394531 C 229.050781 290.050781 230.914062 290.875 232.378906 290.027344 L 238.15625 286.679688 C 240.882812 285.101562 242.710938 282.335938 243.09375 279.210938 L 250.933594 215.515625 L 266.277344 206.625 C 266.660156 206.398438 267.039062 206.167969 267.414062 205.929688 C 267.496094 205.878906 267.582031 205.824219 267.664062 205.773438 C 268.023438 205.539062 268.382812 205.300781 268.734375 205.054688 C 268.796875 205.007812 268.859375 204.964844 268.921875 204.921875 C 269.234375 204.699219 269.539062 204.472656 269.84375 204.242188 C 269.914062 204.1875 269.988281 204.136719 270.058594 204.078125 C 270.390625 203.824219 270.714844 203.5625 271.039062 203.292969 C 271.121094 203.222656 271.207031 203.148438 271.292969 203.074219 C 271.582031 202.828125 271.867188 202.582031 272.148438 202.324219 C 272.195312 202.285156 272.242188 202.242188 272.285156 202.203125 C 272.589844 201.925781 272.886719 201.636719 273.175781 201.351562 C 273.269531 201.257812 273.359375 201.167969 273.453125 201.074219 C 273.734375 200.789062 274.011719 200.5 274.285156 200.207031 C 274.359375 200.125 274.433594 200.042969 274.503906 199.960938 C 274.722656 199.71875 274.9375 199.476562 275.152344 199.226562 C 275.238281 199.125 275.324219 199.023438 275.410156 198.921875 C 275.660156 198.621094 275.902344 198.320312 276.144531 198.011719 C 276.230469 197.898438 276.316406 197.785156 276.402344 197.671875 C 276.59375 197.417969 276.78125 197.164062 276.96875 196.90625 C 277.035156 196.8125 277.101562 196.71875 277.167969 196.625 C 277.402344 196.292969 277.628906 195.953125 277.847656 195.613281 C 277.945312 195.46875 278.035156 195.316406 278.128906 195.171875 C 278.273438 194.9375 278.417969 194.703125 278.558594 194.46875 C 278.644531 194.320312 278.734375 194.171875 278.820312 194.019531 C 278.992188 193.71875 279.160156 193.417969 279.324219 193.109375 C 279.367188 193.03125 279.410156 192.953125 279.453125 192.871094 C 279.65625 192.492188 279.84375 192.105469 280.03125 191.714844 C 280.089844 191.589844 280.148438 191.460938 280.207031 191.332031 C 280.34375 191.039062 280.472656 190.746094 280.601562 190.449219 C 280.65625 190.324219 280.710938 190.195312 280.761719 190.074219 C 280.933594 189.660156 281.097656 189.246094 281.253906 188.824219 C 281.84375 187.222656 281.632812 185.550781 280.855469 184.207031 C 280.769531 184.058594 280.671875 183.914062 280.574219 183.777344 C 280.550781 183.742188 280.523438 183.707031 280.496094 183.671875 C 280.398438 183.539062 280.296875 183.414062 280.1875 183.289062 C 280.160156 183.261719 280.128906 183.230469 280.101562 183.199219 C 280.015625 183.109375 279.925781 183.019531 279.832031 182.933594 C 279.785156 182.890625 279.742188 182.851562 279.695312 182.808594 C 279.585938 182.714844 279.46875 182.621094 279.347656 182.535156 C 279.289062 182.492188 279.230469 182.453125 279.167969 182.410156 C 279.085938 182.355469 279.003906 182.304688 278.917969 182.253906 C 278.855469 182.214844 278.792969 182.179688 278.730469 182.144531 C 278.730469 182.140625 278.726562 182.140625 278.726562 182.140625 C 278.59375 182.070312 278.449219 182.003906 278.308594 181.941406 C 278.238281 181.910156 278.167969 181.886719 278.101562 181.855469 C 277.992188 181.816406 277.882812 181.777344 277.769531 181.742188 C 277.710938 181.722656 277.648438 181.703125 277.585938 181.6875 C 277.410156 181.636719 277.230469 181.59375 277.046875 181.5625 C 269.164062 180.234375 261.070312 181.699219 254.15625 185.707031 L 252.40625 186.71875 L 244.171875 191.492188 L 238.8125 194.597656 L 179.65625 169.71875 C 176.753906 168.5 173.441406 168.707031 170.71875 170.289062 L 164.941406 173.636719 C 163.476562 174.484375 163.265625 176.511719 164.523438 177.644531 L 205.128906 214.171875 C 203.308594 215.273438 201.507812 216.402344 199.71875 217.546875 C 199.714844 217.550781 199.714844 217.550781 199.710938 217.550781 C 198.582031 218.277344 197.457031 219.007812 196.339844 219.746094 C 196.308594 219.769531 196.277344 219.789062 196.246094 219.808594 C 195.152344 220.535156 194.066406 221.269531 192.984375 222.007812 C 192.933594 222.042969 192.882812 222.074219 192.835938 222.109375 C 191.722656 222.875 190.613281 223.648438 189.511719 224.429688 C 188.863281 224.890625 188.222656 225.355469 187.578125 225.820312 C 187.265625 226.046875 186.953125 226.273438 186.640625 226.5 C 186.097656 226.898438 185.550781 227.300781 185.007812 227.703125 C 184.527344 228.0625 184.050781 228.421875 183.574219 228.78125 C 183.164062 229.089844 182.75 229.398438 182.34375 229.710938 C 181.425781 230.414062 180.511719 231.117188 179.605469 231.832031 L 169.460938 239.808594 L 149.226562 227.40625 C 148.210938 226.785156 146.9375 226.769531 145.910156 227.367188 L 144.160156 228.378906 C 143.414062 228.8125 143.183594 229.761719 143.601562 230.480469 C 143.644531 230.554688 143.695312 230.625 143.753906 230.695312 L 158.558594 248.378906 L 157.023438 249.589844 C 155.238281 250.992188 154.285156 253.335938 154.902344 255.523438 C 155.835938 258.839844 159.332031 260.421875 162.320312 259.214844 L 164.359375 258.390625 L 172.339844 280.03125 C 172.371094 280.117188 172.40625 280.199219 172.453125 280.273438 C 172.867188 280.992188 173.804688 281.261719 174.550781 280.828125 L 176.300781 279.816406 C 177.328125 279.21875 177.949219 278.109375 177.914062 276.917969 L 177.21875 253.195312 L 189.183594 248.363281 C 198.789062 244.484375 208.140625 240.019531 217.199219 235.003906 " fill-opacity="1" fill-rule="nonzero"/></svg>